<svg width="4" height="18" viewBox="0 0 4 18" fill="none" xmlns="http://www.w3.org/2000/svg">
<path fill-rule="evenodd" clip-rule="evenodd" d="M2 7C3.10457 7 4 7.89543 4 9C4 10.1046 3.10457 11 2 11C0.895432 11 9.05393e-07 10.1046 9.53675e-07 9C1.00196e-06 7.89543 0.895432 7 2 7Z" fill="white"/>
<path fill-rule="evenodd" clip-rule="evenodd" d="M2 14C3.10457 14 4 14.8954 4 16C4 17.1046 3.10457 18 2 18C0.89543 18 -4.82814e-08 17.1046 0 16C4.82832e-08 14.8954 0.895431 14 2 14Z" fill="white"/>
<path fill-rule="evenodd" clip-rule="evenodd" d="M2 0C3.10457 4.82823e-08 4 0.89543 4 2C4 3.10457 3.10457 4 2 4C0.895432 4 9.05393e-07 3.10457 9.53675e-07 2C1.00196e-06 0.89543 0.895432 -4.82823e-08 2 0Z" fill="white"/>
</svg>
