<svg width="24" height="18" viewBox="0 0 24 18" fill="none" xmlns="http://www.w3.org/2000/svg">
<path d="M3.25005 4.625C3.25005 2.20875 5.20881 0.25 7.62505 0.25C10.0413 0.25 12.0001 2.20875 12.0001 4.625C12.0001 7.04125 10.0413 9 7.62505 9C5.20881 9 3.25005 7.04125 3.25005 4.625Z" fill="#111215"/>
<path d="M0.746137 13.0732C1.92678 11.1404 4.15728 9.875 7.62505 9.875C11.0928 9.875 13.3233 11.1404 14.504 13.0732C15.2367 14.2727 14.9563 15.521 14.2071 16.3915C13.4885 17.2266 12.3306 17.75 11.125 17.75H4.12505C2.91954 17.75 1.76164 17.2266 1.04298 16.3915C0.293837 15.521 0.013374 14.2727 0.746137 13.0732Z" fill="#111215"/>
<path d="M19.875 17.75H15.363C15.5075 17.6058 15.6427 17.4597 15.7672 17.315C16.6939 16.2382 17.0408 13.9266 16.1344 12.4428C15.6052 11.5764 14.9054 10.7721 14.0241 10.0986C14.7338 9.95256 15.5165 9.875 16.375 9.875C19.8428 9.875 22.0733 11.1404 23.254 13.0732C23.9867 14.2727 23.7063 15.521 22.9571 16.3915C22.2385 17.2266 21.0806 17.75 19.875 17.75Z" fill="#111215"/>
<path d="M16.375 9C15.057 9 13.8751 8.41715 13.073 7.49512C13.5094 6.65212 13.756 5.69491 13.756 4.68011C13.756 3.63778 13.4959 2.6562 13.037 1.79673C13.8395 0.850529 15.0372 0.25 16.375 0.25C18.7913 0.25 20.75 2.20875 20.75 4.625C20.75 7.04125 18.7913 9 16.375 9Z" fill="#111215"/>
</svg>
