<svg width="1931" height="1086" viewBox="0 0 1931 1086" fill="none" xmlns="http://www.w3.org/2000/svg">
<g clip-path="url(#clip0_1827_312)">
<path fill-rule="evenodd" clip-rule="evenodd" d="M472 286.212L492.633 292.923L494.093 287.412L483.911 262.486L472 257.484V286.212Z" fill="#211F22"/>
<path d="M709.82 66.9699C716.65 58.3599 727.36 53.8399 738.22 52.9399C738.467 52.9202 738.715 52.981 738.925 53.1134C739.135 53.2458 739.296 53.4427 739.385 53.6745C739.474 53.9063 739.486 54.1607 739.418 54.3996C739.35 54.6386 739.207 54.8491 739.01 54.9999C731.437 60.7599 722.797 65.0366 713.09 67.8299C711.903 68.1699 710.88 68.1466 710.02 67.7599C709.948 67.7274 709.883 67.679 709.832 67.6184C709.781 67.5577 709.744 67.4866 709.725 67.4103C709.706 67.334 709.704 67.2546 709.721 67.1783C709.737 67.102 709.771 67.0307 709.82 66.9699Z" fill="#EE5321"/>
<path d="M796.83 74.66C811.12 72.54 825.71 69.6 839.69 68.21C861.51 66.04 880.5 65.02 899.83 63.74C919.11 62.45 938.47 62.37 957.75 61.49C965.483 61.1367 981.497 61.33 1005.79 62.07C1013.22 62.2967 1019.86 62.73 1025.73 63.37C1072.14 68.43 1116.8 80.28 1159.71 98.92C1160.28 99.1667 1160.75 99.4233 1161.13 99.69C1161.72 100.11 1162.13 100.47 1162.34 100.77C1162.46 100.947 1162.53 101.158 1162.53 101.374C1162.52 101.59 1162.45 101.799 1162.32 101.971C1162.19 102.144 1162.01 102.27 1161.8 102.333C1161.6 102.396 1161.37 102.391 1161.17 102.32C1127.8 90.59 1092.55 80.66 1057.78 75.9C1033.29 72.54 1008.23 69.83 983.5 69.57C962.393 69.3433 942.393 69.9867 923.5 71.5C911.15 72.48 897.47 72.63 887.85 73.37C865.363 75.0967 842.97 77.6567 820.67 81.05C803.72 83.63 792.35 87.49 778.2 91.44C777.877 91.5303 777.534 91.5224 777.216 91.4172C776.897 91.3121 776.617 91.1145 776.411 90.8496C776.205 90.5847 776.083 90.2644 776.059 89.9297C776.036 89.595 776.113 89.2609 776.28 88.97L780.35 81.89C780.537 81.5767 780.45 81.4467 780.09 81.5C748.21 86.32 716.63 98.67 688.18 113.51C688.116 113.545 688.065 113.6 688.036 113.666C688.006 113.733 688 113.807 688.017 113.878C688.034 113.948 688.074 114.012 688.13 114.057C688.187 114.103 688.257 114.128 688.33 114.13C696.797 114.317 705.237 114.96 713.65 116.06C713.963 116.107 714.2 116.263 714.36 116.53L714.49 116.76C714.63 117 714.713 117.269 714.73 117.546C714.748 117.824 714.7 118.101 714.592 118.357C714.483 118.612 714.316 118.839 714.104 119.018C713.891 119.198 713.64 119.325 713.37 119.39C697.7 123.14 681.99 124.74 666.03 128C658.39 129.633 644.872 130.244 653.56 113.91C658.96 103.78 665.54 94.77 671.59 85.03C673.67 81.69 675.883 78.45 678.23 75.31C678.392 75.0966 678.617 74.9393 678.872 74.8603C679.128 74.7813 679.403 74.7845 679.656 74.8695C679.91 74.9545 680.131 75.1171 680.288 75.3342C680.445 75.5514 680.529 75.8122 680.53 76.08C680.523 76.6133 680.427 77.3 680.24 78.14C679.007 83.68 677.777 89.1933 676.55 94.68C676.49 94.9267 676.577 94.9967 676.81 94.89C707.743 80.0233 740.28 70.35 774.42 65.87C783.627 64.67 793.713 64.38 804.68 65C804.98 65.0133 805.223 65.14 805.41 65.38C807.53 68.14 798.73 72.88 796.65 74.13C796.593 74.1649 796.549 74.2187 796.526 74.282C796.503 74.3453 796.502 74.4143 796.524 74.4771C796.545 74.5398 796.587 74.5924 796.643 74.6258C796.699 74.6592 796.765 74.6713 796.83 74.66Z" fill="#EE5321"/>
<path d="M1627.25 118.15C1623.8 118.66 1620.18 118.89 1616.93 119.43C1537.92 132.47 1464.54 146.76 1388.75 169.46L1374.23 173.86C1373.88 173.967 1373.66 174.193 1373.57 174.54L1365.03 204.31L1363.38 210.21C1358.65 221.2 1347.54 228.51 1343.06 239.6C1338.42 251.067 1334.27 262.687 1330.61 274.46L1329.79 277.09C1329.69 277.43 1329.47 277.66 1329.13 277.78L1324.2 279.48L1320.01 280.58L1315.22 280.9L1313.81 281.23L1303.62 281.54L1297.48 281.33L1295.74 280.62C1294.76 280.287 1293.77 280.273 1292.76 280.58C1292.39 280.28 1291.89 280.147 1291.27 280.18C1290.56 279.667 1289.72 279.407 1288.75 279.4C1285.87 279.127 1283.41 278.32 1281.37 276.98C1280.64 276.113 1279.5 275.55 1277.94 275.29C1276.92 275.323 1276.35 275.127 1276.23 274.7C1273.16 272.547 1269.71 270.857 1265.9 269.63C1265.96 269.577 1266.02 269.523 1266.08 269.47C1265.19 268.743 1264.14 268.343 1262.91 268.27L1261.75 267.46C1260.84 266.527 1259.82 266.17 1258.67 266.39L1249.5 262.21C1248.65 261.337 1247.51 260.74 1246.08 260.42C1244.55 258.7 1242.6 258.44 1241.11 257.65C1236.93 255.443 1232.93 253.073 1229.12 250.54C1228.37 249.453 1227.1 248.603 1225.29 247.99C1224.98 247.377 1224.24 246.893 1223.05 246.54C1222.3 245.553 1221.36 244.947 1220.24 244.72L1217.75 243.01C1216.98 242.037 1215.96 241.467 1214.71 241.3L1207.6 237.73C1205.07 236.483 1202.5 235.757 1199.89 235.55L1196.25 234.46C1195.98 234.373 1195.94 234.227 1196.13 234.02C1204.13 225.59 1211.13 216.52 1216.27 206.06C1217.6 203.333 1217.8 200.62 1216.85 197.92C1215.04 197.927 1213.49 198.453 1212.19 199.5L1205.18 202.51L1204.75 202.5C1203.71 202.553 1202.71 202.97 1201.74 203.75L1193.73 206.67L1188.3 209.33C1187.89 209.137 1187.66 209.263 1187.62 209.71L1179.78 213.34L1169.81 218.26L1163.16 221.73C1146.74 231.07 1131.13 241.95 1115.54 252.63C1104.24 260.38 1094.35 268.97 1084.27 277.92C1084.01 278.153 1084.02 278.377 1084.3 278.59C1086.08 279.957 1088.01 280.373 1090.08 279.84C1098.96 277.58 1107.84 275.29 1116.73 272.97C1117.03 272.89 1117.13 272.997 1117.03 273.29C1111.9 287.91 1106.24 301.44 1096.16 313.02C1093.09 316.553 1088.18 321.053 1081.44 326.52C1064.27 340.447 1046.69 353.827 1028.68 366.66C1024.41 369.707 1020.01 372.557 1015.48 375.21C990.33 389.94 965.85 405.71 940.7 420.42L935.75 422.52C934.77 422.5 934.107 422.83 933.76 423.51L927.51 427.04C926.03 427.5 924.793 428.307 923.8 429.46C923.784 429.478 923.764 429.491 923.741 429.497C923.718 429.503 923.694 429.502 923.672 429.495C923.649 429.487 923.63 429.473 923.615 429.455C923.6 429.436 923.592 429.414 923.59 429.39C922.61 411.123 920.843 393.663 918.29 377.01C918.397 375.703 918.213 374.697 917.74 373.99C917.953 372.27 917.737 370.777 917.09 369.51L916.41 367.94C916.307 367.694 916.292 367.425 916.37 367.18C916.683 366.127 916.56 365.133 916 364.2L915.28 358.73L915.2 357.07C915.18 356.757 915.28 356.49 915.5 356.27L963.91 307.82L994 279.19C1028.01 246.32 1064.18 216.79 1100.55 186.8C1121.09 169.88 1144.49 157.37 1169.01 148.76C1228.95 127.72 1289.29 118.97 1353.69 113.71C1377.32 111.783 1398.8 110.85 1418.11 110.91C1418.44 110.91 1418.7 110.77 1418.88 110.49C1426.07 99.6299 1432.96 88.3299 1441.28 78.2999C1442.11 77.2999 1442.99 77.1499 1444.29 77.4099C1490.25 86.6299 1527.01 97.1299 1568.49 106.8C1587.93 111.327 1607.52 115.11 1627.25 118.15Z" fill="#FFFBFA"/>
<path d="M649.66 143.56C657.409 143.56 663.69 137.279 663.69 129.53C663.69 121.781 657.409 115.5 649.66 115.5C641.911 115.5 635.63 121.781 635.63 129.53C635.63 137.279 641.911 143.56 649.66 143.56Z" fill="#FFFBFA"/>
<path d="M1627.25 118.15C1655.53 124.257 1689.7 131.04 1729.75 138.5C1739.62 140.34 1750.61 143.153 1762.71 146.94C1774.68 175.367 1785.23 204.237 1794.34 233.55C1798.66 247.44 1801.55 259.61 1799.99 271.76C1797 295.12 1787.08 319.6 1777.43 341.68C1767.51 364.393 1757.09 386.873 1746.17 409.12C1727.72 446.707 1708.83 484.04 1689.51 521.12C1689.47 521.202 1689.41 521.274 1689.34 521.333C1689.26 521.391 1689.18 521.434 1689.09 521.459C1689 521.485 1688.91 521.492 1688.82 521.48C1688.73 521.468 1688.64 521.437 1688.56 521.39C1663.04 506.117 1636.48 492.943 1608.88 481.87C1608.71 481.803 1608.53 481.767 1608.34 481.76L1607.81 481.73C1607.34 481.15 1606.66 480.883 1605.78 480.93C1602.48 479.03 1599.14 477.79 1595.75 477.21C1595.08 476.43 1593.85 475.923 1592.05 475.69C1589.84 474.423 1587.49 473.623 1585 473.29C1583.33 472.23 1581.58 471.79 1579.75 471.97C1565.24 467.243 1549.9 462.92 1533.74 459L1556.01 426.72C1556.72 426.68 1557.41 426.213 1558.08 425.32C1568.97 410.88 1579.77 395.82 1591.86 382.48C1615.15 356.76 1640.28 331.45 1667.66 310.07C1668.61 309.323 1668.49 308.97 1667.28 309.01C1657.08 309.35 1645.53 308.62 1636.27 310.28C1620.97 313.01 1604.84 319.47 1591.52 325.81C1591.21 325.957 1591.04 325.857 1591.02 325.51C1590.95 324.45 1590.98 323.387 1591.11 322.32C1595.33 286.26 1600.3 250.23 1601.31 213.87C1601.32 213.566 1601.24 213.266 1601.08 213.006C1600.92 212.746 1600.7 212.537 1600.42 212.404C1600.15 212.271 1599.84 212.219 1599.54 212.256C1599.24 212.293 1598.95 212.416 1598.72 212.61C1598.23 213.023 1597.72 213.637 1597.2 214.45C1588.93 227.33 1578.32 235.8 1564.42 246.42C1549.34 257.95 1526.48 266.31 1507.76 269.3C1459.41 277.02 1416.67 286.09 1378.83 317.22C1372.48 322.44 1368.39 327.54 1363.42 334.17C1363.05 334.67 1362.8 334.617 1362.69 334.01C1361.62 328.32 1360.09 322.6 1359.61 316.93C1357.14 288.13 1359.33 258.53 1361.39 229.75C1361.8 224.04 1363.28 218.6 1364.52 213.03C1364.93 211.203 1364.55 210.263 1363.38 210.21L1365.03 204.31C1367.6 197.803 1369.36 192.457 1370.33 188.27C1371.35 183.85 1372.64 179.553 1374.2 175.38C1374.3 175.119 1374.46 174.884 1374.66 174.693C1374.87 174.502 1375.11 174.361 1375.38 174.28L1390.5 169.71C1390.85 169.603 1390.84 169.543 1390.48 169.53L1388.75 169.46C1464.54 146.76 1537.92 132.47 1616.93 119.43C1620.18 118.89 1623.8 118.66 1627.25 118.15Z" fill="#53291E"/>
<path d="M1762.71 146.94L1767.48 148.39C1777.83 173.623 1787.17 198.91 1795.49 224.25C1801.92 243.82 1806.62 262.39 1801.88 283.08C1797.59 301.83 1789.89 322.45 1783 338C1760.06 389.81 1740.42 428.64 1711.29 486.77C1707.94 493.45 1701.64 505.62 1692.38 523.28C1692.23 523.567 1692.29 523.8 1692.56 523.98C1703.77 531.36 1714.72 539.123 1725.41 547.27C1734.5 554.2 1740.43 566.22 1746.18 575.87C1746.91 577.097 1747.89 578.087 1749.11 578.84C1759.74 585.4 1769.98 592.56 1780.68 599.03C1784.66 601.437 1788.56 603.863 1792.38 606.31C1792.51 606.393 1792.67 606.435 1792.82 606.431C1792.98 606.428 1793.13 606.378 1793.26 606.289C1793.39 606.2 1793.48 606.076 1793.54 605.932C1793.59 605.788 1793.6 605.631 1793.57 605.48C1790.8 592.97 1788.22 580.37 1783.63 568.51C1777.06 551.523 1769.61 534.907 1761.26 518.66C1761.19 518.517 1761.15 518.356 1761.16 518.195C1761.18 518.033 1761.23 517.876 1761.32 517.74C1764.39 513.22 1768.12 508.38 1770.75 504.4C1790.57 474.44 1813.56 440.51 1828.57 412.82C1858.88 356.88 1887.16 298.4 1908.73 238.49C1908.87 238.11 1909.15 237.643 1909.58 237.09C1917.33 248.17 1924.47 259.313 1931 270.52V811.04C1909.01 825.773 1887.1 840.6 1865.26 855.52C1813.3 891.01 1773.75 933.53 1745.96 990.24C1745.83 990.5 1745.89 990.71 1746.14 990.87C1772.29 1007.58 1798.16 1024.72 1823.73 1042.31C1827.26 1044.74 1830.83 1047.09 1834.44 1049.38C1837.45 1051.57 1840.36 1053.89 1843.18 1056.32C1854.11 1065.74 1864.87 1075.63 1875.46 1086H1420.8C1428.51 1050.49 1440.88 1015.93 1457.31 984.03C1460.3 978.223 1463.26 972.44 1466.21 966.68C1466.36 966.387 1466.32 966.12 1466.1 965.88C1436.25 932.38 1413.31 907.41 1397.28 890.97C1384.26 877.61 1374.18 866.903 1367.04 858.85C1361.53 852.64 1365.38 851.05 1370.74 848.55C1392.65 838.343 1415.06 829.427 1437.97 821.8C1451.92 817.15 1467.92 813.06 1482.81 808.5C1482.92 808.466 1483.02 808.403 1483.1 808.317C1483.18 808.232 1483.24 808.127 1483.26 808.013C1483.29 807.899 1483.28 807.78 1483.25 807.669C1483.21 807.558 1483.15 807.458 1483.06 807.38C1469.99 795.6 1459.91 781.743 1452.83 765.81C1452.61 765.117 1452.36 764.61 1452.07 764.29L1445.8 749.41C1445.79 749.383 1445.78 749.357 1445.77 749.33L1443.05 740.16C1442.42 739.24 1442.12 738.187 1442.16 737C1441.8 734.62 1441.45 732.43 1441.12 730.43C1441.05 729.99 1440.68 729.867 1439.99 730.06L1439 729.21C1438.61 728.317 1438.04 728.06 1437.28 728.44L1426.93 723.4C1426.91 723.027 1426.64 722.69 1426.13 722.39C1425.88 722.25 1425.49 722.143 1424.94 722.07C1423.73 721.91 1423.08 721.317 1423.01 720.29C1422.99 719.967 1423.06 719.644 1423.21 719.36C1423.37 719.075 1423.6 718.839 1423.88 718.68C1442.56 708.1 1459.05 694.81 1473.35 678.81C1473.43 678.713 1473.5 678.596 1473.53 678.471C1473.56 678.345 1473.56 678.214 1473.53 678.09C1473.5 677.965 1473.44 677.849 1473.35 677.754C1473.27 677.658 1473.16 677.585 1473.04 677.54C1468.18 675.65 1463.51 673 1459.08 670.68C1427.24 654 1396.49 635.667 1366.83 615.68C1366.76 615.634 1366.69 615.607 1366.6 615.603C1366.52 615.598 1366.44 615.616 1366.37 615.654C1366.3 615.692 1366.24 615.75 1366.2 615.819C1366.16 615.889 1366.14 615.969 1366.14 616.05C1366.23 636.58 1367.88 663.2 1378.68 680.56C1383.75 688.713 1388.86 696.84 1394.01 704.94C1394.88 706.3 1397.14 708.07 1396.93 710.09L1386.03 705.21C1385.3 704.25 1384.02 703.773 1382.2 703.78L1378.86 702C1377.03 700.527 1374.89 699.627 1372.45 699.3L1371.78 698.7C1371.21 698.093 1370.55 697.783 1369.8 697.77C1368.72 696.863 1367.77 696.49 1366.95 696.65L1363.31 694.81C1363.04 694.677 1362.83 694.733 1362.67 694.98L1357.04 703.53C1355.43 704.437 1354.51 705.677 1354.29 707.25C1345.23 721.36 1335.95 735.48 1324.48 747.9C1302.52 771.69 1280.54 797.37 1263.5 824.96C1261.84 826.113 1260.76 827.713 1260.26 829.76C1259.53 831.967 1258.42 833.863 1256.93 835.45C1255.64 836.723 1254.76 838.247 1254.3 840.02C1253.36 840.833 1252.76 841.913 1252.51 843.26L1250.61 847.5C1247.29 852.473 1244.49 857.733 1242.22 863.28L1239.18 868.93C1237.01 871.997 1235.35 875.463 1234.2 879.33L1232.03 883.69L1229.5 889.25L1225.3 899.5C1224.55 900.247 1224.22 901.08 1224.29 902L1222.29 907.26L1218.95 915.77C1213.35 934.61 1209.78 953.943 1208.23 973.77C1168.26 982.65 1128.57 994.15 1089.42 1006.36C1089.32 1006.39 1089.22 1006.39 1089.12 1006.37C1089.02 1006.34 1088.93 1006.29 1088.85 1006.22C1088.78 1006.14 1088.73 1006.05 1088.7 1005.95C1088.68 1005.85 1088.68 1005.75 1088.71 1005.65C1089.82 1002.07 1091.36 998.56 1093.33 995.12C1100.94 981.913 1108.73 968.813 1116.71 955.82C1119.08 951.96 1119.55 947.66 1122.14 943.66C1124.98 939.267 1127.01 935.863 1128.22 933.45C1137.05 915.923 1145.97 898.483 1154.97 881.13C1155.19 880.71 1155.07 880.477 1154.6 880.43C1139.67 878.763 1124.63 878.63 1109.48 880.03C1105.75 880.37 1101.99 881.137 1098.2 882.33C1064.69 892.85 1033.06 907.51 1001.79 923.33C998.21 925.137 995.307 926.83 993.08 928.41C989.69 930.82 987.2 931.67 983.56 932.87C973.22 936.28 963.52 940.83 952.73 942.87C928.09 947.53 905.85 951.04 881 952.21C847.4 953.8 813.97 945.65 783.04 933C782.353 932.72 781.927 932.94 781.76 933.66C772.54 974.5 762.53 1013.72 744.34 1052.83C737.38 1067.78 731.803 1078.84 727.61 1086H561.92C564.21 1061.61 564.31 1045.3 568.58 1026.32C583.34 960.82 604.8 896.38 638.18 837.43C643.193 828.563 649.077 819.36 655.83 809.82C668.68 791.65 681.71 774.61 696.46 758.59C718.993 734.137 741.31 709.49 763.41 684.65C775.777 670.75 785.47 656.03 792.49 640.49C801.897 619.677 812.217 594.647 823.45 565.4C823.583 565.053 823.833 564.92 824.2 565L831.77 566.77L841.97 570.24C844.497 571.707 846.283 573.607 847.33 575.94L847.46 600.99C847.46 601.224 847.552 601.449 847.717 601.616C847.882 601.782 848.106 601.877 848.34 601.88L857.99 602.01C857.977 602.523 858.23 602.793 858.75 602.82C860.35 602.893 861.933 602.773 863.5 602.46C865.7 603.2 867.87 603.357 870.01 602.93C870.557 603.343 871.187 603.563 871.9 603.59C872.28 603.61 872.473 603.43 872.48 603.05C872.56 593.55 872.03 584.87 877.73 576.3C883.05 568.307 888.597 560.113 894.37 551.72C893.63 554.58 893.563 556.613 894.17 557.82C897.323 564.107 900.43 570.42 903.49 576.76C907.45 584.95 911.26 594.54 901.78 600.05C892.8 605.28 883.04 608.52 874.18 613.62C873.887 613.787 873.73 614.04 873.71 614.38C873.49 618.427 873.183 622.46 872.79 626.48C872.28 631.65 870.94 634.7 865.56 635.33C860.88 635.89 850.44 637.12 847.2 634C845.4 632.28 845.43 628.77 844.91 626.29C844.837 625.937 844.623 625.717 844.27 625.63L831.16 622.25C830.97 622.202 830.77 622.229 830.6 622.324C830.431 622.419 830.305 622.575 830.25 622.76C819.89 655.92 815.78 688.99 815.55 723.69C815.543 724.423 815.883 724.917 816.57 725.17L838.57 733.36L832.03 740.53C829.823 741.95 828.343 743.723 827.59 745.85L823.26 750.19L819.01 755.03L812.95 761.1C811.757 764.073 811.417 767.44 811.93 771.2C811.21 771.92 812.09 772.813 814.57 773.88C814.65 774.867 815.29 775.253 816.49 775.04C817.17 775.86 818.203 776.46 819.59 776.84L833.96 784L840.85 787.16L846.49 790.05C847.25 790.73 848.087 791.037 849 790.97L861.25 796.04C861.69 796.487 862.183 796.74 862.73 796.8L865.94 797.96C866.233 798.547 866.67 798.823 867.25 798.79L871.13 799.73C870.497 799.843 870.623 799.95 871.51 800.05C872.143 800.703 872.96 800.927 873.96 800.72L874.14 801.06C874.933 802.013 876.323 802.4 878.31 802.22C878.883 802.733 879.527 803.013 880.24 803.06C881.047 803.6 881.88 803.84 882.74 803.78L891.28 806.19C891.6 806.863 892.27 807.097 893.29 806.89L907.47 809.99C908.317 810.757 909.41 810.997 910.75 810.71L927.48 813.28C929.433 814.047 931.457 814.233 933.55 813.84C954.85 815.827 976.16 815.87 997.48 813.97L1011.73 812.81L1021.21 811.49C1023.1 812.37 1024.55 812.257 1025.57 811.15L1034.03 810.1L1034.7 809.88C1035.97 810.18 1037.07 810.07 1038.01 809.55L1051.49 807.7C1053.32 808.013 1055.18 807.773 1057.05 806.98C1058.96 807.22 1060.61 807 1062 806.32L1066.24 806.22L1073 805.67C1073.32 805.643 1073.61 805.53 1073.86 805.33L1074.27 805.01C1074.47 805.023 1074.65 804.963 1074.82 804.83C1075.05 804.65 1075.3 804.55 1075.59 804.53C1097.28 803.363 1118.75 805.023 1140 809.51C1140.91 810.177 1142 810.41 1143.25 810.21C1143.32 810.263 1143.4 810.317 1143.48 810.37C1144.34 811.07 1145.26 811.18 1146.23 810.7L1147.21 811.32C1147.56 812.007 1148.41 812.143 1149.74 811.73L1155.5 813.29L1160.97 815.17C1161.64 815.983 1162.41 816.32 1163.28 816.18L1167.08 817.44L1178.55 823.24C1179.02 823.82 1179.73 824.193 1180.69 824.36L1185.66 827.39C1185.94 827.557 1186.19 827.52 1186.41 827.28C1198.92 813.793 1210.94 799.82 1222.45 785.36L1236.97 772.7C1237.02 772.656 1237.06 772.601 1237.09 772.538C1237.11 772.475 1237.12 772.407 1237.12 772.339C1237.11 772.271 1237.09 772.204 1237.05 772.145C1237.02 772.087 1236.97 772.037 1236.91 772C1209.24 755.38 1181.66 738.623 1154.17 721.73C1145.9 716.65 1138.21 711.15 1130.43 705.58C1127.13 703.22 1127.15 690.19 1127.15 687.71C1127.15 687.39 1127.02 687.133 1126.77 686.94C1126.15 686.473 1125.5 686.053 1124.82 685.68C1102.33 673.367 1079.77 661.207 1057.12 649.2C1048.89 644.833 1042.33 638.707 1037.44 630.82C1027.23 614.353 1018.07 597.327 1009.95 579.74C1008.48 576.547 1007.14 572.197 1005.94 566.69C1004.29 559.09 1006.75 549.86 1009.21 542.6C1023.6 543.853 1037.87 545.443 1052.02 547.37C1053.31 547.54 1054.38 548.37 1055.87 548.29C1057.5 549.217 1059.34 549.76 1061.39 549.92L1062.14 550.28C1063.33 551.04 1064.71 551.5 1066.28 551.66C1066.7 552.22 1067.43 552.42 1068.46 552.26C1069.07 552.607 1069.8 552.823 1070.63 552.91C1070.96 552.943 1071.24 553.073 1071.48 553.3L1099.64 580.62C1100.51 581.753 1101.64 582.623 1103.03 583.23C1103.02 583.457 1103.18 583.643 1103.5 583.79C1104.45 585.203 1105.7 586.26 1107.25 586.96L1109.47 588.93L1115.96 593.61L1117.64 594.41C1117.99 594.577 1118.19 594.467 1118.23 594.08L1118.54 591.5L1119.8 587.52L1120.45 585.48C1121.46 583.86 1122.07 582.193 1122.28 580.48C1122.45 580.213 1122.52 579.97 1122.48 579.75C1123.51 578.657 1124.12 577.307 1124.32 575.7L1126.19 571.51C1127.87 568.783 1128.97 566.193 1129.5 563.74C1129.45 563.447 1129.52 563.28 1129.71 563.24C1130.68 562.347 1131.1 561.347 1130.97 560.24L1132.3 557.27L1146.52 527.66C1151.3 518.487 1156.37 509.437 1161.72 500.51C1165.61 494.01 1170.24 488.11 1174.89 482.15C1176.06 480.657 1177.34 479.387 1178.74 478.34C1178.81 478.289 1178.9 478.263 1178.99 478.265C1179.07 478.267 1179.16 478.297 1179.23 478.351C1179.3 478.404 1179.35 478.479 1179.37 478.563C1179.39 478.648 1179.39 478.738 1179.36 478.82L1158.21 530.25C1156.42 531.91 1155.54 534.303 1155.57 537.43L1152.01 547.68C1150.88 548.8 1150.26 550.31 1150.15 552.21L1149.83 553.27L1147.43 559.22L1144.62 570.62C1143.85 572.053 1143.4 573.68 1143.27 575.5C1142.24 576.393 1141.82 577.39 1142.02 578.49C1141.38 581.09 1140.71 583.677 1140.01 586.25C1139.9 586.663 1140.04 587.01 1140.41 587.29C1140.23 587.643 1140.08 587.803 1139.96 587.77C1139.55 588.197 1139.31 588.59 1139.25 588.95L1138.24 595.49L1136.97 608.83C1137.02 608.977 1137.01 609.107 1136.93 609.22C1136.08 610.087 1135.97 611.353 1136.6 613.02C1134.94 618.62 1135.94 630.31 1136.07 640.83C1136.07 641.17 1136.24 641.337 1136.58 641.33C1150.19 641.12 1160.84 642.55 1175.97 639.37C1177.08 639.983 1178.15 639.937 1179.16 639.23C1179.45 639.03 1179.76 638.95 1180.1 638.99C1181.73 639.177 1182.73 638.807 1183.11 637.88C1182.85 637.78 1183.05 637.733 1183.71 637.74C1185.4 637.773 1187.11 637.377 1188.84 636.55C1189.75 636.023 1190.71 635.78 1191.72 635.82C1193.28 636.02 1195.05 635.657 1197.03 634.73C1197.69 634.697 1198.01 634.457 1198 634.01C1202.61 632.81 1205.94 631.7 1208 630.68C1221.69 623.93 1241.86 612.73 1260.92 603.64C1266.06 617.06 1272.72 631.47 1282.2 642.09C1286.39 646.783 1290.93 651.007 1295.83 654.76C1296.32 655.133 1296.75 655.08 1297.14 654.6C1303.38 646.85 1309.21 639.32 1315.81 631.61C1341.29 601.86 1357.03 578.09 1385.64 537.9C1386.91 536.113 1388.26 534.397 1389.69 532.75C1389.7 532.738 1389.71 532.729 1389.72 532.725C1389.73 532.722 1389.75 532.723 1389.76 532.73C1389.77 532.737 1389.78 532.748 1389.78 532.761C1389.79 532.774 1389.79 532.788 1389.78 532.8C1383.06 547.487 1376.97 562.463 1371.52 577.73C1367.75 588.257 1365.99 599.16 1366.22 610.44C1366.23 610.773 1366.37 611.033 1366.65 611.22C1382.19 621.78 1398.04 631.85 1414.21 641.43C1414.51 641.603 1414.77 641.827 1414.98 642.1C1415.25 642.447 1415.61 642.683 1416.05 642.81C1416.81 643.023 1417.3 643.193 1417.51 643.32C1436.42 654.573 1455.67 665.033 1475.26 674.7C1475.51 674.82 1475.79 674.856 1476.05 674.802C1476.32 674.748 1476.56 674.606 1476.74 674.4C1490.69 658.1 1498.5 640.9 1504.19 620.37C1506.67 611.417 1509.24 602.49 1511.91 593.59C1522.06 559.65 1540.7 532.57 1567.2 509.39C1579.22 498.79 1589.49 490.95 1602.15 484.38C1604 484.033 1605.63 483.237 1607.04 481.99C1607.45 482.077 1607.71 481.99 1607.81 481.73L1608.34 481.76C1608.53 481.767 1608.71 481.803 1608.88 481.87C1636.48 492.943 1663.04 506.117 1688.56 521.39C1688.64 521.437 1688.73 521.468 1688.82 521.48C1688.91 521.491 1689 521.485 1689.09 521.459C1689.18 521.434 1689.26 521.391 1689.34 521.333C1689.41 521.274 1689.47 521.202 1689.51 521.12C1708.83 484.04 1727.72 446.707 1746.17 409.12C1757.09 386.873 1767.51 364.393 1777.43 341.68C1787.08 319.6 1797 295.12 1799.99 271.76C1801.55 259.61 1798.66 247.44 1794.34 233.55C1785.23 204.237 1774.68 175.367 1762.71 146.94ZM1699.98 768.94C1701.89 769.027 1702.01 769.533 1700.34 770.46C1692.45 774.84 1684.36 779.67 1676.32 782.93C1668.03 786.297 1659.54 789.06 1650.85 791.22C1649.2 791.63 1647.29 791.44 1645.43 791.89C1643.07 792.47 1641.76 792.78 1641.49 792.82C1618.52 796.08 1595.64 795.3 1572.86 790.48C1572.68 790.442 1572.5 790.452 1572.32 790.509C1572.15 790.565 1572 790.667 1571.87 790.803C1571.75 790.94 1571.67 791.105 1571.64 791.284C1571.6 791.463 1571.61 791.648 1571.67 791.82C1572.1 793.05 1573.82 793.11 1574.92 793.33C1615.63 801.45 1658.54 798.18 1694.69 776.6C1698.67 774.22 1703.58 771.81 1707.63 768.13C1717.99 758.69 1728.12 748.33 1736.33 736.94C1743.03 727.65 1747.11 719.05 1752.2 707.62C1764.72 679.55 1767.88 649.76 1761.64 619.62C1759.74 610.45 1756.19 599.65 1753.22 589.76C1752.95 588.84 1752.54 587.98 1751.99 587.18C1751.72 586.78 1751.41 586.75 1751.07 587.09L1750.54 587.62C1750.42 587.741 1750.33 587.893 1750.28 588.059C1750.24 588.226 1750.24 588.402 1750.28 588.57C1751.49 593.277 1752.85 597.937 1754.36 602.55C1757.1 610.94 1758.57 617.14 1759.52 625C1759.52 625.032 1759.52 625.065 1759.5 625.093C1759.48 625.122 1759.46 625.144 1759.43 625.159C1759.4 625.173 1759.37 625.177 1759.34 625.172C1759.3 625.167 1759.27 625.152 1759.25 625.13C1736.23 600.3 1711.14 580.66 1680.47 562.59C1658.64 549.723 1636.06 538.35 1612.73 528.47C1602.02 523.94 1591.47 519.12 1580.51 515.23C1579.33 514.81 1578.07 514.82 1577.71 516.2C1577.65 516.422 1577.68 516.656 1577.79 516.856C1577.89 517.056 1578.07 517.208 1578.28 517.28C1593.44 522.59 1609.3 529.98 1622.43 535.7C1647.08 546.427 1670.72 559.067 1693.34 573.62C1698.94 577.22 1705.64 582.22 1711.93 586.32C1717.18 589.74 1723.93 595.107 1732.18 602.42C1740.62 609.91 1749.34 618.98 1757.8 627.43C1761.26 630.88 1761.48 633.35 1761.66 638.01C1762.03 648.123 1761.94 656.383 1761.39 662.79C1759.39 686.15 1751.13 705.13 1740.61 725.64C1739.73 727.36 1738.16 728.86 1737.19 730.47C1729.13 743.89 1717.37 755.13 1706.31 766.09C1705.59 766.8 1703.98 767.06 1703 766.92C1684.53 764.227 1666.28 760.443 1648.26 755.57C1647.94 755.483 1647.61 755.467 1647.28 755.52C1646.77 755.593 1646.33 755.467 1645.97 755.14C1645.72 754.92 1645.44 754.77 1645.12 754.69C1622.43 748.683 1603.07 742.267 1587.06 735.44C1566.15 726.52 1539.41 713.877 1506.84 697.51C1499.65 693.903 1492.81 689.773 1486.32 685.12C1486.09 684.953 1485.8 684.879 1485.52 684.912C1485.24 684.946 1484.98 685.084 1484.79 685.3C1484.38 685.773 1484.33 686.317 1484.63 686.93C1484.8 687.277 1485.11 687.61 1485.57 687.93C1492.32 692.61 1499.39 696.723 1506.8 700.27C1509.76 701.69 1512.84 703.65 1516.03 705.11C1540.06 716.07 1563.42 728.72 1587.96 738.53C1621.84 752.07 1656.31 761.56 1691.48 767.89C1694.77 768.483 1697.6 768.833 1699.98 768.94ZM1045.03 612.75C1049.71 615.12 1055.74 616.74 1059.58 620.14C1069.04 628.487 1078.61 636.71 1088.29 644.81C1099.89 654.53 1112.56 661.64 1125.8 668.58C1126.04 668.702 1126.31 668.745 1126.57 668.704C1126.84 668.662 1127.08 668.538 1127.27 668.35L1127.6 668.03C1127.75 667.88 1127.86 667.697 1127.93 667.495C1128 667.294 1128.01 667.079 1127.98 666.869C1127.95 666.66 1127.87 666.46 1127.75 666.286C1127.63 666.113 1127.47 665.97 1127.28 665.87C1114.93 659.22 1102.6 652.57 1091.75 643.61C1081.92 635.497 1072.25 627.19 1062.74 618.69C1057.94 614.41 1052.75 612.49 1046.86 610.58C1046.25 610.387 1045.78 610.33 1045.45 610.41C1044.8 610.577 1044.49 611.093 1044.52 611.96C1044.53 612.124 1044.58 612.283 1044.67 612.422C1044.76 612.561 1044.88 612.674 1045.03 612.75ZM1804.3 625.99C1802.83 624.81 1802.09 625.16 1802.08 627.04C1802.01 636.34 1799.99 648.53 1799.29 655.04C1794.76 697.253 1789.03 739.26 1782.09 781.06C1782.08 781.11 1782.09 781.161 1782.12 781.205C1782.14 781.25 1782.18 781.284 1782.23 781.303C1782.27 781.322 1782.32 781.324 1782.37 781.309C1782.42 781.294 1782.45 781.262 1782.48 781.22C1800.18 754.52 1815.83 727.54 1829.42 698.17C1832.2 692.16 1834.74 686.51 1834.25 679.98C1833.44 669.37 1826.96 658.78 1821.13 650.1C1816.36 643.013 1811.61 635.923 1806.86 628.83C1806.11 627.71 1805.26 626.763 1804.3 625.99ZM1484.78 760.96C1494.96 768.41 1506.24 774.2 1516.44 781.02C1528.17 788.873 1540.31 796.063 1552.85 802.59C1553.14 802.74 1553.47 802.795 1553.79 802.75C1561.03 801.63 1566.38 800.29 1567.25 791.67C1567.26 791.513 1567.23 791.356 1567.15 791.218C1567.08 791.081 1566.96 790.97 1566.82 790.9C1556.61 785.89 1545.2 781.3 1535.88 776.67C1517.01 767.297 1498.1 757.977 1479.15 748.71C1478.81 748.543 1478.72 748.633 1478.87 748.98L1483.3 759.12C1483.63 759.867 1484.12 760.48 1484.78 760.96ZM1399.41 889.59C1408.19 899.04 1417.86 908.58 1426.1 917.56C1439.83 932.52 1453.64 947.38 1467.54 962.14C1468.03 962.653 1468.45 962.603 1468.8 961.99C1474.37 952.38 1488.92 928.27 1485.42 917.22C1479.25 897.77 1465.63 883.05 1452.84 867.8C1452.79 867.74 1452.76 867.665 1452.75 867.587C1452.74 867.508 1452.76 867.429 1452.79 867.359C1452.83 867.29 1452.89 867.233 1452.96 867.198C1453.03 867.162 1453.11 867.149 1453.19 867.16C1471.05 869.57 1488.45 873.16 1506.17 875.54C1525.1 878.08 1543.04 881.313 1560 885.24C1564.92 886.38 1569.89 888.38 1574.91 891.24C1576.81 892.33 1579.45 892.35 1581.57 893.43C1606.38 905.963 1630.2 920.017 1653.02 935.59C1653.1 935.645 1653.2 935.676 1653.29 935.679C1653.39 935.682 1653.49 935.658 1653.57 935.609C1653.66 935.56 1653.73 935.488 1653.77 935.402C1653.82 935.315 1653.84 935.217 1653.83 935.12C1653.06 926.48 1652.08 918.027 1650.89 909.76C1650.52 907.12 1649.79 904.54 1648.71 902.02C1645.75 895.1 1642.75 888.197 1639.71 881.31C1639.57 880.997 1639.66 880.777 1639.99 880.65C1660.76 872.63 1681.51 861.74 1698.82 847.61C1706.54 841.31 1712.18 832.82 1717.69 824.47C1717.73 824.414 1717.75 824.345 1717.75 824.276C1717.75 824.206 1717.72 824.139 1717.68 824.086C1717.63 824.033 1717.57 823.996 1717.5 823.983C1717.43 823.969 1717.36 823.978 1717.3 824.01C1683.39 839.51 1645.72 849.57 1609.21 856.82C1592.04 860.23 1578.43 859.06 1560.82 855.64C1557.14 854.927 1554.3 853.957 1552.29 852.73C1537.05 843.403 1521.87 833.973 1506.76 824.44C1500.34 820.387 1494.35 816.02 1488.79 811.34C1488.57 811.156 1488.31 811.029 1488.03 810.971C1487.75 810.914 1487.46 810.927 1487.19 811.01C1464 817.88 1440.34 824.11 1418.08 832.61C1403.99 837.99 1384.61 844.85 1368.17 852.75C1367.96 852.849 1367.78 852.994 1367.64 853.173C1367.49 853.352 1367.39 853.56 1367.34 853.784C1367.29 854.007 1367.28 854.239 1367.33 854.464C1367.38 854.688 1367.48 854.898 1367.62 855.08C1368.69 856.473 1369.84 857.837 1371.09 859.17C1380.54 869.297 1389.98 879.437 1399.41 889.59Z" fill="#211F22"/>
<path d="M1767.48 148.39C1821.67 166.96 1871.07 194.52 1909.58 237.09C1909.15 237.643 1908.87 238.11 1908.73 238.49C1887.16 298.4 1858.88 356.88 1828.57 412.82C1813.56 440.51 1790.57 474.44 1770.75 504.4C1768.12 508.38 1764.39 513.22 1761.32 517.74C1761.23 517.876 1761.18 518.033 1761.16 518.195C1761.15 518.356 1761.19 518.517 1761.26 518.66C1769.61 534.907 1777.06 551.523 1783.63 568.51C1788.22 580.37 1790.8 592.97 1793.57 605.48C1793.6 605.631 1793.59 605.788 1793.54 605.932C1793.48 606.076 1793.38 606.2 1793.26 606.289C1793.13 606.378 1792.98 606.428 1792.82 606.431C1792.67 606.435 1792.51 606.393 1792.38 606.31C1788.56 603.863 1784.66 601.437 1780.68 599.03C1769.98 592.56 1759.74 585.4 1749.11 578.84C1747.89 578.087 1746.91 577.097 1746.18 575.87C1740.43 566.22 1734.5 554.2 1725.41 547.27C1714.72 539.123 1703.77 531.36 1692.56 523.98C1692.29 523.8 1692.23 523.567 1692.38 523.28C1701.64 505.62 1707.94 493.45 1711.29 486.77C1740.42 428.64 1760.06 389.81 1783 338C1789.89 322.45 1797.59 301.83 1801.88 283.08C1806.62 262.39 1801.92 243.82 1795.49 224.25C1787.17 198.91 1777.83 173.623 1767.48 148.39Z" fill="#53291E"/>
<path d="M500.22 207.02L510.46 246.5C510.01 246.49 509.61 246.58 509.19 246.39C497.224 240.99 472 230.491 472 230.491V194.626C472 194.626 488.871 201.752 497.31 205.32C498.35 205.76 499.18 206.42 500.22 207.02Z" fill="#53291E"/>
<path d="M1388.75 169.46L1390.48 169.53C1390.84 169.543 1390.85 169.603 1390.5 169.71L1375.38 174.28C1375.11 174.361 1374.87 174.502 1374.66 174.693C1374.46 174.884 1374.3 175.119 1374.2 175.38C1372.64 179.553 1371.35 183.85 1370.33 188.27C1369.36 192.457 1367.6 197.803 1365.03 204.31L1373.57 174.54C1373.66 174.193 1373.88 173.967 1374.23 173.86L1388.75 169.46Z" fill="#B0462E"/>
<path d="M1216.85 197.92C1215.25 199 1213.87 199.58 1212.71 199.66C1212.64 199.887 1212.46 199.833 1212.19 199.5C1213.49 198.453 1215.04 197.927 1216.85 197.92Z" fill="#EC5634"/>
<path d="M1216.85 197.92C1217.8 200.62 1217.6 203.333 1216.27 206.06C1211.13 216.52 1204.13 225.59 1196.13 234.02C1195.94 234.227 1195.98 234.373 1196.25 234.46L1199.89 235.55C1202.24 236.763 1204.81 237.49 1207.6 237.73L1214.71 241.3C1215.55 242.28 1216.56 242.85 1217.75 243.01L1220.24 244.72C1220.94 245.647 1221.85 246.327 1222.97 246.76C1223.56 247.673 1224.3 248.177 1225.19 248.27L1229.12 250.54C1232.93 253.073 1236.93 255.443 1241.11 257.65C1242.6 258.44 1244.55 258.7 1246.08 260.42C1245.63 260.1 1245.19 259.937 1244.76 259.93C1244.74 259.929 1244.73 259.933 1244.72 259.942C1244.7 259.951 1244.69 259.964 1244.69 259.979C1244.68 259.994 1244.68 260.01 1244.69 260.025C1244.7 260.04 1244.71 260.052 1244.72 260.06C1246.22 261.18 1247.81 261.897 1249.5 262.21L1258.67 266.39C1259.59 267.143 1260.62 267.5 1261.75 267.46L1262.91 268.27C1263.74 269.183 1264.79 269.583 1266.08 269.47C1266.02 269.523 1265.96 269.577 1265.9 269.63C1269.17 271.803 1272.62 273.493 1276.23 274.7C1276.35 275.127 1276.92 275.323 1277.94 275.29C1278.72 276.297 1279.86 276.86 1281.37 276.98C1283.41 278.32 1285.87 279.127 1288.75 279.4C1289.07 280.267 1289.91 280.527 1291.27 280.18C1291.89 280.147 1292.39 280.28 1292.76 280.58C1293.43 281.2 1294.42 281.213 1295.74 280.62L1297.48 281.33C1297.69 281.45 1297.78 281.577 1297.73 281.71C1302.38 282.043 1307.05 282.153 1311.75 282.04C1312.62 282.02 1313.31 281.75 1313.81 281.23L1315.22 280.9C1317.01 281.213 1318.6 281.107 1320.01 280.58L1324.2 279.48C1327.55 279.27 1331.51 278.65 1330.61 274.46C1334.27 262.687 1338.42 251.067 1343.06 239.6C1347.54 228.51 1358.65 221.2 1363.38 210.21C1364.55 210.263 1364.93 211.203 1364.52 213.03C1363.28 218.6 1361.8 224.04 1361.39 229.75C1359.33 258.53 1357.14 288.13 1359.61 316.93C1360.09 322.6 1361.62 328.32 1362.69 334.01C1362.8 334.617 1363.05 334.67 1363.42 334.17C1368.39 327.54 1372.48 322.44 1378.83 317.22C1416.67 286.09 1459.41 277.02 1507.76 269.3C1526.48 266.31 1549.34 257.95 1564.42 246.42C1578.32 235.8 1588.93 227.33 1597.2 214.45C1597.72 213.637 1598.23 213.023 1598.72 212.61C1598.95 212.416 1599.24 212.293 1599.54 212.256C1599.84 212.219 1600.15 212.271 1600.42 212.404C1600.7 212.537 1600.92 212.746 1601.08 213.006C1601.24 213.266 1601.32 213.566 1601.31 213.87C1600.3 250.23 1595.33 286.26 1591.11 322.32C1590.98 323.387 1590.95 324.45 1591.02 325.51C1591.04 325.857 1591.21 325.957 1591.52 325.81C1604.84 319.47 1620.97 313.01 1636.27 310.28C1645.53 308.62 1657.08 309.35 1667.28 309.01C1668.49 308.97 1668.61 309.323 1667.66 310.07C1640.28 331.45 1615.15 356.76 1591.86 382.48C1579.77 395.82 1568.97 410.88 1558.08 425.32C1557.41 426.213 1556.72 426.68 1556.01 426.72C1485.83 418.02 1420.62 403.59 1353.28 390.68L1352.49 365.65C1352.47 365.023 1352.16 364.783 1351.55 364.93C1336.08 368.63 1321.24 369.03 1305.4 365.75C1288.07 362.15 1272.46 356.217 1258.56 347.95C1249.27 342.43 1243.31 338.98 1240.66 337.6C1225.2 329.57 1207.34 329 1191.06 329.26C1190.77 329.267 1190.62 329.123 1190.61 328.83L1190.21 306.04C1190.19 304.92 1189.8 304.77 1189.03 305.59C1179.93 315.4 1170.95 325.6 1162.21 336.05C1150.79 349.703 1137.61 361.437 1122.68 371.25C1102.46 384.54 1082.03 397.08 1064.23 414.06L993.75 436.49C976.817 441.243 960.857 446.74 945.87 452.98L924.18 462.44C923.763 462.623 923.4 462.912 923.129 463.278C922.857 463.645 922.685 464.076 922.63 464.53L920.24 484.01C916.19 501.43 905.36 515.88 891.99 527.56L886.81 510.56C887.077 509.173 886.83 507.893 886.07 506.72L883.59 499.74C883.51 499.527 883.377 499.36 883.19 499.24L882.8 498.99L882.07 496.3C883.5 495.18 882.58 493.97 883.37 492.73C885.09 490 886.2 486.04 887.26 483.06C887.309 482.939 887.312 482.804 887.27 482.68C887.227 482.557 887.14 482.453 887.027 482.388C886.913 482.323 886.78 482.302 886.652 482.328C886.524 482.354 886.409 482.426 886.33 482.53C884.043 485.27 881.447 486.68 878.54 486.76L877.02 486.65C875.56 486.217 874.04 486.117 872.46 486.35L870.79 485.67C869.737 485.13 868.8 485.08 867.98 485.52C864.533 484.7 861.367 483.197 858.48 481.01C857.873 480.097 856.893 479.413 855.54 478.96L849.35 474.67C839.517 467.103 831.673 457.913 825.82 447.1C839.687 431.52 854.2 416.43 869.36 401.83C872.18 406.34 874.09 411.28 876.9 415.21C881.147 421.15 885.757 426.813 890.73 432.2C891.077 432.58 891.207 432.517 891.12 432.01L888.41 415.79C888.05 413.163 887.67 410.567 887.27 408C887.23 407.74 887.027 407.673 886.66 407.8C887.027 405.727 886.73 403.963 885.77 402.51C885.99 401.31 885.857 400.293 885.37 399.46L885.19 398.6C885.063 395.96 884.513 393.593 883.54 391.5L883 388.71C882.387 387.27 881.913 385.517 881.58 383.45C879.46 370.4 875.76 358.52 874.5 349C872.367 332.967 871.833 316.883 872.9 300.75C873.07 298.24 873.37 296.5 875.2 294.56C886.893 282.173 898.757 269.903 910.79 257.75L909.01 270.68C906.697 286.48 906.593 303.11 908.7 320.57C910.12 332.343 912.18 343.627 914.88 354.42C914.96 354.733 914.96 355.047 914.88 355.36C914.407 357.153 914.507 359.02 915.18 360.96C914.653 362.793 914.927 363.873 916 364.2C916.56 365.133 916.683 366.127 916.37 367.18C916.292 367.425 916.307 367.695 916.41 367.94L917.09 369.51C916.723 371.483 916.94 372.977 917.74 373.99C917.547 375.677 917.73 376.683 918.29 377.01C920.843 393.663 922.61 411.123 923.59 429.39C923.592 429.414 923.6 429.436 923.615 429.455C923.63 429.473 923.649 429.487 923.672 429.495C923.694 429.502 923.718 429.503 923.741 429.497C923.764 429.491 923.784 429.478 923.8 429.46C924.793 428.307 926.03 427.5 927.51 427.04L934.28 423.8C934.493 423.58 934.727 423.47 934.98 423.47L940.7 420.42C965.85 405.71 990.33 389.94 1015.48 375.21C1020.01 372.557 1024.41 369.707 1028.68 366.66C1046.69 353.827 1064.27 340.447 1081.44 326.52C1088.18 321.053 1093.09 316.553 1096.16 313.02C1106.24 301.44 1111.9 287.91 1117.03 273.29C1117.13 272.997 1117.03 272.89 1116.73 272.97C1107.84 275.29 1098.96 277.58 1090.08 279.84C1088.01 280.373 1086.08 279.957 1084.3 278.59C1084.02 278.377 1084.01 278.153 1084.27 277.92C1094.35 268.97 1104.24 260.38 1115.54 252.63C1131.13 241.95 1146.74 231.07 1163.16 221.73C1165.73 221.263 1167.95 220.107 1169.81 218.26L1179.78 213.34C1182.56 212.707 1185.17 211.497 1187.62 209.71C1187.66 209.263 1187.89 209.137 1188.3 209.33C1190.37 209.09 1192.43 208.317 1194.48 207.01L1203.5 203.54C1204.37 203.36 1204.79 203.013 1204.75 202.5L1205.18 202.51C1207.79 202.17 1210.3 201.22 1212.71 199.66C1213.87 199.58 1215.25 199 1216.85 197.92Z" fill="#211F22"/>
<path d="M1212.19 199.5C1212.46 199.833 1212.64 199.887 1212.71 199.66C1210.3 201.22 1207.79 202.17 1205.18 202.51L1212.19 199.5Z" fill="#B0462E"/>
<path d="M1204.75 202.5C1204.79 203.013 1204.37 203.36 1203.5 203.54L1201.74 203.75C1202.71 202.97 1203.71 202.553 1204.75 202.5Z" fill="#B0462E"/>
<path d="M1203.5 203.54L1194.48 207.01C1194.25 207.043 1194 206.93 1193.73 206.67L1201.74 203.75L1203.5 203.54Z" fill="#EC5634"/>
<path d="M528.83 218.78L551.22 253.46C548.927 256.347 546.117 259.063 542.79 261.61L510.46 246.5L500.22 207.02C500.253 206.767 500.397 206.613 500.65 206.56C500.803 206.527 500.99 206.56 501.21 206.66C509.677 210.36 518.18 213.977 526.72 217.51C526.92 217.59 527.313 217.67 527.9 217.75C528.513 217.83 528.823 218.173 528.83 218.78Z" fill="#B34320"/>
<path d="M1193.73 206.67C1194 206.93 1194.25 207.043 1194.48 207.01C1192.43 208.317 1190.37 209.09 1188.3 209.33L1193.73 206.67Z" fill="#B0462E"/>
<path d="M1187.62 209.71C1185.17 211.497 1182.56 212.707 1179.78 213.34L1187.62 209.71Z" fill="#B0462E"/>
<path d="M1169.81 218.26C1167.95 220.107 1165.73 221.263 1163.16 221.73L1169.81 218.26Z" fill="#B0462E"/>
<path d="M567.3 236.9L551.22 253.46L528.83 218.78C537.61 222.16 548.41 226.667 561.23 232.3C563.943 233.493 565.967 235.027 567.3 236.9Z" fill="#53291E"/>
<path d="M472 240L472 235L496.55 268.21L505.44 279.75C507.653 283.723 509.983 287.043 512.43 289.71C512.638 289.939 512.761 290.232 512.778 290.538C512.794 290.845 512.703 291.146 512.52 291.39L507.48 298.25C507.324 298.465 507.045 298.698 506.68 298.92C506.367 299.113 506.003 299.043 505.59 298.71C505.363 298.525 505.215 298.261 505.176 297.972C505.137 297.682 505.21 297.388 505.38 297.15L509.68 291.18C509.761 291.067 509.803 290.932 509.801 290.793C509.799 290.655 509.754 290.521 509.67 290.41L501.27 279.2L490.74 265.11L472 240Z" fill="#211F22"/>
<path d="M1199.89 235.55C1202.5 235.757 1205.07 236.483 1207.6 237.73C1204.81 237.49 1202.24 236.763 1199.89 235.55Z" fill="#EC5634"/>
<path d="M567.3 236.9L618.37 320.61C618.489 320.809 618.537 321.043 618.506 321.272C618.475 321.501 618.367 321.712 618.2 321.87L597.62 341.22C597.524 341.309 597.409 341.374 597.284 341.409C597.158 341.444 597.027 341.448 596.9 341.42C596.553 341.34 596.253 341.187 596 340.96L568.42 300.72L542.79 261.61C546.117 259.063 548.927 256.347 551.22 253.46L567.3 236.9Z" fill="#1B191D"/>
<path d="M1214.71 241.3C1215.96 241.467 1216.98 242.037 1217.75 243.01C1216.56 242.85 1215.55 242.28 1214.71 241.3Z" fill="#EC5634"/>
<path d="M994 279.19L963.91 307.82C963.157 297.74 960.113 288.573 954.78 280.32C949.06 271.47 942.64 266.63 932.02 267.84C924.54 268.693 916.87 269.64 909.01 270.68L910.79 257.75C917.05 251.31 924.787 246.997 934 244.81C958.76 238.94 976.01 251.56 988.43 271.65C990.063 274.29 991.92 276.803 994 279.19Z" fill="#B34320"/>
<path d="M1220.24 244.72C1221.36 244.947 1222.3 245.553 1223.05 246.54C1223.02 246.613 1223 246.687 1222.97 246.76C1221.85 246.327 1220.94 245.647 1220.24 244.72Z" fill="#EC5634"/>
<path d="M1223.05 246.54C1224.24 246.893 1224.98 247.377 1225.29 247.99C1225.26 248.083 1225.22 248.177 1225.19 248.27C1224.3 248.177 1223.56 247.673 1222.97 246.76C1223 246.687 1223.02 246.613 1223.05 246.54Z" fill="#B0462E"/>
<path d="M1225.29 247.99C1227.1 248.603 1228.37 249.453 1229.12 250.54L1225.19 248.27C1225.22 248.177 1225.26 248.083 1225.29 247.99Z" fill="#EC5634"/>
<path d="M1246.08 260.42C1247.51 260.74 1248.65 261.337 1249.5 262.21C1247.81 261.897 1246.22 261.18 1244.72 260.06C1244.71 260.052 1244.7 260.04 1244.69 260.025C1244.68 260.01 1244.68 259.994 1244.69 259.979C1244.69 259.964 1244.7 259.951 1244.72 259.942C1244.73 259.933 1244.74 259.929 1244.76 259.93C1245.19 259.937 1245.63 260.1 1246.08 260.42Z" fill="#6F3527"/>
<path d="M490.74 265.11L501.27 279.2C499.343 281.58 497.233 284.577 494.94 288.19C493.92 289.79 493.187 291.41 492.74 293.05L479.02 260.37L490.74 265.11Z" fill="#B34320"/>
<path d="M1258.67 266.39C1259.82 266.17 1260.84 266.527 1261.75 267.46C1260.62 267.5 1259.59 267.143 1258.67 266.39Z" fill="#EC5634"/>
<path d="M1262.91 268.27C1264.14 268.343 1265.19 268.743 1266.08 269.47C1264.79 269.583 1263.74 269.183 1262.91 268.27Z" fill="#B0462E"/>
<path d="M568.42 300.72L596 340.96C595.853 341.1 595.69 341.19 595.51 341.23C595.37 341.263 595.2 341.23 595 341.13C591.273 339.21 587.507 337.367 583.7 335.6C561.747 325.387 539.8 315.16 517.86 304.92C517.593 304.793 517.53 304.603 517.67 304.35L525.76 289.77C525.927 289.463 525.853 289.237 525.54 289.09L505.44 279.75L496.55 268.21L568.42 300.72Z" fill="#B34320"/>
<path d="M1265.9 269.63C1269.71 270.857 1273.16 272.547 1276.23 274.7C1272.62 273.493 1269.17 271.803 1265.9 269.63Z" fill="#EC5634"/>
<path d="M1330.61 274.46C1331.51 278.65 1327.55 279.27 1324.2 279.48L1329.13 277.78C1329.47 277.66 1329.69 277.43 1329.79 277.09L1330.61 274.46Z" fill="#B0462E"/>
<path d="M1277.94 275.29C1279.5 275.55 1280.64 276.113 1281.37 276.98C1279.86 276.86 1278.72 276.297 1277.94 275.29Z" fill="#EC5634"/>
<path d="M1288.75 279.4C1289.72 279.407 1290.56 279.667 1291.27 280.18C1289.91 280.527 1289.07 280.267 1288.75 279.4Z" fill="#EC5634"/>
<path d="M1295.74 280.62C1294.42 281.213 1293.43 281.2 1292.76 280.58C1293.77 280.273 1294.76 280.287 1295.74 280.62Z" fill="#EC5634"/>
<path d="M1320.01 280.58C1318.6 281.107 1317.01 281.213 1315.22 280.9L1320.01 280.58Z" fill="#EC5634"/>
<path d="M1297.48 281.33L1303.62 281.54L1297.73 281.71C1297.78 281.577 1297.69 281.45 1297.48 281.33Z" fill="#EC5634"/>
<path d="M1313.81 281.23C1313.31 281.75 1312.62 282.02 1311.75 282.04C1307.05 282.153 1302.38 282.043 1297.73 281.71L1303.62 281.54L1313.81 281.23Z" fill="#6F3527"/>
<path d="M1353.28 390.68C1327.28 386.26 1301.01 381.51 1275.58 374.7C1249.11 367.62 1224 360.5 1199.2 351.73C1197.65 351.19 1195.86 350.01 1194.12 349.36C1193.8 349.24 1193.5 349.273 1193.21 349.46C1183.6 355.76 1169.45 364.517 1150.76 375.73C1122.93 392.43 1094.08 405.207 1064.23 414.06C1082.03 397.08 1102.46 384.54 1122.68 371.25C1137.61 361.437 1150.79 349.703 1162.21 336.05C1170.95 325.6 1179.93 315.4 1189.03 305.59C1189.8 304.77 1190.19 304.92 1190.21 306.04L1190.61 328.83C1190.62 329.123 1190.77 329.267 1191.06 329.26C1207.34 329 1225.2 329.57 1240.66 337.6C1243.31 338.98 1249.27 342.43 1258.56 347.95C1272.46 356.217 1288.07 362.15 1305.4 365.75C1321.24 369.03 1336.08 368.63 1351.55 364.93C1352.16 364.783 1352.47 365.023 1352.49 365.65L1353.28 390.68Z" fill="#53291E"/>
<path d="M915.28 358.73L916 364.2C914.927 363.873 914.653 362.793 915.18 360.96L915.28 358.73Z" fill="#B0462E"/>
<path d="M917.09 369.51C917.737 370.777 917.953 372.27 917.74 373.99C916.94 372.977 916.723 371.483 917.09 369.51Z" fill="#EC5634"/>
<path d="M917.74 373.99C918.213 374.697 918.397 375.703 918.29 377.01C917.73 376.683 917.547 375.677 917.74 373.99Z" fill="#EC5634"/>
<path d="M398.97 390.86C399.717 391.14 400.123 391.54 400.19 392.06C402.55 410.653 405.46 429.133 408.92 447.5C414.01 471.99 424.26 494.23 431.16 512.57C438.21 531.33 442.38 549.69 447.48 573.15C450.893 590.057 453.503 607.13 455.31 624.37C455.343 624.697 455.513 624.91 455.82 625.01C473.26 630.68 491.37 634.11 510.18 639.35C538.49 647.24 566.73 655.62 595.16 663.08C632.993 673.007 670.863 682.803 708.77 692.47C709.083 692.637 709.3 692.79 709.42 692.93C709.547 693.083 709.5 693.283 709.28 693.53C692.927 711.917 679.773 727.847 669.82 741.32C653.35 763.64 637.35 785.57 622.86 809.84C600.34 847.54 580.67 883.81 563.26 923.01C563.047 923.49 562.723 923.737 562.29 923.75L553.47 916.79C552.83 915.317 551.68 914.303 550.02 913.75C534.62 900.303 520.607 885.553 507.98 869.5C508.047 868.747 507.637 868 506.75 867.26C506.597 866.987 506.37 866.787 506.07 866.66C505.763 866.533 505.543 866.313 505.41 866C504.663 864.253 503.527 862.733 502 861.44C502.073 860.7 501.89 860.227 501.45 860.02L497.82 854.42C497.8 854.1 497.613 853.957 497.26 853.99C497.333 853.083 496.913 852.343 496 851.77L488.87 839.06C489.17 838.247 488.87 837.577 487.97 837.05L487.26 835.78C487.227 834.04 486.56 832.517 485.26 831.21L483.98 828.52C483.867 826.88 483.22 825.373 482.04 824L481.49 822.57L479.89 818.13C479.883 818.115 479.871 818.103 479.856 818.095C479.841 818.087 479.824 818.084 479.808 818.086C479.791 818.089 479.776 818.096 479.764 818.107C479.752 818.119 479.743 818.134 479.74 818.15C479.727 818.263 479.723 818.377 479.73 818.49C479.563 818.477 479.473 818.397 479.46 818.25C479.553 816.597 478.957 814.883 477.67 813.11C476.477 811.17 475.573 808.55 474.96 805.25C475.02 804.617 474.813 804.1 474.34 803.7L472.3 797.68L470.95 794.81C470.857 792.577 470.303 791.21 469.29 790.71C464.037 775.79 456.003 761.99 445.19 749.31C433.523 735.643 421.943 723.56 410.45 713.06C409.723 711.533 408.573 710.443 407 709.79L398.46 702.29C392.74 698.81 396.62 696.23 395.94 691.98C396.327 691.007 396.393 689.92 396.14 688.72L396.36 688.07L396.84 682.2L398.1 672.3C399.08 666.973 399.31 661.623 398.79 656.25L398.6 652.29C398.907 648.277 398.613 644.42 397.72 640.72L397.48 639.34C397.44 639.087 397.29 638.96 397.03 638.96L396.33 638.95L388.9 641.74C388.373 641.853 388.277 641.94 388.61 642L385.3 642.88L379.79 644.54L372.01 646.47C370.357 646.263 369.027 646.787 368.02 648.04C367.747 647.92 367.57 647.977 367.49 648.21C367.117 648.19 366.787 648.3 366.5 648.54C363.1 649.567 359.773 650.793 356.52 652.22C354.34 653.173 353.123 653.15 352.87 652.15L353.14 649.82C353.507 649.687 353.7 649.497 353.72 649.25C354.367 641.33 354.977 633.42 355.55 625.52L355.9 618.21L356.1 617.28C357.23 613.5 357.06 609.02 357.51 605.83C358.103 601.603 358.413 598.657 358.44 596.99C358.52 592.35 359.76 589.49 358.97 584.75L359.28 582.41C359.853 580.517 359.963 578.527 359.61 576.44L360.06 574.75C360.573 573.79 360.86 572.873 360.92 572C361.253 567.367 361.473 562.733 361.58 558.1C361.58 557.973 361.6 557.97 361.64 558.09L361.76 558.43C361.893 558.83 361.96 558.82 361.96 558.4V553.98C362.293 553 362.37 551.927 362.19 550.76L362.31 549.87C363.097 547.41 363.27 544.833 362.83 542.14L363.35 538.28L365.28 515.04L365.95 504.22L366.22 503.04C367.113 500.913 367.303 498.62 366.79 496.16C366.903 496.36 367.007 496.227 367.1 495.76C367.84 493.26 367.937 490.67 367.39 487.99C368.06 480.98 368.56 473.91 369.14 466.9C371.61 437.01 375.88 407.89 378.56 381.03C378.593 380.703 378.767 380.577 379.08 380.65C386.553 382.377 393.183 385.78 398.97 390.86Z" fill="#FFFBFA"/>
<path d="M883 388.71L883.54 391.5C883.67 393.46 884.47 395.37 884.46 397.24C884.447 398.213 884.69 398.667 885.19 398.6L885.37 399.46C885.03 400.833 885.163 401.85 885.77 402.51L886.66 407.8L887.51 412.56C887.517 412.613 887.517 412.67 887.51 412.73C887.383 413.937 887.683 414.957 888.41 415.79L891.12 432.01C891.207 432.517 891.077 432.58 890.73 432.2C885.757 426.813 881.147 421.15 876.9 415.21C874.09 411.28 872.18 406.34 869.36 401.83L883 388.71Z" fill="#FFFBFA"/>
<path d="M883.54 391.5C884.513 393.593 885.063 395.96 885.19 398.6C884.69 398.667 884.447 398.213 884.46 397.24C884.47 395.37 883.67 393.46 883.54 391.5Z" fill="#EC5634"/>
<path d="M885.37 399.46C885.857 400.293 885.99 401.31 885.77 402.51C885.163 401.85 885.03 400.833 885.37 399.46Z" fill="#EC5634"/>
<path d="M885.77 402.51C886.73 403.963 887.027 405.727 886.66 407.8L885.77 402.51Z" fill="#B0462E"/>
<path d="M886.66 407.8C887.027 407.673 887.23 407.74 887.27 408C887.67 410.567 888.05 413.163 888.41 415.79C887.683 414.957 887.383 413.937 887.51 412.73C887.517 412.67 887.517 412.613 887.51 412.56L886.66 407.8Z" fill="#EC5634"/>
<path d="M940.7 420.42L934.98 423.47C935.16 423.09 935.417 422.773 935.75 422.52L940.7 420.42Z" fill="#B0462E"/>
<path d="M935.75 422.52C935.417 422.773 935.16 423.09 934.98 423.47C934.727 423.47 934.493 423.58 934.28 423.8L933.76 423.51C934.107 422.83 934.77 422.5 935.75 422.52Z" fill="#EC5634"/>
<path d="M933.76 423.51L934.28 423.8L927.51 427.04L933.76 423.51Z" fill="#6F3527"/>
<path d="M993.75 436.49C985.31 455.79 975.41 472.03 959.85 486.85C941.37 504.463 921.833 520.817 901.24 535.91C899.64 537.08 897.18 538.53 895.27 540.34C895.03 535.68 893.937 531.42 891.99 527.56C905.36 515.88 916.19 501.43 920.24 484.01C930.88 477.35 939.88 463.62 945.87 452.98C960.857 446.74 976.817 441.243 993.75 436.49Z" fill="#B34320"/>
<path d="M1448.98 465.73C1435.71 473.663 1423.96 483.453 1413.71 495.1C1413.54 495.293 1413.58 495.383 1413.84 495.37C1428.33 494.61 1442.82 494.46 1457.32 494.92C1470.4 495.33 1484.45 495.4 1496.53 496.54C1520.59 498.81 1543.68 504.24 1567.2 509.39C1540.7 532.57 1522.06 559.65 1511.91 593.59C1509.24 602.49 1506.67 611.417 1504.19 620.37C1498.5 640.9 1490.69 658.1 1476.74 674.4C1476.56 674.606 1476.32 674.748 1476.05 674.802C1475.79 674.856 1475.51 674.821 1475.26 674.7C1455.67 665.033 1436.42 654.573 1417.51 643.32C1417.3 643.193 1416.81 643.023 1416.05 642.81C1415.61 642.683 1415.25 642.447 1414.98 642.1C1414.77 641.827 1414.51 641.603 1414.21 641.43C1398.04 631.85 1382.19 621.78 1366.65 611.22C1366.37 611.033 1366.23 610.773 1366.22 610.44C1365.99 599.16 1367.75 588.257 1371.52 577.73C1376.97 562.463 1383.06 547.487 1389.78 532.8C1389.79 532.788 1389.79 532.774 1389.78 532.761C1389.78 532.748 1389.77 532.737 1389.76 532.73C1389.75 532.723 1389.73 532.722 1389.72 532.726C1389.71 532.729 1389.7 532.738 1389.69 532.75C1388.26 534.397 1386.91 536.113 1385.64 537.9C1357.03 578.09 1341.29 601.86 1315.81 631.61C1309.21 639.32 1303.38 646.85 1297.14 654.6C1296.75 655.08 1296.32 655.133 1295.83 654.76C1290.93 651.007 1286.39 646.783 1282.2 642.09C1272.72 631.47 1266.06 617.06 1260.92 603.64C1255.72 580.46 1259.84 559.71 1266.23 537.37C1267.52 534.943 1268.86 531.39 1270.26 526.71C1271.99 520.93 1275.6 512.02 1281.09 499.98C1285.84 490.66 1291.81 482.073 1298.98 474.22C1303.93 468.067 1309.25 462.29 1314.96 456.89C1327.87 444.65 1348.08 438.33 1365.77 440.3C1373.83 441.2 1381.75 442.773 1389.54 445.02C1409.68 450.827 1429.71 457 1449.62 463.54C1449.95 463.647 1450.11 463.873 1450.1 464.22C1450.09 464.7 1449.72 465.203 1448.98 465.73Z" fill="#53291E"/>
<path d="M825.82 447.1C831.673 457.913 839.517 467.103 849.35 474.67C850.91 476.47 852.96 477.987 855.5 479.22C856.313 480.147 857.307 480.743 858.48 481.01C861.367 483.197 864.533 484.7 867.98 485.52C868.76 485.827 869.697 485.877 870.79 485.67L872.46 486.35C873.86 486.83 875.38 486.93 877.02 486.65L878.54 486.76C880.127 489.627 881.303 492.807 882.07 496.3L882.8 498.99L885.83 507.57L886.81 510.56L891.99 527.56C893.937 531.42 895.03 535.68 895.27 540.34C896.05 545.227 895.75 549.02 894.37 551.72C888.597 560.113 883.05 568.307 877.73 576.3C872.03 584.87 872.56 593.55 872.48 603.05C872.473 603.43 872.28 603.61 871.9 603.59C871.187 603.563 870.557 603.343 870.01 602.93L863.49 602.27L861.99 602.19C862.21 602.057 862.5 601.98 862.86 601.96C862.887 601.96 862.912 601.95 862.931 601.931C862.95 601.912 862.96 601.887 862.96 601.86C862.96 601.834 862.95 601.808 862.931 601.789C862.912 601.771 862.887 601.76 862.86 601.76L857.98 601.72L848.56 601.03C848.2 601.003 848.02 600.81 848.02 600.45L847.95 575.99C846.743 573.063 844.75 571.147 841.97 570.24L831.77 566.77C828.42 565.44 825.16 564.77 821.5 563.5C818.59 562.49 815.52 562.33 812.83 561.33C809.05 559.923 805.247 558.563 801.42 557.25C801.225 557.182 801.011 557.193 800.824 557.281C800.637 557.369 800.492 557.527 800.42 557.72C799.473 560.227 798.607 562.827 797.82 565.52C793.713 579.647 788.633 593.427 782.58 606.86C772.53 603.56 763.85 599.18 765.31 587.25C765.91 582.383 767.113 577.66 768.92 573.08C777.213 552.133 785.44 531.16 793.6 510.16C799.42 495.19 804.92 480.29 811.66 465.68C814.7 459.08 821.07 452.65 825.82 447.1Z" fill="#FFFBFA"/>
<path d="M1533.74 459C1549.9 462.92 1565.24 467.243 1579.75 471.97C1581.37 473.07 1583.12 473.573 1585 473.48L1590.5 475.72C1592.35 476.627 1594.1 477.123 1595.75 477.21C1598.76 479.07 1602.1 480.31 1605.78 480.93C1606.66 480.883 1607.34 481.15 1607.81 481.73C1607.71 481.99 1607.45 482.077 1607.04 481.99C1605.24 482.163 1603.61 482.96 1602.15 484.38C1589.49 490.95 1579.22 498.79 1567.2 509.39C1543.68 504.24 1520.59 498.81 1496.53 496.54C1484.45 495.4 1470.4 495.33 1457.32 494.92C1442.82 494.46 1428.33 494.61 1413.84 495.37C1413.58 495.383 1413.54 495.293 1413.71 495.1C1423.96 483.453 1435.71 473.663 1448.98 465.73C1451.51 464.877 1453.4 463.49 1454.67 461.57C1454.86 461.29 1455.11 461.1 1455.43 461C1460.18 459.52 1464.96 456.94 1469.11 455.66C1476.57 453.36 1484.43 451.38 1492.37 452.29C1506.79 453.93 1520.58 456.167 1533.74 459Z" fill="#FFFBFA"/>
<path d="M1298.98 474.22C1291.81 482.073 1285.84 490.66 1281.09 499.98C1274.07 510.6 1269.41 525.55 1266.23 537.37C1259.84 559.71 1255.72 580.46 1260.92 603.64C1241.86 612.73 1221.69 623.93 1208 630.68C1205.94 631.7 1202.61 632.81 1198 634.01C1197.04 633.87 1196.21 634.103 1195.5 634.71C1194.11 634.563 1192.85 634.933 1191.72 635.82C1190.71 635.78 1189.75 636.023 1188.84 636.55C1187.05 636.517 1185.34 636.913 1183.71 637.74C1183.05 637.733 1182.85 637.78 1183.11 637.88L1175.97 639.37C1160.84 642.55 1150.19 641.12 1136.58 641.33C1136.24 641.337 1136.07 641.17 1136.07 640.83C1135.94 630.31 1134.94 618.62 1136.6 613.02C1136.99 611.753 1137.1 610.487 1136.93 609.22C1137.01 609.107 1137.02 608.977 1136.97 608.83C1138.25 605.99 1137.99 602.81 1138.51 600.08C1138.82 598.44 1138.98 596.743 1138.98 594.99L1139.74 590.56C1140.06 589.833 1140.13 588.903 1139.96 587.77C1140.08 587.803 1140.23 587.643 1140.41 587.29L1142.49 578.5L1143.27 575.5C1143.4 573.68 1143.85 572.053 1144.62 570.62C1146.2 567.573 1147.15 564.287 1147.47 560.76L1149.83 553.27L1150.15 552.21C1151.12 550.79 1151.74 549.28 1152.01 547.68L1155.57 537.43L1158.21 530.25L1179.36 478.82C1179.39 478.738 1179.39 478.648 1179.37 478.563C1179.35 478.479 1179.3 478.404 1179.23 478.351C1179.16 478.297 1179.07 478.267 1178.99 478.265C1178.9 478.263 1178.81 478.289 1178.74 478.34C1177.34 479.387 1176.06 480.657 1174.89 482.15C1170.24 488.11 1165.61 494.01 1161.72 500.51C1156.37 509.437 1151.3 518.487 1146.52 527.66C1141.09 537.2 1136.35 547.07 1132.3 557.27L1130.97 560.24C1130.27 561.153 1129.85 562.153 1129.71 563.24C1129.52 563.28 1129.45 563.447 1129.5 563.74C1128.09 565.8 1126.98 568.39 1126.19 571.51L1124.32 575.7C1123.23 577.013 1122.62 578.363 1122.48 579.75C1122.52 579.97 1122.45 580.213 1122.28 580.48C1121.24 582.047 1120.63 583.713 1120.45 585.48L1119.8 587.52L1119.77 586.97C1119.74 586.457 1119.62 586.43 1119.39 586.89C1118.68 588.337 1118.4 589.873 1118.54 591.5L1118.23 594.08C1118.19 594.467 1117.99 594.577 1117.64 594.41L1115.96 593.61C1114.28 591.37 1112.12 589.81 1109.47 588.93L1107.25 586.96C1106.42 585.413 1105.17 584.357 1103.5 583.79C1103.18 583.643 1103.02 583.457 1103.03 583.23C1102.36 582.057 1101.23 581.187 1099.64 580.62L1071.48 553.3C1071.24 553.073 1070.96 552.943 1070.63 552.91C1069.8 552.823 1069.07 552.607 1068.46 552.26C1068.16 551.6 1067.44 551.277 1066.31 551.29C1064.87 550.457 1063.48 550.12 1062.14 550.28L1061.39 549.92C1059.78 548.893 1057.94 548.35 1055.87 548.29C1054.38 548.37 1053.31 547.54 1052.02 547.37C1037.87 545.443 1023.6 543.853 1009.21 542.6C1014.43 523.47 1021.7 499.74 1040.24 492.78C1057.46 486.32 1075.36 481.74 1092.78 475.83C1118.41 467.117 1144.74 461.677 1171.75 459.51C1178.16 458.997 1187.89 459.027 1200.94 459.6C1212.19 460.1 1228.27 462.017 1249.18 465.35C1261.65 467.337 1278.25 470.293 1298.98 474.22Z" fill="#FFFBFA"/>
<path d="M1585 473.29C1585 473.357 1585 473.42 1585 473.48C1583.12 473.573 1581.37 473.07 1579.75 471.97C1581.58 471.79 1583.33 472.23 1585 473.29Z" fill="#EC5634"/>
<path d="M1585 473.29C1587.49 473.623 1589.84 474.423 1592.05 475.69L1590.5 475.72L1585 473.48C1585 473.42 1585 473.357 1585 473.29Z" fill="#B0462E"/>
<path d="M849.35 474.67L855.54 478.96C855.527 479.047 855.513 479.133 855.5 479.22C852.96 477.987 850.91 476.47 849.35 474.67Z" fill="#EC5634"/>
<path d="M1590.5 475.72L1592.05 475.69C1593.85 475.923 1595.08 476.43 1595.75 477.21C1594.1 477.123 1592.35 476.627 1590.5 475.72Z" fill="#EC5634"/>
<path d="M1595.75 477.21C1599.14 477.79 1602.48 479.03 1605.78 480.93C1602.1 480.31 1598.76 479.07 1595.75 477.21Z" fill="#EC5634"/>
<path d="M855.54 478.96C856.893 479.413 857.873 480.097 858.48 481.01C857.307 480.743 856.313 480.147 855.5 479.22C855.513 479.133 855.527 479.047 855.54 478.96Z" fill="#B0462E"/>
<path d="M1607.04 481.99C1605.63 483.237 1604 484.033 1602.15 484.38C1603.61 482.96 1605.24 482.163 1607.04 481.99Z" fill="#EC5634"/>
<path d="M870.79 485.67C869.697 485.877 868.76 485.827 867.98 485.52C868.8 485.08 869.737 485.13 870.79 485.67Z" fill="#EC5634"/>
<path d="M872.46 486.35C874.04 486.117 875.56 486.217 877.02 486.65C875.38 486.93 873.86 486.83 872.46 486.35Z" fill="#EC5634"/>
<path d="M882.8 498.99L883.19 499.24C883.377 499.36 883.51 499.527 883.59 499.74L886.07 506.72C886.063 507.087 885.983 507.37 885.83 507.57L882.8 498.99Z" fill="#EC5634"/>
<path d="M1281.09 499.98C1275.6 512.02 1271.99 520.93 1270.26 526.71C1268.86 531.39 1267.52 534.943 1266.23 537.37C1269.41 525.55 1274.07 510.6 1281.09 499.98Z" fill="#B0462E"/>
<path d="M886.07 506.72C886.83 507.893 887.077 509.173 886.81 510.56L885.83 507.57C885.983 507.37 886.063 507.087 886.07 506.72Z" fill="#B0462E"/>
<path d="M1699.98 768.94C1697.6 768.833 1694.77 768.483 1691.48 767.89C1656.31 761.56 1621.84 752.07 1587.96 738.53C1563.42 728.72 1540.06 716.07 1516.03 705.11C1512.84 703.65 1509.76 701.69 1506.8 700.27C1499.39 696.723 1492.32 692.61 1485.57 687.93C1485.11 687.61 1484.8 687.277 1484.63 686.93C1484.33 686.317 1484.38 685.773 1484.79 685.3C1484.98 685.084 1485.24 684.946 1485.52 684.912C1485.8 684.879 1486.09 684.953 1486.32 685.12C1492.81 689.773 1499.65 693.903 1506.84 697.51C1539.41 713.877 1566.15 726.52 1587.06 735.44C1603.07 742.267 1622.43 748.683 1645.12 754.69C1645.44 754.77 1645.72 754.92 1645.97 755.14C1646.33 755.467 1646.77 755.593 1647.28 755.52C1647.61 755.467 1647.94 755.483 1648.26 755.57C1666.28 760.443 1684.53 764.227 1703 766.92C1703.98 767.06 1705.59 766.8 1706.31 766.09C1717.37 755.13 1729.13 743.89 1737.19 730.47C1738.16 728.86 1739.73 727.36 1740.61 725.64C1751.13 705.13 1759.39 686.15 1761.39 662.79C1761.94 656.383 1762.03 648.123 1761.66 638.01C1761.48 633.35 1761.26 630.88 1757.8 627.43C1749.34 618.98 1740.62 609.91 1732.18 602.42C1723.93 595.107 1717.18 589.74 1711.93 586.32C1705.64 582.22 1698.94 577.22 1693.34 573.62C1670.72 559.067 1647.08 546.427 1622.43 535.7C1609.3 529.98 1593.44 522.59 1578.28 517.28C1578.07 517.208 1577.89 517.056 1577.79 516.856C1577.68 516.656 1577.65 516.422 1577.71 516.2C1578.07 514.82 1579.33 514.81 1580.51 515.23C1591.47 519.12 1602.02 523.94 1612.73 528.47C1636.06 538.35 1658.64 549.723 1680.47 562.59C1711.14 580.66 1736.23 600.3 1759.25 625.13C1759.27 625.153 1759.3 625.167 1759.34 625.172C1759.37 625.178 1759.4 625.173 1759.43 625.159C1759.46 625.144 1759.48 625.122 1759.5 625.093C1759.52 625.065 1759.52 625.032 1759.52 625C1758.57 617.14 1757.1 610.94 1754.36 602.55C1752.85 597.937 1751.49 593.277 1750.28 588.57C1750.24 588.402 1750.24 588.226 1750.28 588.059C1750.33 587.893 1750.42 587.741 1750.54 587.62L1751.07 587.09C1751.41 586.75 1751.72 586.78 1751.99 587.18C1752.54 587.98 1752.95 588.84 1753.22 589.76C1756.19 599.65 1759.74 610.45 1761.64 619.62C1767.88 649.76 1764.72 679.55 1752.2 707.62C1747.11 719.05 1743.03 727.65 1736.33 736.94C1728.12 748.33 1717.99 758.69 1707.63 768.13C1703.58 771.81 1698.67 774.22 1694.69 776.6C1658.54 798.18 1615.63 801.45 1574.92 793.33C1573.82 793.11 1572.1 793.05 1571.67 791.82C1571.61 791.648 1571.6 791.463 1571.63 791.284C1571.67 791.105 1571.75 790.94 1571.87 790.803C1572 790.667 1572.15 790.565 1572.32 790.509C1572.5 790.452 1572.68 790.442 1572.86 790.48C1595.64 795.3 1618.52 796.08 1641.49 792.82C1641.76 792.78 1643.07 792.47 1645.43 791.89C1647.29 791.44 1649.2 791.63 1650.85 791.22C1659.54 789.06 1668.03 786.297 1676.32 782.93C1684.36 779.67 1692.45 774.84 1700.34 770.46C1702.01 769.533 1701.89 769.027 1699.98 768.94Z" fill="#53291E"/>
<path d="M1146.52 527.66L1132.3 557.27C1136.35 547.07 1141.09 537.2 1146.52 527.66Z" fill="#6F3527"/>
<path d="M1158.21 530.25L1155.57 537.43C1155.54 534.303 1156.42 531.91 1158.21 530.25Z" fill="#B0462E"/>
<path d="M1152.01 547.68C1151.74 549.28 1151.12 550.79 1150.15 552.21C1150.26 550.31 1150.88 548.8 1152.01 547.68Z" fill="#EC5634"/>
<path d="M1055.87 548.29C1057.94 548.35 1059.78 548.893 1061.39 549.92C1059.34 549.76 1057.5 549.217 1055.87 548.29Z" fill="#EC5634"/>
<path d="M1066.31 551.29C1066.24 551.423 1066.23 551.547 1066.28 551.66C1064.71 551.5 1063.33 551.04 1062.14 550.28C1063.48 550.12 1064.87 550.457 1066.31 551.29Z" fill="#B0462E"/>
<path d="M1066.31 551.29C1067.44 551.277 1068.16 551.6 1068.46 552.26C1067.43 552.42 1066.7 552.22 1066.28 551.66C1066.23 551.547 1066.24 551.423 1066.31 551.29Z" fill="#EC5634"/>
<path d="M1149.83 553.27L1147.47 560.76L1147.43 559.22L1149.83 553.27Z" fill="#EC5634"/>
<path d="M831.77 566.77L824.2 565C823.833 564.92 823.583 565.053 823.45 565.4C812.217 594.647 801.897 619.677 792.49 640.49C785.47 656.03 775.777 670.75 763.41 684.65C741.31 709.49 718.993 734.137 696.46 758.59C681.71 774.61 668.68 791.65 655.83 809.82C649.077 819.36 643.193 828.563 638.18 837.43C604.8 896.38 583.34 960.82 568.58 1026.32C564.31 1045.3 564.21 1061.61 561.92 1086H527.44C527.507 1077.17 527.527 1068.33 527.5 1059.5C527.46 1047.14 528.97 1032.82 532.03 1016.53C534.797 1004.16 537.933 992.663 541.44 982.05C547.92 963.24 553.27 946.41 561.93 926.28C562.31 925.41 562.27 924.67 562.29 923.75C562.723 923.737 563.047 923.49 563.26 923.01C580.67 883.81 600.34 847.54 622.86 809.84C637.35 785.57 653.35 763.64 669.82 741.32C679.773 727.847 692.927 711.917 709.28 693.53C709.5 693.283 709.547 693.083 709.42 692.93C709.3 692.79 709.083 692.637 708.77 692.47C709.39 692.57 710.08 692.193 710.84 691.34C725.65 674.7 745.31 655.99 762.97 636.72C771.117 627.833 777.653 617.88 782.58 606.86C788.633 593.427 793.713 579.647 797.82 565.52C798.607 562.827 799.473 560.227 800.42 557.72C800.492 557.526 800.637 557.369 800.824 557.281C801.011 557.193 801.225 557.182 801.42 557.25C805.247 558.563 809.05 559.923 812.83 561.33C815.52 562.33 818.59 562.49 821.5 563.5C825.16 564.77 828.42 565.44 831.77 566.77Z" fill="#EE5321"/>
<path d="M1147.43 559.22L1147.47 560.76C1147.15 564.287 1146.2 567.573 1144.62 570.62L1147.43 559.22Z" fill="#B0462E"/>
<path d="M1130.97 560.24C1131.1 561.347 1130.68 562.347 1129.71 563.24C1129.85 562.153 1130.27 561.153 1130.97 560.24Z" fill="#6F3527"/>
<path d="M1129.5 563.74C1128.97 566.193 1127.87 568.783 1126.19 571.51C1126.98 568.39 1128.09 565.8 1129.5 563.74Z" fill="#B0462E"/>
<path d="M841.97 570.24C844.75 571.147 846.743 573.063 847.95 575.99C847.517 576.03 847.31 576.013 847.33 575.94C846.283 573.607 844.497 571.707 841.97 570.24Z" fill="#EC5634"/>
<path d="M1124.32 575.7C1124.12 577.307 1123.51 578.657 1122.48 579.75C1122.62 578.363 1123.23 577.013 1124.32 575.7Z" fill="#EC5634"/>
<path d="M1143.27 575.5L1142.49 578.5L1142.02 578.49C1141.82 577.39 1142.24 576.393 1143.27 575.5Z" fill="#B0462E"/>
<path d="M847.33 575.94C847.31 576.013 847.517 576.03 847.95 575.99L848.02 600.45C848.02 600.81 848.2 601.003 848.56 601.03L857.98 601.72C857.987 601.82 857.99 601.917 857.99 602.01L848.34 601.88C848.106 601.877 847.882 601.782 847.717 601.616C847.552 601.449 847.46 601.224 847.46 600.99L847.33 575.94Z" fill="#B0462E"/>
<path d="M1142.02 578.49L1142.49 578.5L1140.41 587.29C1140.04 587.01 1139.9 586.663 1140.01 586.25C1140.71 583.677 1141.38 581.09 1142.02 578.49Z" fill="#EC5634"/>
<path d="M1099.64 580.62C1101.23 581.187 1102.36 582.057 1103.03 583.23C1101.64 582.623 1100.51 581.753 1099.64 580.62Z" fill="#EC5634"/>
<path d="M1122.28 580.48C1122.07 582.193 1121.46 583.86 1120.45 585.48C1120.63 583.713 1121.24 582.047 1122.28 580.48Z" fill="#B0462E"/>
<path d="M1103.5 583.79C1105.17 584.357 1106.42 585.413 1107.25 586.96C1105.7 586.26 1104.45 585.203 1103.5 583.79Z" fill="#EC5634"/>
<path d="M1119.8 587.52L1118.54 591.5C1118.4 589.873 1118.68 588.337 1119.39 586.89C1119.62 586.43 1119.74 586.457 1119.77 586.97L1119.8 587.52Z" fill="#EC5634"/>
<path d="M1139.96 587.77C1140.13 588.903 1140.06 589.833 1139.74 590.56C1139.29 590.353 1139.13 589.817 1139.25 588.95C1139.31 588.59 1139.55 588.197 1139.96 587.77Z" fill="#B0462E"/>
<path d="M1109.47 588.93C1112.12 589.81 1114.28 591.37 1115.96 593.61L1109.47 588.93Z" fill="#EC5634"/>
<path d="M1139.25 588.95C1139.13 589.817 1139.29 590.353 1139.74 590.56L1138.98 594.99L1138.24 595.49L1139.25 588.95Z" fill="#6F3527"/>
<path d="M1138.98 594.99C1138.98 596.743 1138.82 598.44 1138.51 600.08C1137.99 602.81 1138.25 605.99 1136.97 608.83L1138.24 595.49L1138.98 594.99Z" fill="#EC5634"/>
<path d="M857.98 601.72L862.86 601.76C862.887 601.76 862.912 601.771 862.931 601.789C862.949 601.808 862.96 601.833 862.96 601.86C862.96 601.887 862.949 601.912 862.931 601.931C862.912 601.949 862.887 601.96 862.86 601.96C862.5 601.98 862.21 602.057 861.99 602.19L857.99 602.01C857.99 601.917 857.987 601.82 857.98 601.72Z" fill="#EC5634"/>
<path d="M857.99 602.01L861.99 602.19L863.49 602.27C863.497 602.33 863.5 602.393 863.5 602.46C861.933 602.773 860.35 602.893 858.75 602.82C858.23 602.793 857.977 602.523 857.99 602.01Z" fill="#6F3527"/>
<path d="M863.49 602.27L870.01 602.93C867.87 603.357 865.7 603.2 863.5 602.46C863.5 602.393 863.497 602.33 863.49 602.27Z" fill="#EC5634"/>
<path d="M1136.93 609.22C1137.1 610.487 1136.99 611.753 1136.6 613.02C1135.97 611.353 1136.08 610.087 1136.93 609.22Z" fill="#B0462E"/>
<path d="M1045.03 612.75C1044.88 612.674 1044.76 612.561 1044.67 612.422C1044.58 612.283 1044.53 612.124 1044.52 611.96C1044.49 611.093 1044.8 610.577 1045.45 610.41C1045.78 610.33 1046.25 610.387 1046.86 610.58C1052.75 612.49 1057.94 614.41 1062.74 618.69C1072.25 627.19 1081.92 635.497 1091.75 643.61C1102.6 652.57 1114.93 659.22 1127.28 665.87C1127.47 665.97 1127.63 666.113 1127.75 666.286C1127.87 666.46 1127.95 666.66 1127.98 666.87C1128.01 667.08 1128 667.294 1127.93 667.495C1127.86 667.697 1127.75 667.88 1127.6 668.03L1127.27 668.35C1127.08 668.539 1126.84 668.662 1126.57 668.704C1126.31 668.745 1126.04 668.702 1125.8 668.58C1112.56 661.64 1099.89 654.53 1088.29 644.81C1078.61 636.71 1069.04 628.487 1059.58 620.14C1055.74 616.74 1049.71 615.12 1045.03 612.75Z" fill="#532D25"/>
<path d="M1426.93 723.4L1407.29 714.78C1405.29 713.3 1403.32 712.22 1401.37 711.54C1401.33 711.527 1401.14 711.43 1400.79 711.25C1400.39 711.043 1399.89 711.05 1399.28 711.27L1396.93 710.09C1397.14 708.07 1394.88 706.3 1394.01 704.94C1388.86 696.84 1383.75 688.713 1378.68 680.56C1367.88 663.2 1366.23 636.58 1366.14 616.05C1366.14 615.969 1366.16 615.889 1366.2 615.82C1366.24 615.75 1366.3 615.693 1366.37 615.654C1366.44 615.616 1366.52 615.598 1366.6 615.603C1366.69 615.607 1366.76 615.634 1366.83 615.68C1396.49 635.667 1427.24 654 1459.08 670.68C1463.51 673 1468.18 675.65 1473.04 677.54C1473.16 677.585 1473.27 677.658 1473.35 677.754C1473.44 677.85 1473.5 677.965 1473.53 678.09C1473.56 678.214 1473.56 678.345 1473.53 678.471C1473.5 678.596 1473.43 678.713 1473.35 678.81C1459.05 694.81 1442.56 708.1 1423.88 718.68C1423.6 718.839 1423.37 719.075 1423.21 719.36C1423.06 719.645 1422.99 719.967 1423.01 720.29C1423.08 721.317 1423.73 721.91 1424.94 722.07C1425.49 722.143 1425.88 722.25 1426.13 722.39C1426.64 722.69 1426.91 723.027 1426.93 723.4Z" fill="#53291E"/>
<path d="M1804.3 625.99C1805.26 626.763 1806.11 627.71 1806.86 628.83C1811.61 635.923 1816.36 643.013 1821.13 650.1C1826.96 658.78 1833.44 669.37 1834.25 679.98C1834.74 686.51 1832.2 692.16 1829.42 698.17C1815.83 727.54 1800.18 754.52 1782.48 781.22C1782.45 781.262 1782.42 781.294 1782.37 781.309C1782.32 781.324 1782.27 781.322 1782.23 781.303C1782.18 781.284 1782.14 781.25 1782.12 781.205C1782.09 781.161 1782.08 781.11 1782.09 781.06C1789.03 739.26 1794.76 697.253 1799.29 655.04C1799.99 648.53 1802.01 636.34 1802.08 627.04C1802.09 625.16 1802.83 624.81 1804.3 625.99Z" fill="#B34320"/>
<path d="M1198 634.01C1198.01 634.457 1197.69 634.697 1197.03 634.73L1195.5 634.71C1196.21 634.103 1197.04 633.87 1198 634.01Z" fill="#EC5634"/>
<path d="M1195.5 634.71L1197.03 634.73C1195.05 635.657 1193.28 636.02 1191.72 635.82C1192.85 634.933 1194.11 634.563 1195.5 634.71Z" fill="#B0462E"/>
<path d="M1188.84 636.55C1187.11 637.377 1185.4 637.773 1183.71 637.74C1185.34 636.913 1187.05 636.517 1188.84 636.55Z" fill="#EC5634"/>
<path d="M1183.11 637.88C1182.73 638.807 1181.73 639.177 1180.1 638.99C1179.76 638.95 1179.45 639.03 1179.16 639.23C1178.15 639.937 1177.08 639.983 1175.97 639.37L1183.11 637.88Z" fill="#B0462E"/>
<path d="M1366.95 696.65C1367.66 697.523 1368.6 698.043 1369.77 698.21C1370.37 698.703 1371.04 698.867 1371.78 698.7L1372.45 699.3L1378.86 702L1382.2 703.78L1386.03 705.21L1396.93 710.09L1399.28 711.27L1407.29 714.78L1426.93 723.4L1437.28 728.44C1437.72 729.113 1438.29 729.37 1439 729.21L1439.99 730.06C1440.04 730.2 1440.16 730.263 1440.36 730.25C1440.58 730.237 1440.69 730.34 1440.69 730.56C1440.68 732.867 1441.17 735.013 1442.16 737C1442.12 738.187 1442.42 739.24 1443.05 740.16C1443.39 743.34 1444.3 746.397 1445.77 749.33C1445.78 749.357 1445.79 749.383 1445.8 749.41C1447.09 754.67 1449.18 759.63 1452.07 764.29C1452.36 764.61 1452.61 765.117 1452.83 765.81C1452.6 766.177 1452.46 766.57 1452.42 766.99C1449.14 768.143 1444.73 770.293 1439.19 773.44C1411.92 788.893 1392.73 799.973 1381.64 806.68C1327.91 838.72 1275.76 873.91 1225.3 910.85C1224.35 910.977 1223.77 911.443 1223.54 912.25L1218.95 915.77L1222.29 907.26C1223.54 905.613 1224.41 903.68 1224.92 901.46C1224.97 901.14 1225.13 900.917 1225.38 900.79L1229.89 889.54L1232.03 883.69L1234.2 879.33C1236.44 876.097 1238.1 872.63 1239.18 868.93L1242.22 863.28L1250.61 847.5L1252.51 843.26C1253.72 842.107 1254.32 841.027 1254.3 840.02C1255.46 838.833 1256.34 837.31 1256.93 835.45C1258.42 833.863 1259.53 831.967 1260.26 829.76L1263.5 824.96C1280.54 797.37 1302.52 771.69 1324.48 747.9C1335.95 735.48 1345.23 721.36 1354.29 707.25L1357.04 703.53L1362.67 694.98C1362.83 694.733 1363.04 694.677 1363.31 694.81L1366.95 696.65Z" fill="#FFFBFA"/>
<path d="M1369.8 697.77C1369.74 697.903 1369.73 698.05 1369.77 698.21C1368.6 698.043 1367.66 697.523 1366.95 696.65C1367.77 696.49 1368.72 696.863 1369.8 697.77Z" fill="#EC5634"/>
<path d="M1369.8 697.77C1370.55 697.783 1371.21 698.093 1371.78 698.7C1371.04 698.867 1370.37 698.703 1369.77 698.21C1369.73 698.05 1369.74 697.903 1369.8 697.77Z" fill="#B0462E"/>
<path d="M1372.45 699.3C1374.89 699.627 1377.03 700.527 1378.86 702L1372.45 699.3Z" fill="#B0462E"/>
<path d="M1357.04 703.53L1354.29 707.25C1354.51 705.677 1355.43 704.437 1357.04 703.53Z" fill="#B0462E"/>
<path d="M1382.2 703.78C1384.02 703.773 1385.3 704.25 1386.03 705.21L1382.2 703.78Z" fill="#B0462E"/>
<path d="M1407.29 714.78L1399.28 711.27C1399.89 711.05 1400.39 711.043 1400.79 711.25C1401.14 711.43 1401.33 711.527 1401.37 711.54C1403.32 712.22 1405.29 713.3 1407.29 714.78Z" fill="#B0462E"/>
<path d="M1222.45 785.36C1210.94 799.82 1198.92 813.793 1186.41 827.28C1186.19 827.52 1185.94 827.557 1185.66 827.39L1180.69 824.36C1180.33 823.313 1179.62 822.94 1178.55 823.24L1167.08 817.44C1166.35 816.273 1165 815.627 1163.01 815.5C1162.66 815.067 1162.24 814.923 1161.75 815.07C1159.8 813.837 1157.71 813.243 1155.5 813.29L1149.74 811.73C1148.95 811.077 1148.11 810.94 1147.21 811.32L1146.23 810.7C1145.64 809.967 1144.73 809.857 1143.48 810.37C1143.4 810.317 1143.32 810.263 1143.25 810.21C1142.36 809.517 1141.27 809.283 1140 809.51C1118.75 805.023 1097.28 803.363 1075.59 804.53C1075.3 804.55 1075.05 804.65 1074.82 804.83C1074.65 804.963 1074.47 805.023 1074.27 805.01L1067.28 805.58L1062 806.32L1056.48 806.82L1051.49 807.7L1038.01 809.55C1036.62 809.323 1035.52 809.433 1034.7 809.88L1034.03 810.1C1031 809.787 1028.06 810.087 1025.21 811C1023.6 810.787 1022.27 810.95 1021.21 811.49L1011.73 812.81C1006.74 812.51 1001.99 812.897 997.48 813.97C976.16 815.87 954.85 815.827 933.55 813.84L927.48 813.28L910.75 810.71L907.47 809.99L893.29 806.89C893.29 806.357 892.62 806.123 891.28 806.19L882.74 803.78C882.153 803.033 881.32 802.793 880.24 803.06C879.527 803.013 878.883 802.733 878.31 802.22L874.14 801.06L873.96 800.72C873.253 800.053 872.437 799.83 871.51 800.05C870.623 799.95 870.497 799.843 871.13 799.73C870.503 799.13 869.62 798.75 868.48 798.59C867.407 797.83 866.56 797.62 865.94 797.96L862.73 796.8L863.21 796.75C863.597 796.723 863.627 796.603 863.3 796.39C862.7 796.003 862.017 795.887 861.25 796.04L849 790.97C848.527 790.07 847.69 789.763 846.49 790.05L840.85 787.16C838.703 785.533 836.407 784.48 833.96 784L819.59 776.84C819.03 775.847 817.997 775.247 816.49 775.04C816.177 774.367 815.537 773.98 814.57 773.88C812.09 772.813 811.21 771.92 811.93 771.2C812.803 767.927 813.143 764.56 812.95 761.1L819.01 755.03C820.937 753.79 822.353 752.177 823.26 750.19L827.59 745.85L832.03 740.53L838.57 733.36C844.31 725.6 849.367 719.317 853.74 714.51C855.36 712.74 857.7 712.59 860.19 712.94C880.517 715.807 901.477 719.547 923.07 724.16C986.803 737.767 1048.12 751.527 1107.02 765.44C1112.72 766.787 1119.19 768.407 1126.42 770.3C1155.74 777.993 1185.21 785.053 1214.84 791.48C1215.17 791.553 1215.48 791.487 1215.75 791.28C1217.92 789.56 1219.82 787.617 1221.44 785.45C1221.62 785.203 1221.96 785.173 1222.45 785.36Z" fill="#FFFBFA"/>
<path d="M1439 729.21C1438.29 729.37 1437.72 729.113 1437.28 728.44C1438.04 728.06 1438.61 728.317 1439 729.21Z" fill="#EC5634"/>
<path d="M1439.99 730.06C1440.68 729.867 1441.05 729.99 1441.12 730.43C1441.45 732.43 1441.8 734.62 1442.16 737C1441.17 735.013 1440.68 732.867 1440.69 730.56C1440.69 730.34 1440.58 730.237 1440.36 730.25C1440.16 730.263 1440.04 730.2 1439.99 730.06Z" fill="#EC5634"/>
<path d="M1443.05 740.16L1445.77 749.33C1444.3 746.397 1443.39 743.34 1443.05 740.16Z" fill="#EC5634"/>
<path d="M832.03 740.53L827.59 745.85C828.343 743.723 829.823 741.95 832.03 740.53Z" fill="#EC5634"/>
<path d="M1484.78 760.96C1484.12 760.48 1483.63 759.867 1483.3 759.12L1478.87 748.98C1478.72 748.633 1478.81 748.543 1479.15 748.71C1498.1 757.977 1517.01 767.297 1535.88 776.67C1545.2 781.3 1556.61 785.89 1566.82 790.9C1566.96 790.97 1567.08 791.081 1567.15 791.218C1567.23 791.356 1567.26 791.513 1567.25 791.67C1566.38 800.29 1561.03 801.63 1553.79 802.75C1553.47 802.796 1553.14 802.74 1552.85 802.59C1540.31 796.063 1528.17 788.873 1516.44 781.02C1506.24 774.2 1494.96 768.41 1484.78 760.96Z" fill="#53291E"/>
<path d="M1445.8 749.41L1452.07 764.29C1449.18 759.63 1447.09 754.67 1445.8 749.41Z" fill="#EC5634"/>
<path d="M823.26 750.19C822.353 752.177 820.937 753.79 819.01 755.03L823.26 750.19Z" fill="#EC5634"/>
<path d="M812.95 761.1C813.143 764.56 812.803 767.927 811.93 771.2C811.417 767.44 811.757 764.073 812.95 761.1Z" fill="#EC5634"/>
<path d="M1452.83 765.81C1459.91 781.743 1469.99 795.6 1483.06 807.38C1483.15 807.458 1483.21 807.558 1483.25 807.669C1483.28 807.78 1483.29 807.899 1483.26 808.013C1483.24 808.127 1483.18 808.232 1483.1 808.317C1483.02 808.403 1482.92 808.466 1482.81 808.5C1467.92 813.06 1451.92 817.15 1437.97 821.8C1415.06 829.427 1392.65 838.343 1370.74 848.55C1365.38 851.05 1361.53 852.64 1367.04 858.85C1374.18 866.903 1384.26 877.61 1397.28 890.97C1413.31 907.41 1436.25 932.38 1466.1 965.88C1466.32 966.12 1466.36 966.387 1466.21 966.68C1463.26 972.44 1460.3 978.223 1457.31 984.03C1440.88 1015.93 1428.51 1050.49 1420.8 1086H1212.7C1208.32 1062.55 1205.13 1039.37 1205.92 1015.44C1206.54 996.707 1207.31 982.817 1208.23 973.77C1209.78 953.943 1213.35 934.61 1218.95 915.77L1223.54 912.25C1224.31 912.183 1224.89 911.717 1225.3 910.85C1275.76 873.91 1327.91 838.72 1381.64 806.68C1382.81 806.62 1383.9 806.287 1384.93 805.68C1407.2 792.493 1429.69 779.597 1452.42 766.99C1452.46 766.57 1452.6 766.177 1452.83 765.81Z" fill="#53291E"/>
<path d="M1452.42 766.99C1429.69 779.597 1407.2 792.493 1384.93 805.68C1383.9 806.287 1382.81 806.62 1381.64 806.68C1392.73 799.973 1411.92 788.893 1439.19 773.44C1444.73 770.293 1449.14 768.143 1452.42 766.99Z" fill="#B0462E"/>
<path d="M814.57 773.88C815.537 773.98 816.177 774.367 816.49 775.04C815.29 775.253 814.65 774.867 814.57 773.88Z" fill="#B0462E"/>
<path d="M816.49 775.04C817.997 775.247 819.03 775.847 819.59 776.84C818.203 776.46 817.17 775.86 816.49 775.04Z" fill="#EC5634"/>
<path d="M833.96 784C836.407 784.48 838.703 785.533 840.85 787.16L833.96 784Z" fill="#EC5634"/>
<path d="M846.49 790.05C847.69 789.763 848.527 790.07 849 790.97C848.087 791.037 847.25 790.73 846.49 790.05Z" fill="#EC5634"/>
<path d="M861.25 796.04C862.017 795.887 862.7 796.003 863.3 796.39C863.627 796.603 863.597 796.723 863.21 796.75L862.73 796.8C862.183 796.74 861.69 796.487 861.25 796.04Z" fill="#EC5634"/>
<path d="M868.48 798.59C868.173 798.75 867.763 798.817 867.25 798.79C866.67 798.823 866.233 798.547 865.94 797.96C866.56 797.62 867.407 797.83 868.48 798.59Z" fill="#B0462E"/>
<path d="M868.48 798.59C869.62 798.75 870.503 799.13 871.13 799.73L867.25 798.79C867.763 798.817 868.173 798.75 868.48 798.59Z" fill="#EC5634"/>
<path d="M871.51 800.05C872.437 799.83 873.253 800.053 873.96 800.72C872.96 800.927 872.143 800.703 871.51 800.05Z" fill="#EC5634"/>
<path d="M874.14 801.06L878.31 802.22C876.323 802.4 874.933 802.013 874.14 801.06Z" fill="#6F3527"/>
<path d="M880.24 803.06C881.32 802.793 882.153 803.033 882.74 803.78C881.88 803.84 881.047 803.6 880.24 803.06Z" fill="#EC5634"/>
<path d="M1074.27 805.01L1073.86 805.33C1073.61 805.53 1073.32 805.643 1073 805.67L1066.24 806.22C1066.75 806.013 1067.09 805.8 1067.28 805.58L1074.27 805.01Z" fill="#B0462E"/>
<path d="M1067.28 805.58C1067.09 805.8 1066.75 806.013 1066.24 806.22L1062 806.32L1067.28 805.58Z" fill="#EC5634"/>
<path d="M891.28 806.19C892.62 806.123 893.29 806.357 893.29 806.89C892.27 807.097 891.6 806.863 891.28 806.19Z" fill="#EC5634"/>
<path d="M1062 806.32C1060.61 807 1058.96 807.22 1057.05 806.98C1056.63 807.06 1056.44 807.007 1056.48 806.82L1062 806.32Z" fill="#EC5634"/>
<path d="M1056.48 806.82C1056.44 807.007 1056.63 807.06 1057.05 806.98C1055.18 807.773 1053.32 808.013 1051.49 807.7L1056.48 806.82Z" fill="#B0462E"/>
<path d="M1038.01 809.55C1037.07 810.07 1035.97 810.18 1034.7 809.88C1035.52 809.433 1036.62 809.323 1038.01 809.55Z" fill="#EC5634"/>
<path d="M1140 809.51C1141.27 809.283 1142.36 809.517 1143.25 810.21C1142 810.41 1140.91 810.177 1140 809.51Z" fill="#EC5634"/>
<path d="M907.47 809.99L910.75 810.71C909.41 810.997 908.317 810.757 907.47 809.99Z" fill="#EC5634"/>
<path d="M1034.03 810.1L1025.57 811.15C1025.5 811.41 1025.38 811.36 1025.21 811C1028.06 810.087 1031 809.787 1034.03 810.1Z" fill="#EC5634"/>
<path d="M1146.23 810.7C1145.26 811.18 1144.34 811.07 1143.48 810.37C1144.73 809.857 1145.64 809.967 1146.23 810.7Z" fill="#EC5634"/>
<path d="M1025.21 811C1025.38 811.36 1025.5 811.41 1025.57 811.15C1024.55 812.257 1023.1 812.37 1021.21 811.49C1022.27 810.95 1023.6 810.787 1025.21 811Z" fill="#B0462E"/>
<path d="M1149.74 811.73C1148.41 812.143 1147.56 812.007 1147.21 811.32C1148.11 810.94 1148.95 811.077 1149.74 811.73Z" fill="#B0462E"/>
<path d="M1399.41 889.59C1389.98 879.437 1380.54 869.297 1371.09 859.17C1369.84 857.837 1368.69 856.473 1367.62 855.08C1367.48 854.898 1367.38 854.688 1367.33 854.464C1367.28 854.239 1367.29 854.007 1367.34 853.784C1367.39 853.56 1367.49 853.352 1367.64 853.173C1367.78 852.994 1367.96 852.849 1368.17 852.75C1384.61 844.85 1403.99 837.99 1418.08 832.61C1440.34 824.11 1464 817.88 1487.19 811.01C1487.46 810.927 1487.75 810.914 1488.03 810.972C1488.31 811.029 1488.57 811.156 1488.79 811.34C1494.35 816.02 1500.34 820.387 1506.76 824.44C1521.87 833.973 1537.05 843.403 1552.29 852.73C1554.3 853.957 1557.14 854.927 1560.82 855.64C1578.43 859.06 1592.04 860.23 1609.21 856.82C1645.72 849.57 1683.39 839.51 1717.3 824.01C1717.36 823.978 1717.43 823.969 1717.5 823.983C1717.57 823.996 1717.63 824.033 1717.68 824.086C1717.72 824.139 1717.75 824.206 1717.75 824.276C1717.75 824.345 1717.73 824.414 1717.69 824.47C1712.18 832.82 1706.54 841.31 1698.82 847.61C1681.51 861.74 1660.76 872.63 1639.99 880.65C1639.66 880.777 1639.57 880.997 1639.71 881.31C1642.75 888.197 1645.75 895.1 1648.71 902.02C1649.79 904.54 1650.52 907.12 1650.89 909.76C1652.08 918.027 1653.06 926.48 1653.83 935.12C1653.84 935.217 1653.82 935.315 1653.77 935.402C1653.73 935.488 1653.66 935.56 1653.57 935.609C1653.49 935.658 1653.39 935.682 1653.29 935.679C1653.2 935.676 1653.1 935.645 1653.02 935.59C1630.2 920.017 1606.38 905.963 1581.57 893.43C1579.45 892.35 1576.81 892.33 1574.91 891.24C1569.89 888.38 1564.92 886.38 1560 885.24C1543.04 881.313 1525.1 878.08 1506.17 875.54C1488.45 873.16 1471.05 869.57 1453.19 867.16C1453.11 867.149 1453.03 867.162 1452.96 867.198C1452.89 867.233 1452.83 867.29 1452.79 867.359C1452.76 867.429 1452.74 867.508 1452.75 867.587C1452.76 867.665 1452.79 867.74 1452.84 867.8C1465.63 883.05 1479.25 897.77 1485.42 917.22C1488.92 928.27 1474.37 952.38 1468.8 961.99C1468.45 962.603 1468.03 962.653 1467.54 962.14C1453.64 947.38 1439.83 932.52 1426.1 917.56C1417.86 908.58 1408.19 899.04 1399.41 889.59Z" fill="#53291E"/>
<path d="M1931 811.04V881.06C1930.37 882.293 1929.42 883.747 1928.17 885.42C1915.54 902.253 1902.72 918.01 1889.7 932.69C1876.24 947.86 1858.41 972.85 1839.83 995.38C1830.94 1006.17 1821.55 1016.78 1811.65 1027.21C1811.32 1027.55 1811.15 1028.01 1811.16 1028.49C1811.16 1028.96 1811.36 1029.41 1811.7 1029.74C1815.01 1032.91 1818.59 1036.22 1822.44 1039.67C1823.64 1040.75 1825.31 1041.26 1826.33 1042.17C1828.96 1044.54 1831.84 1046.6 1834.95 1048.35C1835.04 1048.4 1835.1 1048.47 1835.14 1048.56C1835.18 1048.65 1835.19 1048.75 1835.17 1048.84C1835.15 1048.94 1835.09 1049.03 1835.02 1049.09C1834.94 1049.15 1834.85 1049.19 1834.75 1049.2C1834.74 1049.2 1834.63 1049.26 1834.44 1049.38C1830.83 1047.09 1827.26 1044.74 1823.73 1042.31C1798.16 1024.72 1772.29 1007.58 1746.14 990.87C1745.89 990.71 1745.83 990.5 1745.96 990.24C1773.75 933.53 1813.3 891.01 1865.26 855.52C1887.1 840.6 1909.01 825.773 1931 811.04Z" fill="#B34320"/>
<path d="M1011.73 812.81L997.48 813.97C1001.99 812.897 1006.74 812.51 1011.73 812.81Z" fill="#EC5634"/>
<path d="M927.48 813.28L933.55 813.84C931.457 814.233 929.433 814.047 927.48 813.28Z" fill="#6F3527"/>
<path d="M1155.5 813.29C1157.71 813.243 1159.8 813.837 1161.75 815.07C1161.66 815.303 1161.4 815.337 1160.97 815.17L1155.5 813.29Z" fill="#EC5634"/>
<path d="M1161.75 815.07C1162.24 814.923 1162.66 815.067 1163.01 815.5C1162.96 815.76 1163.05 815.987 1163.28 816.18C1162.41 816.32 1161.64 815.983 1160.97 815.17C1161.4 815.337 1161.66 815.303 1161.75 815.07Z" fill="#B0462E"/>
<path d="M1163.01 815.5C1165 815.627 1166.35 816.273 1167.08 817.44L1163.28 816.18C1163.05 815.987 1162.96 815.76 1163.01 815.5Z" fill="#EC5634"/>
<path d="M1180.69 824.36C1179.73 824.193 1179.02 823.82 1178.55 823.24C1179.62 822.94 1180.33 823.313 1180.69 824.36Z" fill="#B0462E"/>
<path d="M1263.5 824.96L1260.26 829.76C1260.76 827.713 1261.84 826.113 1263.5 824.96Z" fill="#6F3527"/>
<path d="M1256.93 835.45C1256.34 837.31 1255.46 838.833 1254.3 840.02C1254.76 838.247 1255.64 836.723 1256.93 835.45Z" fill="#6F3527"/>
<path d="M1254.3 840.02C1254.32 841.027 1253.72 842.107 1252.51 843.26C1252.76 841.913 1253.36 840.833 1254.3 840.02Z" fill="#6F3527"/>
<path d="M411.42 847.36C438.48 867.36 459.02 887.94 488.05 915.2C489.35 916.42 490.197 917.327 490.59 917.92C505.27 940.12 522.27 963 541.44 982.05C537.933 992.663 534.797 1004.16 532.03 1016.53C513.857 996.23 498.903 978.327 487.17 962.82C467.177 936.393 447.243 906.947 427.37 874.48C423.07 867.44 417.9 857.84 412.78 849.71C412.5 849.263 412.137 848.91 411.69 848.65C411.403 848.483 411.283 848.237 411.33 847.91L411.42 847.36Z" fill="#B34320"/>
<path d="M1250.61 847.5L1242.22 863.28C1244.49 857.733 1247.29 852.473 1250.61 847.5Z" fill="#EC5634"/>
<path d="M1239.18 868.93C1238.1 872.63 1236.44 876.097 1234.2 879.33C1235.35 875.463 1237.01 871.997 1239.18 868.93Z" fill="#B0462E"/>
<path d="M1208.23 973.77C1207.31 982.817 1206.54 996.707 1205.92 1015.44C1205.13 1039.37 1208.32 1062.55 1212.7 1086H727.61C731.803 1078.84 737.38 1067.78 744.34 1052.83C762.53 1013.72 772.54 974.5 781.76 933.66C781.927 932.94 782.353 932.72 783.04 933C813.97 945.65 847.4 953.8 881 952.21C905.85 951.04 928.09 947.53 952.73 942.87C963.52 940.83 973.22 936.28 983.56 932.87C987.2 931.67 989.69 930.82 993.08 928.41C995.307 926.83 998.21 925.137 1001.79 923.33C1033.06 907.51 1064.69 892.85 1098.2 882.33C1101.99 881.137 1105.75 880.37 1109.48 880.03C1124.63 878.63 1139.67 878.763 1154.6 880.43C1155.07 880.477 1155.19 880.71 1154.97 881.13C1145.97 898.483 1137.05 915.923 1128.22 933.45C1127.01 935.863 1124.98 939.267 1122.14 943.66C1119.55 947.66 1119.08 951.96 1116.71 955.82C1108.73 968.813 1100.94 981.913 1093.33 995.12C1091.36 998.56 1089.82 1002.07 1088.71 1005.65C1088.68 1005.75 1088.68 1005.85 1088.7 1005.95C1088.73 1006.05 1088.78 1006.14 1088.85 1006.22C1088.93 1006.29 1089.02 1006.34 1089.12 1006.37C1089.22 1006.39 1089.32 1006.39 1089.42 1006.36C1128.57 994.15 1168.26 982.65 1208.23 973.77Z" fill="#B04220"/>
<path d="M1931 881.06V1086H1875.46C1864.87 1075.63 1854.11 1065.74 1843.18 1056.32C1840.36 1053.89 1837.45 1051.57 1834.44 1049.38C1834.63 1049.26 1834.74 1049.2 1834.75 1049.2C1834.85 1049.19 1834.94 1049.15 1835.02 1049.09C1835.09 1049.03 1835.15 1048.94 1835.17 1048.84C1835.19 1048.75 1835.18 1048.65 1835.14 1048.56C1835.1 1048.47 1835.04 1048.4 1834.95 1048.35C1831.84 1046.6 1828.96 1044.54 1826.33 1042.17C1825.31 1041.26 1823.64 1040.75 1822.44 1039.67C1818.59 1036.22 1815.01 1032.91 1811.7 1029.74C1811.36 1029.41 1811.16 1028.96 1811.16 1028.49C1811.15 1028.01 1811.32 1027.55 1811.65 1027.21C1821.55 1016.78 1830.94 1006.17 1839.83 995.38C1858.41 972.85 1876.24 947.86 1889.7 932.69C1902.72 918.01 1915.54 902.253 1928.17 885.42C1929.42 883.747 1930.37 882.293 1931 881.06Z" fill="#70311E"/>
<path d="M1232.03 883.69L1229.89 889.54C1229.75 889.373 1229.62 889.277 1229.5 889.25L1232.03 883.69Z" fill="#B0462E"/>
<path d="M1229.5 889.25C1229.62 889.277 1229.75 889.373 1229.89 889.54L1225.38 900.79C1225.21 900.363 1225.18 899.933 1225.3 899.5L1229.5 889.25Z" fill="#EC5634"/>
<path d="M1225.3 899.5C1225.18 899.933 1225.21 900.363 1225.38 900.79C1225.13 900.917 1224.97 901.14 1224.92 901.46L1224.29 902C1224.22 901.08 1224.55 900.247 1225.3 899.5Z" fill="#B0462E"/>
<path d="M1224.92 901.46C1224.41 903.68 1223.54 905.613 1222.29 907.26L1224.29 902L1224.92 901.46Z" fill="#EC5634"/>
<path d="M1225.3 910.85C1224.89 911.717 1224.31 912.183 1223.54 912.25C1223.77 911.443 1224.35 910.977 1225.3 910.85Z" fill="#EC5634"/>
<path d="M398.97 390.86C393.183 385.78 386.553 382.377 379.08 380.65C378.767 380.577 378.593 380.703 378.56 381.03C377.459 392.062 376.09 403.475 374.688 415.166C372.676 431.94 370.596 449.286 369.14 466.9C368.951 469.189 368.77 471.484 368.589 473.781C368.215 478.52 367.841 483.269 367.39 487.99C367.937 490.67 367.84 493.26 367.1 495.76C367.007 496.227 366.903 496.36 366.79 496.16C367.303 498.62 367.113 500.913 366.22 503.04L365.95 504.22L365.28 515.04L363.35 538.28L362.83 542.14C363.27 544.833 363.097 547.41 362.31 549.87L362.19 550.76C362.37 551.927 362.293 553 361.96 553.98L361.96 558.4C361.96 558.82 361.893 558.83 361.76 558.43L361.64 558.09C361.6 557.97 361.58 557.973 361.58 558.1C361.473 562.733 361.253 567.367 360.92 572C360.86 572.873 360.573 573.79 360.06 574.75L359.61 576.44C359.963 578.527 359.853 580.517 359.28 582.41L358.97 584.75C359.46 587.69 359.169 589.907 358.858 592.274C358.668 593.723 358.47 595.228 358.44 596.99C358.413 598.657 358.103 601.603 357.51 605.83C357.355 606.926 357.274 608.174 357.188 609.494C357.023 612.015 356.842 614.799 356.1 617.28L355.9 618.21L355.55 625.52C354.977 633.42 354.367 641.33 353.72 649.25C353.7 649.497 353.507 649.687 353.14 649.82L352.87 652.15C353.123 653.15 354.34 653.173 356.52 652.22C359.773 650.793 363.1 649.567 366.5 648.54C366.787 648.3 367.117 648.19 367.49 648.21C367.57 647.977 367.747 647.92 368.02 648.04C369.027 646.787 370.357 646.263 372.01 646.47L379.79 644.54L385.3 642.88L388.61 642C388.277 641.94 388.373 641.853 388.9 641.74L396.33 638.95L397.03 638.96C397.29 638.96 397.44 639.087 397.48 639.34L397.72 640.72C398.613 644.42 398.907 648.277 398.6 652.29L398.79 656.25C399.31 661.623 399.08 666.974 398.1 672.3L396.84 682.2L396.36 688.07L396.14 688.72C396.393 689.92 396.327 691.007 395.94 691.98C396.168 693.404 395.884 694.641 395.62 695.787C395.098 698.061 394.657 699.976 398.46 702.29L407 709.79C408.573 710.443 409.723 711.533 410.45 713.06C421.943 723.56 433.523 735.643 445.19 749.31C456.003 761.99 464.037 775.79 469.29 790.71L470.95 794.81L472.3 797.68L474.34 803.7C474.813 804.1 475.02 804.617 474.96 805.25C475.573 808.55 476.477 811.17 477.67 813.11C478.957 814.883 479.553 816.597 479.46 818.25C479.473 818.397 479.563 818.477 479.73 818.49C479.723 818.377 479.727 818.263 479.74 818.15C479.743 818.134 479.751 818.119 479.764 818.107C479.776 818.096 479.791 818.089 479.808 818.086C479.824 818.084 479.841 818.087 479.856 818.095C479.871 818.103 479.882 818.115 479.89 818.13L481.49 822.57L482.04 824C483.22 825.373 483.867 826.88 483.98 828.52L485.26 831.21C486.56 832.517 487.227 834.04 487.26 835.78L487.97 837.05C488.87 837.577 489.17 838.247 488.87 839.06L496 851.77C496.913 852.343 497.333 853.083 497.26 853.99C497.613 853.957 497.8 854.1 497.82 854.42L501.45 860.02C501.89 860.227 502.073 860.7 502 861.44C503.527 862.733 504.663 864.253 505.41 866C505.543 866.313 505.763 866.533 506.07 866.66C506.37 866.787 506.597 866.987 506.75 867.26C507.637 868 508.047 868.747 507.98 869.5C520.607 885.553 534.62 900.303 550.02 913.75C551.68 914.303 552.83 915.317 553.47 916.79L562.29 923.75L562.288 923.835L562.287 923.928L562.285 924.065L562.284 924.076C562.273 924.851 562.264 925.515 561.93 926.28C554.765 942.935 549.865 957.332 544.717 972.46C543.643 975.616 542.558 978.803 541.44 982.05C522.27 963 505.27 940.12 490.59 917.92C490.197 917.327 489.35 916.42 488.05 915.2C483.187 910.634 478.562 906.255 474.105 902.035C451.956 881.062 433.947 864.01 411.42 847.36C398.166 825.566 386.321 802.653 374.533 779.851L374.525 779.837L374.524 779.834L374.518 779.823C370.355 771.77 366.199 763.731 361.99 755.76C351.178 735.282 341.736 711.617 332.74 689.067L332.198 687.708C331.888 686.931 331.578 686.155 331.269 685.38L330.31 682.98C327.503 675.96 325.993 669.613 325.78 663.94C325.367 652.673 325.667 632.463 326.68 603.31C327.52 579.07 330.397 555.07 335.31 531.31C338.723 514.777 341.783 498.2 344.844 481.62C346.671 471.725 348.498 461.829 350.4 451.94C354.34 431.493 357.21 418.263 359.01 412.25C360.444 407.473 361.806 402.65 363.171 397.818C366.447 386.213 369.738 374.56 374.08 363.39C380.867 345.957 387.763 328.177 394.77 310.05C395.15 309.07 395.86 308.643 396.9 308.77C397.927 308.903 398.523 309.807 398.69 311.48C399.33 317.913 399.947 326.833 400.54 338.24C400.73 341.858 398.507 342.041 396.06 342.244C395.415 342.297 394.756 342.351 394.12 342.47C393.787 342.53 393.627 342.73 393.64 343.07C393.707 344.897 393.813 346.29 393.96 347.25C396.087 361.17 398.083 375.107 399.95 389.06C400.07 389.987 399.743 390.587 398.97 390.86Z" fill="#1B191D"/>
<path d="M469.29 790.71C470.303 791.21 470.857 792.577 470.95 794.81L469.29 790.71Z" fill="#1B191D"/>
<path d="M398.396 390.364C398.588 390.528 398.78 390.693 398.97 390.86C399.031 390.838 399.09 390.815 399.146 390.789C398.897 390.648 398.647 390.506 398.396 390.364Z" fill="#1B191D"/>
<path d="M390.142 384.75C389.749 384.542 389.354 384.341 388.955 384.145C386.419 382.865 384.075 381.771 382.181 381.034L382.166 381.028L382.151 381.023C380.536 380.513 377.753 379.856 374.615 379.528C372.676 379.325 370.587 379.246 368.545 379.409C370.23 373.999 372.039 368.641 374.08 363.39C380.867 345.957 387.763 328.177 394.77 310.05C395.15 309.07 395.86 308.643 396.9 308.77C397.927 308.903 398.523 309.807 398.69 311.48C399.33 317.913 399.947 326.833 400.54 338.24C400.73 341.858 398.507 342.041 396.06 342.244C395.415 342.297 394.756 342.351 394.12 342.47C393.787 342.53 393.627 342.73 393.64 343.07C393.707 344.897 393.813 346.29 393.96 347.25C396.087 361.17 398.083 375.107 399.95 389.06C400 389.446 399.972 389.776 399.867 390.048C396.712 388.254 393.313 386.382 390.142 384.75Z" fill="#70311E"/>
<path d="M504.044 863.613C503.466 862.829 502.784 862.105 502 861.44C502.073 860.7 501.89 860.227 501.45 860.02L497.82 854.42C497.8 854.1 497.613 853.957 497.26 853.99C497.333 853.083 496.913 852.343 496 851.77L488.87 839.06C489.17 838.247 488.87 837.577 487.97 837.05L487.26 835.78C487.227 834.04 486.56 832.517 485.26 831.21L483.98 828.52C483.867 826.88 483.22 825.373 482.04 824L481.49 822.57L479.89 818.13C479.882 818.115 479.871 818.103 479.856 818.095C479.841 818.087 479.824 818.084 479.808 818.086C479.791 818.089 479.776 818.096 479.764 818.107C479.751 818.119 479.743 818.134 479.74 818.15C479.727 818.263 479.723 818.377 479.73 818.49C479.563 818.477 479.473 818.397 479.46 818.25C479.553 816.597 478.957 814.883 477.67 813.11C476.477 811.17 475.573 808.55 474.96 805.25C475.02 804.617 474.813 804.1 474.34 803.7L472.3 797.68L470.95 794.81C470.857 792.577 470.303 791.21 469.29 790.71C464.037 775.79 456.003 761.99 445.19 749.31C433.523 735.643 421.943 723.56 410.45 713.06C409.723 711.533 408.573 710.443 407 709.79L398.46 702.29C394.657 699.976 395.098 698.061 395.62 695.787C395.884 694.641 396.168 693.404 395.94 691.98C396.327 691.007 396.393 689.92 396.14 688.72L396.36 688.07L396.84 682.2L398.1 672.3C399.08 666.974 399.31 661.623 398.79 656.25L398.6 652.29C398.907 648.277 398.613 644.42 397.72 640.72L397.48 639.34C397.44 639.087 397.29 638.96 397.03 638.96L396.33 638.95L388.9 641.74C388.373 641.853 388.277 641.94 388.61 642L385.3 642.88L379.79 644.54L372.01 646.47C370.357 646.263 369.027 646.787 368.02 648.04C367.747 647.92 367.57 647.977 367.49 648.21C367.117 648.19 366.787 648.3 366.5 648.54C363.1 649.567 359.773 650.793 356.52 652.22C354.34 653.173 353.123 653.15 352.87 652.15L353.14 649.82C353.507 649.687 353.7 649.497 353.72 649.25C354.367 641.33 354.977 633.42 355.55 625.52L355.9 618.21L356.1 617.28C356.842 614.799 357.023 612.015 357.188 609.494C357.274 608.174 357.355 606.926 357.51 605.83C358.103 601.603 358.413 598.657 358.44 596.99C358.47 595.228 358.668 593.723 358.858 592.274C359.169 589.907 359.46 587.69 358.97 584.75L359.28 582.41C359.853 580.517 359.963 578.527 359.61 576.44L360.06 574.75C360.573 573.79 360.86 572.873 360.92 572C361.253 567.367 361.473 562.733 361.58 558.1C361.58 557.973 361.6 557.97 361.64 558.09L361.76 558.43C361.893 558.83 361.96 558.82 361.96 558.4L361.96 553.98C362.293 553 362.37 551.927 362.19 550.76L362.31 549.87C363.097 547.41 363.27 544.833 362.83 542.14L363.35 538.28L365.28 515.04L365.95 504.22L366.22 503.04C367.113 500.913 367.303 498.62 366.79 496.16C366.903 496.36 367.007 496.227 367.1 495.76C367.84 493.26 367.937 490.67 367.39 487.99C367.841 483.269 368.215 478.52 368.589 473.781C368.77 471.484 368.951 469.189 369.14 466.9C370.596 449.286 372.676 431.94 374.688 415.166C376.085 403.516 377.45 392.141 378.548 381.145C377.339 380.899 375.964 380.675 374.51 380.522C372.477 380.309 370.306 380.24 368.226 380.441C366.451 386.201 364.809 392.016 363.171 397.818C361.806 402.65 360.444 407.473 359.01 412.25C357.21 418.263 354.34 431.493 350.4 451.94C348.498 461.829 346.671 471.725 344.844 481.62C341.783 498.2 338.723 514.777 335.31 531.31C330.397 555.07 327.52 579.07 326.68 603.31C325.667 632.463 325.367 652.673 325.78 663.94C325.993 669.613 327.503 675.96 330.31 682.98L331.269 685.38C331.578 686.155 331.888 686.931 332.198 687.708L332.74 689.067C341.736 711.617 351.178 735.282 361.99 755.76C366.199 763.731 370.355 771.77 374.518 779.823L374.524 779.834L374.525 779.837L374.533 779.851C386.321 802.653 398.166 825.566 411.42 847.36C433.947 864.01 451.956 881.062 474.105 902.035C476.51 904.312 478.964 906.635 481.478 909.009C481.833 908.293 482.191 907.573 482.55 906.851L482.655 906.64C489.407 893.051 496.667 878.441 504.044 863.613Z" fill="#1B191D"/>
<path d="M482.238 909.727C482.637 908.922 483.039 908.113 483.443 907.301L483.538 907.109C490.216 893.67 497.39 879.233 504.683 864.573C504.957 865.031 505.199 865.506 505.41 866C505.543 866.313 505.763 866.533 506.07 866.66C506.37 866.787 506.597 866.987 506.75 867.26C507.637 868 508.047 868.747 507.98 869.5C520.607 885.553 534.62 900.303 550.02 913.75C551.68 914.303 552.83 915.317 553.47 916.79L562.29 923.75L562.288 923.835L562.287 923.928L562.285 924.065L562.284 924.076C562.273 924.851 562.264 925.515 561.93 926.28C554.765 942.935 549.865 957.332 544.717 972.46C543.643 975.616 542.558 978.803 541.44 982.05C522.27 963 505.27 940.12 490.59 917.92C490.197 917.327 489.35 916.42 488.05 915.2C486.075 913.345 484.139 911.521 482.238 909.727Z" fill="#1B191D"/>
</g>
<defs>
<clipPath id="clip0_1827_312">
<rect width="1931" height="1086" fill="white"/>
</clipPath>
</defs>
</svg>
