<svg width="24" height="24" viewBox="0 0 24 24" fill="none" xmlns="http://www.w3.org/2000/svg">
<path d="M14.4776 13.4583C14.3794 13.6432 14.2031 13.7357 13.9489 13.7357C13.7005 13.7357 13.5214 13.6432 13.4116 13.4583C13.3076 13.2677 13.2556 12.9297 13.2556 12.4443C13.2556 11.9648 13.3076 11.6297 13.4116 11.439C13.5214 11.2483 13.7005 11.153 13.9489 11.153C14.2031 11.153 14.3794 11.2483 14.4776 11.439C14.5758 11.6239 14.6249 11.959 14.6249 12.4443C14.6249 12.9354 14.5758 13.2734 14.4776 13.4583Z"/>
<path fill-rule="evenodd" clip-rule="evenodd" d="M2 11.9563C2 6.43348 6.47715 1.95633 12 1.95633C17.5229 1.95633 22 6.43348 22 11.9563C22 17.4792 17.5229 21.9563 12 21.9563H3.86159C2.72736 21.9563 2.00986 20.7497 2.53406 19.7579L3.38777 17.9211C3.5333 17.6079 3.50372 17.2438 3.33127 16.9446C2.48451 15.4759 2 13.7716 2 11.9563ZM12.0509 14.897C12.2994 15.1397 12.5854 15.3188 12.9089 15.4343C13.2325 15.5441 13.5791 15.599 13.9489 15.599C14.44 15.599 14.8849 15.4979 15.2836 15.2957C15.688 15.0877 16.0087 14.7526 16.2456 14.2903C16.4882 13.8281 16.6096 13.2128 16.6096 12.4443C16.6096 11.6759 16.4882 11.0634 16.2456 10.607C16.0087 10.1448 15.688 9.80966 15.2836 9.60166C14.8849 9.39366 14.44 9.28966 13.9489 9.28966C13.5791 9.28966 13.2325 9.34744 12.9089 9.463C12.5854 9.57277 12.2994 9.75189 12.0509 10.0003C11.8082 10.2488 11.6176 10.5752 11.4789 10.9797C11.3402 11.3783 11.2709 11.8666 11.2709 12.4443C11.2709 13.0279 11.3402 13.5219 11.4789 13.9263C11.6176 14.325 11.8082 14.6486 12.0509 14.897ZM8.37333 11.361V15.5123H10.3147V10.763L10.4013 9.89633L10.3147 9.37633L7.33333 9.723V11.361H8.37333Z"/>
</svg>
