<svg width="24" height="24" viewBox="0 0 24 24" fill="none" xmlns="http://www.w3.org/2000/svg">
<path fill-rule="evenodd" clip-rule="evenodd" d="M1.21336 5.38222C1.34655 5.16641 1.62069 5.01058 1.99267 4.93926C2.30379 4.87962 2.90118 4.89762 3.27733 4.978C4.89401 5.32345 6.93958 6.69186 9.27092 8.98745C9.96905 9.6749 10.8536 10.6103 11.2586 11.0893L11.3944 11.25V11.1335C11.3944 10.8504 11.6339 10.5706 11.9117 10.5289C12.2695 10.4751 12.626 10.7737 12.626 11.127C12.626 11.2294 12.6527 11.2069 13.0018 10.8108C13.2086 10.5763 13.6364 10.1134 13.9527 9.78199C17.0638 6.52267 19.8255 4.77406 21.661 4.90146C22.215 4.93991 22.474 5.03764 22.7323 5.30575L22.8591 5.43728L22.8577 5.78879C22.8552 6.37826 22.7094 6.70564 22.2059 7.25209C21.6751 7.82814 21.3724 8.29384 21.1721 8.84275C21.0197 9.26031 20.9407 9.6404 20.8328 10.4763C20.6933 11.5575 20.6111 11.8003 20.3197 11.9937C20.0984 12.1405 19.7016 12.292 19.1632 12.4354C18.9247 12.499 18.689 12.572 18.6394 12.5978C18.552 12.6432 18.5616 12.6507 18.9291 12.8242C19.5474 13.1161 19.9166 13.4389 20.1421 13.8844C20.5479 14.6865 20.3558 15.7681 19.6123 16.8675C19.3132 17.3098 18.5492 18.0762 18.1139 18.3708C16.81 19.2532 15.7105 19.3374 14.9143 18.6159C14.3863 18.1374 13.5205 16.953 12.6958 15.581L12.4141 15.1122L12.3942 15.2695C12.3832 15.3559 12.3558 15.8021 12.3332 16.261C12.3106 16.7199 12.2733 17.136 12.2504 17.1857C12.1932 17.3099 12.0428 17.378 11.9249 17.3331C11.7505 17.2667 11.7298 17.1828 11.6872 16.3698C11.6651 15.9509 11.6375 15.498 11.6258 15.3634L11.6045 15.1187L11.2527 15.6899C10.3293 17.1895 9.51068 18.2868 9.00804 18.6987C8.55355 19.0712 8.02893 19.1849 7.38169 19.051C5.71092 18.7054 3.90751 16.7982 3.67589 15.1319C3.52962 14.0795 4.08786 13.216 5.20999 12.7591C5.32492 12.7123 5.41327 12.6568 5.40628 12.6359C5.39929 12.6149 5.2645 12.5598 5.10675 12.5134C4.01781 12.1936 3.67426 12.0477 3.5168 11.8386C3.38118 11.6585 3.28508 11.2727 3.18691 10.514C3.04235 9.39685 2.934 8.97925 2.63396 8.38289C2.4639 8.04481 2.2137 7.70368 1.7942 7.23798C1.62427 7.04931 1.43312 6.79709 1.36948 6.67749C1.14783 6.26105 1.06991 5.61467 1.21336 5.38222Z"/>
</svg>
