<svg width="24" height="24" viewBox="0 0 24 24" fill="none" xmlns="http://www.w3.org/2000/svg">
<path d="M3.81202 13.0657L3.04014 13.7015L3.81202 13.0657ZM20.1881 10.9343L19.4162 11.57L20.1881 10.9343ZM3.81202 10.9343L4.58391 11.57L3.81202 10.9343ZM20.1881 13.0657L19.4162 12.43L19.4162 12.43L20.1881 13.0657ZM18.2879 13.6827C17.9002 14.076 17.9048 14.7092 18.2982 15.0968C18.6915 15.4845 19.3247 15.4799 19.7123 15.0866L18.2879 13.6827ZM10.8445 5.09163C10.299 5.17756 9.92637 5.68948 10.0123 6.23504C10.0982 6.7806 10.6102 7.1532 11.1557 7.06728L10.8445 5.09163ZM12.0001 17C10.4743 17 8.98621 16.3224 7.65919 15.3677C6.34006 14.4186 5.26413 13.2558 4.58391 12.43L3.04014 13.7015C3.78 14.5998 4.98022 15.9041 6.49116 16.9912C7.9942 18.0725 9.89012 19 12.0001 19V17ZM12.0001 7C13.5259 7 15.0139 7.6776 16.3409 8.63233C17.66 9.58138 18.736 10.7442 19.4162 11.57L20.96 10.2985C20.2201 9.40025 19.0199 8.0959 17.5089 7.00885C16.0059 5.92747 14.11 5 12.0001 5V7ZM4.58391 12.43C4.37161 12.1722 4.37161 11.8278 4.58391 11.57L3.04014 10.2985C2.21953 11.2948 2.21953 12.7052 3.04014 13.7015L4.58391 12.43ZM20.96 13.7015C21.7806 12.7052 21.7806 11.2948 20.96 10.2985L19.4162 11.57C19.6285 11.8278 19.6285 12.1722 19.4162 12.43L20.96 13.7015ZM19.4162 12.43C19.116 12.7945 18.7354 13.2286 18.2879 13.6827L19.7123 15.0866C20.2084 14.5833 20.6287 14.1037 20.96 13.7015L19.4162 12.43ZM15.7974 15.7366C14.6079 16.4956 13.3171 17 12.0001 17V19C13.8264 19 15.4909 18.3046 16.8731 17.4227L15.7974 15.7366ZM4.58391 11.57C5.30778 10.6912 6.47668 9.43461 7.90758 8.45823L6.7803 6.80619C5.13173 7.9311 3.82519 9.34539 3.04014 10.2985L4.58391 11.57ZM11.1557 7.06728C11.4354 7.02323 11.7169 7 12.0001 7V5C11.6072 5 11.2215 5.03226 10.8445 5.09163L11.1557 7.06728Z"/>
<path d="M3 3L21 21" stroke="black" stroke-width="2" stroke-linecap="round" stroke-linejoin="round"/>
<path d="M11.2235 14.8977C10.7148 14.7615 10.251 14.4937 9.87863 14.1213C9.50626 13.7489 9.23847 13.2851 9.10217 12.7764" stroke="black" stroke-width="2" stroke-linecap="round"/>
</svg>
