<svg width="24" height="24" viewBox="0 0 24 24" fill="none" xmlns="http://www.w3.org/2000/svg">
<path d="M5.85259 5.52716C5.88212 6.2284 5.92867 7.13308 6.00027 8.10561C6.06655 9.0058 6.15211 9.92643 6.25885 10.7825L11.0892 9.60548L11.8287 5.52716H5.85259Z"/>
<path d="M12.1712 5.52716L12.9107 9.60548L17.7009 10.7727C17.8155 9.91828 17.9081 8.99814 17.9803 8.09682C18.0579 7.12822 18.109 6.2269 18.1417 5.52716H12.1712Z"/>
<path d="M17.6472 11.156L12.9107 12.3102L11.9999 17.3328L11.0892 12.3102L6.30583 11.1446C6.44179 12.1518 6.60891 13.0477 6.81056 13.6833C6.86335 13.7404 6.93416 13.8115 7.02504 13.8967C7.21815 14.0777 7.47148 14.294 7.77364 14.537C8.37693 15.0222 9.12349 15.5729 9.86112 16.0977C10.5959 16.6205 11.3084 17.1082 11.8381 17.4657L11.9468 17.5389L12.0426 17.473C12.5625 17.1149 13.2636 16.6263 13.9918 16.1021C14.7222 15.5764 15.469 15.0226 16.0843 14.5328C16.5936 14.1273 16.9378 13.8234 17.1207 13.6384C17.3293 13.0135 17.5038 12.1395 17.6472 11.156Z"/>
<path fill-rule="evenodd" clip-rule="evenodd" d="M2 2H22C22 2 21.8403 11.8475 20.4093 15.5576C19.182 17.1338 11.9406 22 11.9406 22C11.9406 22 4.51531 17.1338 3.47193 15.5576C2.12723 11.8475 2 2 2 2ZM3.03703 2.78436H20.9678L20.9362 4.18664L19.5652 4.15576C20.9362 4.18664 20.9362 4.18664 20.9362 4.18664L20.9357 4.21097L20.9339 4.27664C20.9324 4.33371 20.93 4.4169 20.9266 4.52326C20.9198 4.73593 20.9089 5.04152 20.8924 5.41644C20.8595 6.16545 20.8041 7.1952 20.7143 8.3158C20.5408 10.4828 20.2233 13.2317 19.6021 14.8424L19.5291 15.0315L19.4046 15.1914C19.0578 15.6369 18.4137 16.1841 17.7926 16.6786C17.1275 17.2081 16.3403 17.7911 15.5942 18.3282C14.8459 18.8668 14.1283 19.3669 13.5985 19.7318C13.3333 19.9145 13.1146 20.0637 12.9618 20.1675C12.8854 20.2194 12.8255 20.2599 12.7844 20.2877L12.7208 20.3306C12.7208 20.3306 12.7204 20.3309 11.9555 19.1926C11.2037 20.3396 11.2036 20.3395 11.2036 20.3395L11.2023 20.3387L11.1862 20.3281L11.1377 20.2961C11.0955 20.2683 11.0339 20.2276 10.9556 20.1756C10.7989 20.0716 10.5748 19.9221 10.3037 19.7391C9.76217 19.3736 9.02995 18.8726 8.27103 18.3326C7.51494 17.7946 6.71876 17.2084 6.05468 16.6744C5.72315 16.4077 5.41164 16.1438 5.1493 15.8979C4.90523 15.6691 4.63487 15.393 4.4448 15.1059L4.35467 14.9697L4.29903 14.8162C3.71842 13.2143 3.42449 10.4748 3.26488 8.30701C3.18245 7.18753 3.1323 6.1587 3.10274 5.41031C3.08795 5.03572 3.07827 4.73043 3.07228 4.51802C3.06928 4.41179 3.0672 4.32873 3.06586 4.27178L3.06439 4.20628L3.06391 4.1828C3.06391 4.1828 3.06389 4.18212 4.43504 4.15576L3.06391 4.1828L3.03703 2.78436ZM11.9555 19.1926L12.7208 20.3306L11.965 20.8385L11.2036 20.3395L11.9555 19.1926Z"/>
</svg>
