<svg width="36" height="23" viewBox="0 0 36 23" fill="none" xmlns="http://www.w3.org/2000/svg">
<path d="M20.9479 5.48661C21.5076 6.47687 22.0037 7.50321 22.2769 8.41213C23.8159 8.41213 25.3707 8.66676 26.7107 8.98408C28.777 5.93341 30.5751 2.23052 30.4616 0C27.9077 0.290618 23.8784 2.86849 20.9479 5.48661Z" fill="white"/>
<path d="M31.0277 9.2901C30.8534 9.7619 30.5553 10.2048 30.5553 10.2048C30.5553 10.2048 27.6954 14.9892 24.9116 16.521C25.0206 16.9648 25.1156 17.4327 25.1986 17.9112C29.1741 16.3803 34.6265 11.7348 36 9.17401C36 9.17401 33.771 9.18616 31.0277 9.2901Z" fill="white"/>
<path d="M9.8676 8.91799C7.82019 5.88016 6.04877 2.21442 6.16146 0C8.59553 0.276997 12.3705 2.63205 15.2565 5.11921C14.6758 6.14137 14.1262 7.27396 13.7508 8.41213C12.5289 8.41213 11.1472 8.63217 9.8676 8.91799Z" fill="white"/>
<path d="M4.97222 9.29006C5.14648 9.7619 5.44464 10.2047 5.44464 10.2047C5.44464 10.2047 8.30461 14.9891 11.0883 16.5209C10.9793 16.9647 10.8843 17.4326 10.8014 17.9112C6.82593 16.3802 1.37332 11.7347 0 9.17393C0 9.17393 2.22887 9.1861 4.97222 9.29006Z" fill="white"/>
<path d="M17.9991 3.10005C17.9991 3.10005 20.7913 6.68075 21.5448 9.1876C24.9407 9.1876 28.43 10.6786 28.43 10.6786C28.43 10.6786 26.0514 14.6579 23.7361 15.9319C24.4458 18.8229 24.4458 22.9409 24.4458 22.9409C24.4458 22.9409 20.4633 21.9466 17.9991 20.1001C16.2289 21.5301 11.5524 22.9409 11.5524 22.9409C11.5524 22.9409 11.5524 18.2675 12.2621 15.9319C9.35672 13.5472 7.56814 10.6786 7.56814 10.6786C7.56814 10.6786 11.5524 9.1876 14.4534 9.1876C15.4654 6.11967 17.9991 3.10005 17.9991 3.10005Z" fill="white"/>
</svg>
