<svg width="26" height="28" viewBox="0 0 26 28" fill="none" xmlns="http://www.w3.org/2000/svg">
<path fill-rule="evenodd" clip-rule="evenodd" d="M8.03187 3.50845C6.69504 2.48141 5.2878 0.861642 5.03446 0C3.77579 1.83179 3.40365 4.64633 3.5034 6.90372C1.35709 9.30759 0 12.4224 0 15.6277C0 16.269 0.048739 16.8989 0.142836 17.5138C0.873922 18.8473 2.70079 20.0824 4.07323 20.8673C5.90348 21.914 7.93109 22.1078 9.54074 20.8265L9.55807 20.8128L9.57666 20.8008C10.1507 20.4326 10.4921 19.7289 10.5798 18.9614C10.6688 18.1822 10.4814 17.4769 10.1694 17.1333L10.1377 17.0984L10.1143 17.0574C9.82388 16.5501 9.25056 16.3628 8.63259 16.5763C8.01462 16.7899 7.35425 17.4219 7.08689 18.5643L6.95771 19.116L6.45948 18.8462C5.56978 18.3646 5.19634 17.4984 5.17324 16.6366C5.15056 15.7861 5.463 14.8967 5.99392 14.258L6.6595 14.8113C6.26255 15.2887 6.02139 15.9733 6.03843 16.6135C6.05012 17.0474 6.17732 17.4395 6.43764 17.74C6.83995 16.7087 7.55963 16.0315 8.34987 15.7583C9.27676 15.438 10.3031 15.6907 10.8418 16.5872C11.3599 17.1877 11.5423 18.1615 11.4396 19.0596C11.3344 19.981 10.9143 20.9606 10.0628 21.5171C8.07998 23.0827 5.64866 22.7652 3.6436 21.6186C2.79827 21.1351 2.00915 20.4952 1.33553 19.7618C3.03675 24.5621 7.61696 28.0001 13.0002 28.0001C18.3836 28.0001 22.9638 24.5619 24.6651 19.7616C23.9913 20.495 23.202 21.1351 22.3567 21.6186C20.3517 22.7652 17.9203 23.0827 15.9375 21.5171C15.086 20.9606 14.6659 19.981 14.5607 19.0596C14.458 18.1615 14.6406 17.1877 15.1586 16.5872C15.6974 15.6907 16.7236 15.438 17.6506 15.7583C18.4408 16.0315 19.1604 16.7087 19.5627 17.74C19.8231 17.4395 19.9503 17.0474 19.9619 16.6135C19.9791 15.9733 19.7378 15.2887 19.341 14.8113L20.0064 14.258C20.5375 14.8967 20.8498 15.7861 20.8271 16.6366C20.804 17.4984 20.4305 18.3646 19.5408 18.8462L19.0426 19.116L18.9134 18.5643C18.6461 17.4219 17.9857 16.7899 17.3679 16.5763C16.7499 16.3628 16.1764 16.5501 15.886 17.0574L15.8626 17.0984L15.8309 17.1333C15.5189 17.4769 15.3315 18.1822 15.4206 18.9614C15.5083 19.7289 15.8496 20.4326 16.4238 20.8008L16.4424 20.8128L16.4596 20.8265C18.0692 22.1078 20.097 21.914 21.9271 20.8673C23.2997 20.0824 24.9612 18.8472 25.6922 17.5136C25.7863 16.8988 25.8351 16.269 25.8351 15.6277C25.8351 12.4613 24.5462 9.38319 22.4831 6.99154C22.5965 4.71973 22.2312 1.85562 20.9562 0C20.7024 0.862996 19.2912 2.4865 17.9524 3.51329C16.4113 2.78582 14.7325 2.37312 13.0002 2.37312C11.2718 2.37312 9.58603 2.78399 8.03187 3.50845ZM18.4625 6.44058L14.6537 7.71286C14.6537 7.71286 16.1253 9.66792 17.5103 9.05234C18.4647 8.62821 18.4632 7.17065 18.4625 6.49221V6.49213V6.44058ZM11.3466 7.71286L7.53779 6.44058V6.49255V6.49263C7.53709 7.17093 7.53557 8.62821 8.48989 9.05234C9.87487 9.66792 11.3466 7.71286 11.3466 7.71286ZM10.5736 13.597C11.081 13.2884 11.6461 13.0546 12.257 12.914C13.6776 12.5871 15.0959 12.8223 16.277 13.4734C15.4796 10.7941 13.812 8.96191 12.3779 9.29195C11.1498 9.57467 10.461 11.3584 10.5736 13.597Z" fill="white"/>
</svg>
