<svg width="30" height="30" viewBox="0 0 30 30" fill="none" xmlns="http://www.w3.org/2000/svg">
<path fill-rule="evenodd" clip-rule="evenodd" d="M0 15C0 6.71573 6.71573 0 15 0C23.2843 0 30 6.71573 30 15C30 23.2843 23.2843 30 15 30C6.71573 30 0 23.2843 0 15ZM15 3C8.37259 3 3 8.37259 3 15C3 21.6274 8.37259 27 15 27C21.6274 27 27 21.6274 27 15C27 8.37259 21.6274 3 15 3Z" fill="#5E6069"/>
<path fill-rule="evenodd" clip-rule="evenodd" d="M15 7.5C15.8284 7.5 16.5 8.17157 16.5 9V13.5H21C21.8284 13.5 22.5 14.1716 22.5 15C22.5 15.8284 21.8284 16.5 21 16.5H16.5V21C16.5 21.8284 15.8284 22.5 15 22.5C14.1716 22.5 13.5 21.8284 13.5 21V16.5H9C8.17157 16.5 7.5 15.8284 7.5 15C7.5 14.1716 8.17157 13.5 9 13.5H13.5V9C13.5 8.17157 14.1716 7.5 15 7.5Z" fill="#5E6069"/>
</svg>