<svg width="33" height="32" viewBox="0 0 33 32" fill="none" xmlns="http://www.w3.org/2000/svg">
<path fill-rule="evenodd" clip-rule="evenodd" d="M9.11241 8C5.86682 8 3.37368 10.8746 3.83268 14.0876L5.19295 23.6095C5.66214 26.8938 8.47495 29.3333 11.7926 29.3333H21.2081C24.5258 29.3333 27.3386 26.8938 27.8078 23.6095L29.1681 14.0876C29.6271 10.8746 27.1339 8 23.8883 8H9.11241Z" fill="#5E6069"/>
<path fill-rule="evenodd" clip-rule="evenodd" d="M13.0964 2.80747C13.755 3.13679 14.022 3.93768 13.6927 4.59632L11.3075 9.3666C10.9782 10.0252 10.1773 10.2922 9.51867 9.96288C8.86003 9.63357 8.59307 8.83267 8.92238 8.17403L11.3075 3.40375C11.6368 2.74511 12.4377 2.47815 13.0964 2.80747Z" fill="#5E6069"/>
<path fill-rule="evenodd" clip-rule="evenodd" d="M19.9038 2.8074C20.5624 2.47808 21.3633 2.74505 21.6926 3.40369L24.0777 8.17397C24.4071 8.8326 24.1401 9.6335 23.4815 9.96282C22.8228 10.2921 22.0219 10.0252 21.6926 9.36653L19.3075 4.59626C18.9781 3.93762 19.2451 3.13672 19.9038 2.8074Z" fill="#5E6069"/>
</svg>