<svg width="33" height="32" viewBox="0 0 33 32" fill="none" xmlns="http://www.w3.org/2000/svg">
<path fill-rule="evenodd" clip-rule="evenodd" d="M9.83317 2.66675C6.15127 2.66675 3.1665 5.65152 3.1665 9.33341V22.6667C3.1665 26.3486 6.15127 29.3334 9.83317 29.3334H23.1665C26.8484 29.3334 29.8332 26.3486 29.8332 22.6667V9.33341C29.8332 5.65152 26.8484 2.66675 23.1665 2.66675H9.83317ZM17.8332 10.6667C17.8332 9.93037 17.2362 9.33341 16.4998 9.33341C15.7635 9.33341 15.1665 9.93037 15.1665 10.6667V21.3334C15.1665 22.0698 15.7635 22.6667 16.4998 22.6667C17.2362 22.6667 17.8332 22.0698 17.8332 21.3334V10.6667ZM11.1665 13.3334C11.9029 13.3334 12.4998 13.9304 12.4998 14.6667V21.3334C12.4998 22.0698 11.9029 22.6667 11.1665 22.6667C10.4301 22.6667 9.83317 22.0698 9.83317 21.3334V14.6667C9.83317 13.9304 10.4301 13.3334 11.1665 13.3334ZM21.8332 16.0001C22.5695 16.0001 23.1665 16.597 23.1665 17.3334V21.3334C23.1665 22.0698 22.5695 22.6667 21.8332 22.6667C21.0968 22.6667 20.4998 22.0698 20.4998 21.3334V17.3334C20.4998 16.597 21.0968 16.0001 21.8332 16.0001Z" fill="#5E6069"/>
</svg>
