<svg width="17" height="19" viewBox="0 0 17 19" fill="none" xmlns="http://www.w3.org/2000/svg">
<path fill-rule="evenodd" clip-rule="evenodd" d="M5.7424 0.0141119L5.69905 0.967936L6.7506 1.61262L7.24052 0.0814862C6.93541 0.022701 6.29579 -0.0246931 5.7424 0.0141119ZM5.24391 4.28014L2.02087 2.13783C2.02087 2.13783 2.36359 1.84074 2.91103 1.59479C3.45847 1.34884 3.99939 1.24893 3.99939 1.24893L5.24391 4.28014ZM2.87059 4.9282L9.07687 7.97427L7.03454 4.73618L9.90656 5.06814L8.93054 2.48294C13.0608 2.886 16.3072 7.00998 16.3072 12.0379C16.3072 12.2229 16.3029 12.4066 16.2941 12.589C13.6723 13.7949 11.958 15.2335 12.2713 16.088C12.2985 16.1623 12.3288 16.24 12.3599 16.3196L12.3599 16.3197C12.5765 16.875 12.8291 17.5228 12.327 17.752C11.0658 18.3278 9.69656 18.6432 8.26554 18.6432C6.83442 18.6432 5.46505 18.3277 4.20377 17.7519C3.70163 17.5226 3.95424 16.8749 4.17081 16.3196C4.20186 16.24 4.23218 16.1623 4.25942 16.0879C4.5726 15.2335 2.85862 13.795 0.236942 12.5892C0.2322 12.489 0.228716 12.3885 0.22649 12.2876C0.224748 12.2046 0.223877 12.1214 0.223877 12.0379C0.223877 9.21803 1.24506 6.68247 2.87059 4.9282ZM7.19883 11.3857C7.19883 12.6637 6.15748 13.6997 4.87281 13.6997C3.58815 13.6997 2.5468 12.6637 2.5468 11.3857C2.5468 10.1078 3.58815 9.07177 4.87281 9.07177C6.15748 9.07177 7.19883 10.1078 7.19883 11.3857ZM11.6582 13.6997C12.9428 13.6997 13.9842 12.6637 13.9842 11.3857C13.9842 10.1078 12.9428 9.07177 11.6582 9.07177C10.3735 9.07177 9.33216 10.1078 9.33216 11.3857C9.33216 12.6637 10.3735 13.6997 11.6582 13.6997ZM8.3599 13.5962L9.53675 17.2691C9.53675 17.2691 8.76193 17.4663 8.26545 17.4663C7.76906 17.4663 6.99424 17.2691 6.99424 17.2691L8.17109 13.5962C8.20041 13.5046 8.33058 13.5046 8.3599 13.5962Z" fill="#073736"/>
</svg>
