<svg width="56" height="65" viewBox="0 0 56 65" fill="none" xmlns="http://www.w3.org/2000/svg">
<path fill-rule="evenodd" clip-rule="evenodd" d="M19.2144 0.0491356L19.0635 3.37022L22.7248 5.61492L24.4306 0.283724C23.3683 0.0790419 21.1412 -0.0859779 19.2144 0.0491356ZM17.4788 14.9027L6.25657 7.44347C6.25657 7.44347 7.44988 6.40905 9.35598 5.55269C11.2621 4.69633 13.1455 4.34845 13.1455 4.34845L17.4788 14.9027ZM9.21558 17.159L30.8254 27.7652L23.7143 16.4906L33.7142 17.6464L30.3159 8.64509C44.6966 10.0487 56 24.4078 56 41.9142C56 42.5582 55.9848 43.198 55.9545 43.8329C46.8255 48.0318 40.8566 53.0407 41.9474 56.016C41.9717 56.0823 41.9993 56.147 42.0302 56.2103C42.965 58.1261 44.2671 60.8249 42.3333 61.7216C37.8891 63.7824 33.0553 64.913 28 64.913C22.9444 64.913 18.1101 63.7822 13.6656 61.7211C11.7318 60.8244 13.034 58.1258 13.9685 56.21C13.9994 56.1468 14.027 56.082 14.0512 56.0158C15.1417 53.0408 9.17383 48.0322 0.0454917 43.8336C0.0289799 43.485 0.0168488 43.135 0.00909835 42.7835C0.00303278 42.4947 0 42.2049 0 41.9142C0 32.0957 3.55566 23.2672 9.21558 17.159ZM24.2859 39.6434C24.2859 44.0931 20.66 47.7003 16.187 47.7003C11.714 47.7003 8.08809 44.0931 8.08809 39.6434C8.08809 35.1937 11.714 31.5865 16.187 31.5865C20.66 31.5865 24.2859 35.1937 24.2859 39.6434ZM39.8127 47.7003C44.2857 47.7003 47.9116 44.0931 47.9116 39.6434C47.9116 35.1937 44.2857 31.5865 39.8127 31.5865C35.3397 31.5865 31.7138 35.1937 31.7138 39.6434C31.7138 44.0931 35.3397 47.7003 39.8127 47.7003ZM28.3286 47.3399L32.4262 60.1286C32.4262 60.1286 29.7283 60.8152 27.9997 60.8152C26.2713 60.8152 23.5735 60.1286 23.5735 60.1286L27.6711 47.3399C27.7732 47.0211 28.2264 47.0211 28.3286 47.3399Z" fill="#3DFFFB"/>
</svg>
