<svg width="84" height="84" viewBox="0 0 84 84" fill="none" xmlns="http://www.w3.org/2000/svg">
<circle cx="42" cy="42" r="42" fill="#5562EA"/>
<mask id="mask0_204_810" style="mask-type:luminance" maskUnits="userSpaceOnUse" x="5" y="13" width="75" height="59">
<path d="M5 13H80V71.0986H5V13Z" fill="white"/>
</mask>
<g mask="url(#mask0_204_810)">
<path d="M56.2065 29.1352C53.7827 28.0231 51.1836 27.2037 48.466 26.7344C48.4165 26.7253 48.3671 26.748 48.3416 26.7932C48.0073 27.3878 47.6371 28.1634 47.3778 28.773C44.4549 28.3354 41.5469 28.3354 38.684 28.773C38.4246 28.1498 38.0409 27.3878 37.7051 26.7932C37.6796 26.7495 37.6302 26.7268 37.5807 26.7344C34.8646 27.2022 32.2655 28.0216 29.8402 29.1352C29.8192 29.1442 29.8012 29.1593 29.7893 29.1789C24.8592 36.5443 23.5087 43.7286 24.1712 50.8239C24.1742 50.8586 24.1937 50.8918 24.2207 50.9129C27.4734 53.3016 30.6242 54.7518 33.7165 55.713C33.766 55.7281 33.8184 55.71 33.8499 55.6692C34.5814 54.6703 35.2334 53.617 35.7925 52.5094C35.8255 52.4445 35.794 52.3676 35.7265 52.3419C34.6923 51.9496 33.7075 51.4712 32.7601 50.928C32.6852 50.8842 32.6792 50.7771 32.7481 50.7258C32.9475 50.5764 33.1469 50.4209 33.3373 50.264C33.3717 50.2354 33.4197 50.2293 33.4602 50.2474C39.6837 53.0889 46.4215 53.0889 52.5716 50.2474C52.6121 50.2278 52.6601 50.2339 52.696 50.2625C52.8864 50.4194 53.0858 50.5764 53.2866 50.7258C53.3555 50.7771 53.351 50.8842 53.2761 50.928C52.3288 51.4818 51.344 51.9496 50.3082 52.3404C50.2408 52.3661 50.2108 52.4445 50.2438 52.5094C50.8148 53.6155 51.4669 54.6687 52.1849 55.6677C52.2149 55.71 52.2688 55.7281 52.3183 55.713C55.4256 54.7518 58.5763 53.3016 61.829 50.9129C61.8575 50.8918 61.8755 50.8601 61.8785 50.8254C62.6714 42.6225 60.5504 35.4971 56.256 29.1804C56.2455 29.1593 56.2275 29.1442 56.2065 29.1352ZM36.7219 46.5036C34.8481 46.5036 33.3043 44.7834 33.3043 42.6708C33.3043 40.5582 34.8182 38.838 36.7219 38.838C38.6405 38.838 40.1694 40.5733 40.1394 42.6708C40.1394 44.7834 38.6255 46.5036 36.7219 46.5036ZM49.3579 46.5036C47.4842 46.5036 45.9403 44.7834 45.9403 42.6708C45.9403 40.5582 47.4542 38.838 49.3579 38.838C51.2765 38.838 52.8054 40.5733 52.7755 42.6708C52.7755 44.7834 51.2765 46.5036 49.3579 46.5036Z" fill="white"/>
</g>
</svg>
