<svg width="10" height="10" viewBox="0 0 10 10" fill="none" xmlns="http://www.w3.org/2000/svg">
<path fill-rule="evenodd" clip-rule="evenodd" d="M5.04045 0.833374C2.73926 0.833374 0.873779 2.69885 0.873779 5.00004C0.873779 7.30123 2.73926 9.16671 5.04045 9.16671C7.34163 9.16671 9.20711 7.30123 9.20711 5.00004C9.20711 2.69885 7.34163 0.833374 5.04045 0.833374ZM5.04045 2.91671C5.27056 2.91671 5.45711 3.10326 5.45711 3.33337V5.00004C5.45711 5.23016 5.27056 5.41671 5.04045 5.41671C4.81033 5.41671 4.62378 5.23016 4.62378 5.00004V3.33337C4.62378 3.10326 4.81033 2.91671 5.04045 2.91671ZM4.62378 6.66671C4.62378 6.43659 4.81033 6.25004 5.04045 6.25004H5.04461C5.27473 6.25004 5.46128 6.43659 5.46128 6.66671C5.46128 6.89683 5.27473 7.08337 5.04461 7.08337H5.04045C4.81033 7.08337 4.62378 6.89683 4.62378 6.66671Z" fill="white"/>
</svg>
