<svg width="30" height="30" viewBox="0 0 30 30" fill="none" xmlns="http://www.w3.org/2000/svg">
<path fill-rule="evenodd" clip-rule="evenodd" d="M15 0C6.71573 0 0 6.71573 0 15C0 23.2843 6.71573 30 15 30C23.2843 30 30 23.2843 30 15C30 6.71573 23.2843 0 15 0ZM20.9231 10.9744C21.1027 10.4354 20.9625 9.84113 20.5607 9.43938C20.159 9.03763 19.5647 8.89735 19.0257 9.07702L12.2757 11.327C11.8278 11.4763 11.4763 11.8278 11.327 12.2757L9.07702 19.0257C8.89735 19.5647 9.03763 20.159 9.43938 20.5607C9.84113 20.9625 10.4354 21.1027 10.9744 20.9231L17.7244 18.6731C18.1723 18.5238 18.5238 18.1723 18.6731 17.7244L20.9231 10.9744Z" fill="#5E6069"/>
</svg>