<svg width="24" height="25" viewBox="0 0 24 25" fill="none" xmlns="http://www.w3.org/2000/svg">
<path fill-rule="evenodd" clip-rule="evenodd" d="M22.2712 7.88692C22.2712 9.20517 19.4365 10.2738 15.9398 10.2738C12.4431 10.2738 9.60848 9.20517 9.60848 7.88692C9.60848 6.56866 12.4431 5.5 15.9398 5.5C19.4365 5.5 22.2712 6.56866 22.2712 7.88692ZM22.4139 9.25822C22.4129 9.25935 22.4123 9.25829 22.4123 9.25478C22.4123 9.19445 22.3604 9.14554 22.2963 9.14554C22.2658 9.14554 22.2381 9.15658 22.2174 9.17464C21.509 10.088 18.967 10.7639 15.9399 10.7639C14.0733 10.7639 12.3913 10.507 11.2098 10.0958C11.8196 10.9226 12.2023 11.9495 12.2727 13.06C13.3152 13.2935 14.5785 13.4303 15.9399 13.4303C19.5153 13.4303 22.4139 12.4872 22.4139 11.3239V9.25822ZM11.8336 15.7389C12.1083 15.0481 12.251 14.3549 12.2792 13.6833C13.3179 13.884 14.5309 13.9992 15.8266 13.9992C18.9299 13.9992 21.7069 13.3382 22.6606 12.4253C22.696 12.3995 22.7405 12.3842 22.7887 12.3842C22.9046 12.3842 22.9985 12.4726 22.9985 12.5817C22.9985 12.5858 22.9991 12.5883 23 12.5895L22.9999 13.9007L23.0001 13.9249C23.0001 15.3702 20.3884 16.3118 16.6688 16.3118C14.8229 16.3118 13.0411 16.1553 11.8336 15.7389ZM10.1285 18.2817C10.6623 17.7626 11.1318 17.1465 11.5103 16.4357C11.5475 16.366 11.5832 16.2961 11.6175 16.2262C12.795 16.6862 14.5373 16.9854 16.791 16.8965C19.0156 16.8965 20.9963 16.4498 22.27 15.831V17.0887H22.2698C22.27 17.0968 22.2701 17.1048 22.2701 17.1129C22.2701 18.7984 20.3952 19.4998 15.9388 19.4998C12.5164 19.2843 10.8633 18.8941 10.1285 18.2817ZM14.1858 7.23503L15.1133 8.45835L17.2257 8.47895L17.8439 7.23503L16.6154 7.54343L16.0049 6.71676L15.4408 7.5326L14.1858 7.23503ZM9.25991 14.6763C10.3528 11.7857 9.16223 9.00393 7.14063 8.32642C5.11903 7.64892 2.59427 9.44297 1.50142 12.3335C0.408569 15.2241 1.16147 18.1166 3.18307 18.7941C5.20467 19.4716 8.16706 17.5668 9.25991 14.6763ZM3.4634 13.8257L4.23537 11.7801L4.67251 13.017L6.23573 11.7798L5.86473 13.8004L7.21801 13.5972L5.53263 15.3675L3.4634 13.8257ZM4.59759 19.3885C7.04224 19.7239 9.72662 18.5419 11.0885 15.9845C12.59 13.165 11.4802 10.1466 9.29254 9.02709C9.03435 8.90522 8.76533 8.81708 8.48913 8.76094C10.1839 10.141 10.8122 12.9682 9.40466 15.6114C8.35547 17.5816 6.43433 18.9627 4.59759 19.3885Z" fill="black"/>
</svg>
