<svg width="65" height="44" viewBox="0 0 65 44" fill="none" xmlns="http://www.w3.org/2000/svg">
<path fill-rule="evenodd" clip-rule="evenodd" d="M62.8448 7.49041C62.8448 11.6273 54.4698 14.9808 44.1386 14.9808C33.8075 14.9808 25.4325 11.6273 25.4325 7.49041C25.4325 3.35357 33.8075 0 44.1386 0C54.4698 0 62.8448 3.35357 62.8448 7.49041ZM63.2668 11.7947C63.2648 11.7951 63.2638 11.7912 63.2638 11.7826C63.2638 11.5933 63.1103 11.4398 62.921 11.4398C62.8281 11.4398 62.7438 11.4767 62.6821 11.5367C60.5832 14.4001 53.0769 16.5186 44.139 16.5186C38.6235 16.5186 33.6533 15.7119 30.1625 14.4213C31.9644 17.0158 33.0954 20.2387 33.3036 23.7237C36.3837 24.4567 40.1163 24.8858 44.139 24.8858C54.7027 24.8858 63.2668 21.9264 63.2668 18.2757V11.7947ZM32.0063 32.1312C32.8177 29.9635 33.2392 27.7882 33.3228 25.6807C36.3922 26.3107 39.9766 26.6724 43.8056 26.6724C52.9734 26.6724 61.1776 24.5984 63.9959 21.734C64.1008 21.6525 64.2327 21.6039 64.3759 21.6039C64.7183 21.6039 64.9959 21.8815 64.9959 22.2239C64.9959 22.2356 64.9972 22.2433 64.9997 22.2473L64.9991 26.3634L64.9999 26.4391C64.9999 30.9748 57.2834 33.9295 46.2938 33.9295C40.8391 33.9295 35.5737 33.4382 32.0063 32.1312ZM26.9688 40.1102C28.5459 38.4813 29.9329 36.5479 31.0511 34.3176C31.1608 34.0989 31.2662 33.8799 31.3675 33.6606C34.8465 35.1044 39.9947 36.0435 46.6542 35.7644C53.2273 35.7644 59.08 34.3623 62.8429 32.4202V36.3675H62.8419C62.8426 36.3928 62.8429 36.4182 62.8429 36.4435C62.8429 41.7327 57.3033 43.9339 44.1367 43.9339C34.0234 43.2575 29.1391 42.0327 26.9688 40.1102ZM38.9575 5.44488L41.698 9.28381L47.9391 9.34846L49.7656 5.44488L46.1358 6.41267L44.3323 3.81851L42.6655 6.37871L38.9575 5.44488ZM24.4041 28.7963C27.633 19.7253 24.1155 10.9958 18.1426 8.8697C12.1698 6.74362 4.7103 12.3735 1.48145 21.4445C-1.7474 30.5154 0.477068 39.5924 6.44993 41.7184C12.4228 43.8445 21.1753 37.8672 24.4041 28.7963ZM7.27741 26.1274L9.55823 19.708L10.8498 23.5895L15.4683 19.7069L14.3722 26.0479L18.3705 25.41L13.391 30.9657L7.27741 26.1274ZM10.6266 43.5839C17.8496 44.6368 25.7812 40.9278 29.8051 32.902C34.2412 24.0541 30.9624 14.5821 24.4989 11.0688C23.7368 10.6867 22.9427 10.4103 22.1275 10.2341C27.1338 14.5653 28.9894 23.4367 24.8312 31.7304C21.7309 37.9138 16.0539 42.2484 10.6266 43.5839Z" fill="#FFCF53"/>
</svg>
