<svg width="84" height="84" viewBox="0 0 84 84" fill="none" xmlns="http://www.w3.org/2000/svg">
<circle cx="42" cy="42" r="42" fill="white"/>
<g clip-path="url(#clip0_204_817)">
<path d="M60 42.8831C60 41.3685 59.8774 40.2632 59.6122 39.1171H42.3673V45.9532H52.4897C52.2857 47.6521 51.1837 50.2105 48.7346 51.9297L48.7003 52.1586L54.1528 56.3949L54.5306 56.4327C57.9999 53.2193 60 48.4912 60 42.8831Z" fill="#4285F4"/>
<path d="M42.3673 60.8946C47.3265 60.8946 51.4897 59.2571 54.5306 56.4327L48.7346 51.9297C47.1837 53.0145 45.102 53.7718 42.3673 53.7718C37.5102 53.7718 33.3878 50.5584 31.9183 46.1169L31.7029 46.1353L26.0333 50.5359L25.9591 50.7426C28.9795 56.76 35.1836 60.8946 42.3673 60.8946Z" fill="#34A853"/>
<path d="M31.9183 46.117C31.5305 44.9708 31.3061 43.7427 31.3061 42.4737C31.3061 41.2047 31.5305 39.9767 31.8979 38.8305L31.8876 38.5864L26.147 34.1151L25.9591 34.2047C24.7143 36.7018 24 39.5059 24 42.4737C24 45.4415 24.7143 48.2455 25.9591 50.7426L31.9183 46.117Z" fill="#FBBC05"/>
<path d="M42.3674 31.1755C45.8163 31.1755 48.1428 32.6696 49.4694 33.9182L54.653 28.8422C51.4694 25.8744 47.3265 24.0527 42.3674 24.0527C35.1836 24.0527 28.9795 28.1872 25.9591 34.2046L31.8979 38.8304C33.3878 34.3889 37.5102 31.1755 42.3674 31.1755Z" fill="#EB4335"/>
</g>
<defs>
<clipPath id="clip0_204_817">
<rect width="36" height="36.9474" fill="white" transform="translate(24 24)"/>
</clipPath>
</defs>
</svg>
