<svg width="33" height="32" viewBox="0 0 33 32" fill="none" xmlns="http://www.w3.org/2000/svg">
<path fill-rule="evenodd" clip-rule="evenodd" d="M27.8055 10.1043L20.624 4.16665C18.2051 2.16662 14.7951 2.16662 12.3761 4.16665L5.1947 10.1043C3.90087 11.1741 3.16675 12.796 3.16675 14.4884V25.1652C3.16675 27.3892 4.88199 29.3333 7.16675 29.3333H9.83341C12.0426 29.3333 13.8334 27.5424 13.8334 25.3333V20.913C13.8334 20.0058 14.506 19.4116 15.1667 19.4116H17.8334C18.4942 19.4116 19.1667 20.0058 19.1667 20.913V25.3333C19.1667 27.5424 20.9576 29.3333 23.1667 29.3333H25.8334C28.1182 29.3333 29.8334 27.3892 29.8334 25.1652V14.4884C29.8334 12.796 29.0993 11.1741 27.8055 10.1043Z" fill="white"/>
</svg>