<svg width="33" height="32" viewBox="0 0 33 32" fill="none" xmlns="http://www.w3.org/2000/svg">
<path fill-rule="evenodd" clip-rule="evenodd" d="M9.83341 2.66663C6.15152 2.66663 3.16675 5.65139 3.16675 9.33329V22.6666C3.16675 26.3485 6.15152 29.3333 9.83341 29.3333H23.1667C26.8486 29.3333 29.8334 26.3485 29.8334 22.6666V9.33329C29.8334 5.65139 26.8486 2.66663 23.1667 2.66663H9.83341ZM17.8334 10.6666C17.8334 9.93025 17.2365 9.33329 16.5001 9.33329C15.7637 9.33329 15.1667 9.93025 15.1667 10.6666V21.3333C15.1667 22.0697 15.7637 22.6666 16.5001 22.6666C17.2365 22.6666 17.8334 22.0697 17.8334 21.3333V10.6666ZM11.1667 13.3333C11.9031 13.3333 12.5001 13.9302 12.5001 14.6666V21.3333C12.5001 22.0697 11.9031 22.6666 11.1667 22.6666C10.4304 22.6666 9.83341 22.0697 9.83341 21.3333V14.6666C9.83341 13.9302 10.4304 13.3333 11.1667 13.3333ZM21.8334 16C22.5698 16 23.1667 16.5969 23.1667 17.3333V21.3333C23.1667 22.0697 22.5698 22.6666 21.8334 22.6666C21.097 22.6666 20.5001 22.0697 20.5001 21.3333V17.3333C20.5001 16.5969 21.097 16 21.8334 16Z" fill="#5E6069"/>
</svg>