<svg width="174" height="60" viewBox="0 0 174 60" fill="none" xmlns="http://www.w3.org/2000/svg">
<path d="M0 11.6564H7.74658V40.349H0V11.6564Z" fill="white"/>
<path fill-rule="evenodd" clip-rule="evenodd" d="M45.5856 0V30.2618L50.2038 35.4175L54.8964 40.349H82.8288V10.0873L78.0617 4.93155L73.518 0H45.5856ZM53.3322 8.36869V26.0774L56.0292 29.0945L58.7697 31.9803H75.0822V14.2716L72.2982 11.2546L69.6447 8.36869H53.3322Z" fill="white"/>
<path d="M136.757 0H164.689L169.233 4.93155L174 10.0873V14.3463H166.253V14.2716L163.469 11.2546L160.816 8.36869H144.503V26.0774L147.2 29.0945L149.941 31.9803H166.253V20.3239H174V40.349H146.068L141.375 35.4175L136.757 30.2618V0Z" fill="white"/>
<path d="M155.527 20.324L166.253 20.3239L166.253 26.0027H155.527V20.324Z" fill="white"/>
<path d="M91.1306 0H119.063L123.607 4.93155L128.374 10.0873V40.349H120.63V15.2362H120.627V14.2716L117.843 11.2546L115.19 8.36869H98.8771V26.0774L98.8935 26.0958V38.7224L95.7487 35.4175L91.1306 30.2618V0Z" fill="white"/>
<path d="M49.1801 51.6692V52.5461H46.9356V59.9289H45.8606V52.5461H43.6042V51.6692H49.1801Z" fill="#FE5821"/>
<path d="M61.6905 51.6692V59.9289H60.6155V56.1842H56.4218V59.9289H55.3468V51.6692H56.4218V55.2954H60.6155V51.6692H61.6905Z" fill="#FE5821"/>
<path d="M69.4445 52.5461V55.3073H72.445V56.196H69.4445V59.0401H72.7994V59.9289H68.3695V51.6573H72.7994V52.5461H69.4445Z" fill="#FE5821"/>
<path d="M93.4997 54.063C93.2713 53.5811 92.9405 53.2097 92.5074 52.949C92.0742 52.6804 91.5702 52.5461 90.9953 52.5461C90.4204 52.5461 89.9006 52.6804 89.436 52.949C88.9792 53.2097 88.6169 53.589 88.3491 54.0867C88.0892 54.5765 87.9593 55.1453 87.9593 55.7931C87.9593 56.4409 88.0892 57.0098 88.3491 57.4996C88.6169 57.9894 88.9792 58.3686 89.436 58.6372C89.9006 58.8979 90.4204 59.0283 90.9953 59.0283C91.7986 59.0283 92.4601 58.7873 92.9799 58.3054C93.4997 57.8235 93.8029 57.1717 93.8895 56.3501H90.6055V55.4732H95.0354V56.3027C94.9724 56.9821 94.7598 57.6062 94.3975 58.175C94.0352 58.736 93.5588 59.1823 92.9681 59.5141C92.3774 59.838 91.7198 60 90.9953 60C90.2314 60 89.5344 59.8222 88.9044 59.4667C88.2743 59.1033 87.7742 58.6017 87.4041 57.9617C87.0418 57.3218 86.8607 56.5989 86.8607 55.7931C86.8607 54.9873 87.0418 54.2644 87.4041 53.6245C87.7742 52.9767 88.2743 52.475 88.9044 52.1195C89.5344 51.7561 90.2314 51.5744 90.9953 51.5744C91.8695 51.5744 92.6413 51.7917 93.3107 52.2262C93.988 52.6607 94.4802 53.2729 94.7873 54.063H93.4997Z" fill="#FE5821"/>
<path d="M106.167 58.0921H102.576L101.915 59.9289H100.78L103.757 51.7166H104.998L107.963 59.9289H106.829L106.167 58.0921ZM105.86 57.2152L104.372 53.0438L102.883 57.2152H105.86Z" fill="#FE5821"/>
<path d="M122.456 51.7285V59.9289H121.381V53.8141L118.664 59.9289H117.908L115.179 53.8023V59.9289H114.104V51.7285H115.261L118.286 58.5069L121.31 51.7285H122.456Z" fill="#FE5821"/>
<path d="M130.197 52.5461V55.3073H133.198V56.196H130.197V59.0401H133.552V59.9289H129.122V51.6573H133.552V52.5461H130.197Z" fill="#FE5821"/>
<path fill-rule="evenodd" clip-rule="evenodd" d="M28.0986 0H0V18.3811L9.3662 30.1337H37.4648V11.4882L28.0986 0ZM23.964 5.75588H7.76297V16.4954L13.1633 23.3621H29.3643V12.4681L23.964 5.75588Z" fill="white"/>
</svg>
