<svg width="25" height="25" viewBox="0 0 25 25" fill="none" xmlns="http://www.w3.org/2000/svg">
                    <path fill-rule="evenodd" clip-rule="evenodd" d="M12.5 2.08337C10.3849 2.08337 8.69691 2.83939 7.55023 4.1467C6.4208 5.43433 5.90278 7.15688 5.90278 8.95837V10.7639C5.90278 11.0181 5.78871 11.3239 5.49131 11.7185C5.20623 12.0968 4.83614 12.4515 4.42731 12.8434L4.35804 12.9098C3.6458 13.5932 3.125 14.583 3.125 15.7639C3.125 17.3646 4.37316 18.75 6.01852 18.75H18.9815C20.6268 18.75 21.875 17.3646 21.875 15.7639C21.875 14.583 21.3542 13.5932 20.642 12.9098L20.5727 12.8434C20.1639 12.4515 19.7938 12.0968 19.5087 11.7185C19.2113 11.3239 19.0972 11.0181 19.0972 10.7639V8.95837C19.0972 7.15688 18.5792 5.43433 17.4498 4.1467C16.3031 2.83939 14.6151 2.08337 12.5 2.08337Z" fill="#5E6069" />
                    <path fill-rule="evenodd" clip-rule="evenodd" d="M9.83648 19.9681C10.3143 19.6477 10.9614 19.7753 11.2818 20.2531C11.3853 20.4075 11.5461 20.5531 11.7624 20.6609C11.9789 20.7687 12.2338 20.8296 12.5 20.8296C12.7662 20.8296 13.0211 20.7687 13.2376 20.6609C13.4538 20.5531 13.6147 20.4075 13.7182 20.2531C14.0386 19.7753 14.6857 19.6477 15.1635 19.9681C15.6413 20.2886 15.7689 20.9357 15.4485 21.4135C15.1285 21.8905 14.6816 22.269 14.1666 22.5256C13.6519 22.782 13.0777 22.9129 12.5 22.9129C11.9223 22.9129 11.3481 22.782 10.8334 22.5256C10.3184 22.269 9.87143 21.8905 9.55151 21.4135C9.23109 20.9357 9.35867 20.2886 9.83648 19.9681Z" fill="#5E6069" />
                  </svg>