 <svg width="25" height="25" viewBox="0 0 21 21" fill="none" xmlns="http://www.w3.org/2000/svg">
                      <path fill-rule="evenodd" clip-rule="evenodd" d="M9.74032 0.083374C8.27847 0.083374 7.09341 1.26844 7.09341 2.73029C7.09341 2.94215 6.94731 3.2248 6.59814 3.41443C6.49069 3.47279 6.38472 3.53348 6.2803 3.59642C5.93205 3.80636 5.60514 3.79289 5.41319 3.68306C4.13841 2.95367 2.51393 3.38892 1.77461 4.65798L1.04084 5.91751C0.30009 7.18901 0.737239 8.82053 2.01448 9.55133C2.19966 9.65728 2.37377 9.92677 2.36529 10.3278C2.36408 10.3851 2.36347 10.4425 2.36347 10.5C2.36347 10.5576 2.36408 10.615 2.36529 10.6723C2.37378 11.0733 2.19967 11.3428 2.0145 11.4488C0.737273 12.1796 0.300127 13.8111 1.04086 15.0825L1.77466 16.3421C2.51398 17.6112 4.13844 18.0464 5.41323 17.317C5.60516 17.2072 5.93207 17.1937 6.28031 17.4037C6.38472 17.4666 6.49069 17.5273 6.59814 17.5856C6.94731 17.7753 7.09341 18.0579 7.09341 18.2698C7.09341 19.7316 8.27847 20.9167 9.74032 20.9167H11.2598C12.7216 20.9167 13.9067 19.7316 13.9067 18.2698C13.9067 18.0579 14.0528 17.7753 14.402 17.5856C14.5094 17.5273 14.6154 17.4666 14.7198 17.4037C15.068 17.1937 15.3949 17.2072 15.5869 17.317C16.8616 18.0464 18.4861 17.6112 19.2254 16.3421L19.9592 15.0826C20.7 13.8111 20.2628 12.1796 18.9856 11.4488C18.8004 11.3428 18.6263 11.0734 18.6348 10.6724C18.636 10.615 18.6366 10.5576 18.6366 10.5C18.6366 10.4425 18.636 10.3851 18.6348 10.3278C18.6263 9.92676 18.8004 9.65727 18.9856 9.55132C20.2629 8.82052 20.7 7.189 19.9593 5.9175L19.2255 4.65798C18.4862 3.38892 16.8617 2.95366 15.5869 3.68305C15.3949 3.79288 15.068 3.80635 14.7198 3.59642C14.6154 3.53347 14.5094 3.47279 14.4019 3.41443C14.0528 3.2248 13.9067 2.94215 13.9067 2.73029C13.9067 1.26844 12.7216 0.083374 11.2598 0.083374H9.74032ZM10.5 7.37504C8.77408 7.37504 7.37497 8.77415 7.37497 10.5C7.37497 12.2259 8.77408 13.625 10.5 13.625C12.2259 13.625 13.625 12.2259 13.625 10.5C13.625 8.77415 12.2259 7.37504 10.5 7.37504Z" fill="#5E6069" />
                    </svg>