<svg width="24" height="12" viewBox="0 0 24 12" fill="none" xmlns="http://www.w3.org/2000/svg">
<path d="M2.25094 0.5H22.94C23.0014 0.5 23.0147 0.50014 23.0236 0.500555C23.2812 0.512704 23.4873 0.718819 23.4994 0.976447C23.4999 0.98525 23.5 0.998589 23.5 1.06V9.60827L23.4999 9.64106C23.4975 9.75299 23.4576 9.86088 23.3867 9.94745L23.3654 9.97244L22.2254 11.3042C22.2061 11.3267 22.2022 11.3312 22.1989 11.3349C22.1071 11.4367 21.9776 11.4963 21.8406 11.4998C21.839 11.4999 21.8372 11.4999 21.8347 11.4999C21.8293 11.5 21.8201 11.5 21.8 11.5H1.08783C1.0266 11.5 1.0133 11.4999 1.00451 11.4994C0.747445 11.4873 0.541548 11.2821 0.528649 11.0251C0.528208 11.0163 0.528027 11.003 0.527837 10.9417L0.501256 2.40275L0.50127 2.36894C0.503432 2.25365 0.545374 2.14266 0.619992 2.05475L0.642345 2.02937L1.83204 0.688361C1.85127 0.66668 1.85516 0.662355 1.85847 0.658804C1.95003 0.560727 2.07716 0.503562 2.21129 0.500161C2.21615 0.500038 2.22196 0.5 2.25094 0.5Z" fill="white" stroke="#D7D7D7"/>
</svg>
