<svg width="62" height="51" viewBox="0 0 64 52" fill="none" xmlns="http://www.w3.org/2000/svg">
<path fill-rule="evenodd" clip-rule="evenodd" d="M26.8641 16.9726C25.4513 13.9373 24.9386 9.64504 25.6863 5.06213C25.8853 3.84235 26.1624 2.67047 26.5054 1.5616C21.1168 -1.40655 12.7317 1.04752 6.703 7.69868C3.05895 11.719 1.02534 16.446 0.755615 20.6765C4.32891 21.9526 7.81421 25.2583 9.93604 29.849C10.0541 30.1044 10.1663 30.3604 10.2729 30.6168C11.4223 28.0366 13.1754 25.4883 15.4848 23.2244C18.9482 19.8292 23.026 17.6975 26.8641 16.9726ZM52.55 18.3212C58.31 18.3212 63.0028 24.8673 63.2002 33.0492L63.1942 33.0524L63.2444 33.9873C63.2444 33.9873 58.0409 36.5211 52.8332 38.9601C49.5875 40.4802 46.3402 41.9635 44.35 42.7737C39.1665 44.8836 20.5869 51.9927 20.5869 51.9927C20.5869 51.9927 19.8286 52.133 19.5443 51.1853C19.288 50.3306 19.9265 49.9415 19.9265 49.9415C23.1804 48.8995 28.728 46.713 33.5829 44.7995L33.583 44.7995L33.5835 44.7993C36.0057 43.8446 38.2554 42.9579 39.9618 42.3153C41.1378 41.8162 42.2171 41.3671 43.2161 40.9581C42.373 38.7727 41.8932 36.2597 41.8932 33.5861C41.8932 25.1556 46.6644 18.3212 52.55 18.3212ZM29.5412 21.9196C29.1132 21.3208 28.7152 20.6776 28.3509 19.9952C24.5822 20.4499 20.4782 22.3536 16.9676 25.5818C14.8158 27.5604 13.1413 29.8028 11.9903 32.0983L19.4421 48.0983L40.74 40.0223C40.3366 38.1539 40.1193 36.1683 40.1193 34.11C40.1193 31.3682 40.5048 28.7554 41.2024 26.3766C40.2179 26.742 39.1858 26.9364 38.1222 26.9364C37.0904 26.9364 36.0883 26.7535 35.1304 26.4089C33.534 27.7462 31.8766 29.4285 30.6023 31.5169C30.2867 32.0341 29.6116 32.1976 29.0944 31.882C28.5771 31.5664 28.4137 30.8912 28.7293 30.374C29.9615 28.3545 31.5019 26.6896 33.0116 25.3406C32.281 24.8597 31.5886 24.2789 30.9429 23.6103C29.0749 25.0534 26.9891 26.9771 25.4571 29.488C25.1415 30.0052 24.4664 30.1686 23.9491 29.853C23.4319 29.5374 23.2684 28.8623 23.584 28.345C25.2804 25.5649 27.5608 23.4567 29.5412 21.9196Z" fill="#C2784F"/>
</svg>
