<svg width="33" height="32" viewBox="0 0 33 32" fill="none" xmlns="http://www.w3.org/2000/svg">
<path fill-rule="evenodd" clip-rule="evenodd" d="M15.1667 5.33329C10.0121 5.33329 5.83341 9.51197 5.83341 14.6666C5.83341 19.8213 10.0121 24 15.1667 24C20.3214 24 24.5001 19.8213 24.5001 14.6666C24.5001 9.51197 20.3214 5.33329 15.1667 5.33329ZM3.16675 14.6666C3.16675 8.03921 8.53933 2.66663 15.1667 2.66663C21.7942 2.66663 27.1667 8.03921 27.1667 14.6666C27.1667 21.294 21.7942 26.6666 15.1667 26.6666C8.53933 26.6666 3.16675 21.294 3.16675 14.6666Z" fill="#5E6069"/>
<path fill-rule="evenodd" clip-rule="evenodd" d="M22.224 21.7238C22.7447 21.2031 23.5889 21.2031 24.1096 21.7238L29.443 27.0571C29.9637 27.5778 29.9637 28.422 29.443 28.9427C28.9223 29.4634 28.0781 29.4634 27.5574 28.9427L22.224 23.6094C21.7033 23.0887 21.7033 22.2445 22.224 21.7238Z" fill="#5E6069"/>
</svg>