<svg width="66" height="38" viewBox="0 0 66 38" fill="none" xmlns="http://www.w3.org/2000/svg">
<path fill-rule="evenodd" clip-rule="evenodd" d="M0.0930176 19.0901C6.41263 9.27961 17.8726 0.180176 33 0.180176C48.1273 0.180176 60.2452 9.27961 65.9069 19.0901C60.311 29.6769 48.1273 37.9999 33 37.9999C17.8726 37.9999 6.80749 29.8181 0.0930176 19.0901ZM48.663 19.09C48.663 28.3671 41.6505 35.8877 33.0003 35.8877C24.35 35.8877 17.3376 28.3671 17.3376 19.09C17.3376 12.4117 20.9715 6.64362 26.2344 3.93607L31.4521 14.8102L24.8662 13.9831L39.0596 29.5731L34.6446 17.5977L40.2897 18.3066L33.4836 2.30014C41.9103 2.57407 48.663 9.9863 48.663 19.09Z" fill="#8655F4"/>
</svg>
