<svg width="41" height="41" viewBox="0 0 41 41" fill="none" xmlns="http://www.w3.org/2000/svg">
<path d="M0 37.3208L1.29722 36.0235L4.74774 39.4741L3.45052 40.7712L0 37.3208ZM18.0396 26.4808C18.0396 24.4086 16.3586 22.7275 14.2863 22.7275C12.2141 22.7275 10.5332 24.4085 10.5332 26.4807C10.5332 28.5529 12.2133 30.2331 14.2865 30.234C16.3597 30.2349 18.0406 28.5539 18.0397 26.4808H18.0396ZM10.5507 26.8395L10.5162 26.8051L3.41229 33.909L6.86286 37.3595L13.9668 30.2556L13.9276 30.2163C12.1409 30.046 10.7202 28.6253 10.5507 26.8395H10.5507ZM10.5332 26.4808C10.5332 24.5372 12.0118 22.938 13.905 22.7467C11.9092 20.4781 10.1375 18.0111 8.61555 15.3748L3.85065 20.1395L10.5506 26.8395C10.5394 26.7215 10.5331 26.6018 10.5331 26.4807L10.5332 26.4808ZM18.0206 26.8635C17.8296 28.7569 16.2305 30.235 14.2865 30.234C14.1653 30.234 14.0457 30.2277 13.9275 30.2164L20.6351 36.924L25.3998 32.1593C22.7493 30.6286 20.2817 28.8535 18.0205 26.8635L18.0206 26.8635ZM33.6569 1.26792L15.5912 19.3336C15.8703 19.7446 16.0495 20.248 16.0495 20.7779C16.0495 21.5993 15.657 22.3342 15.0511 22.8058C16.5335 23.1129 17.6955 24.295 17.9746 25.7874C18.445 25.1628 19.1918 24.7565 20.0279 24.7565C20.5578 24.7565 21.032 24.9064 21.4364 25.1788L39.502 7.1133L40.77 0L33.6569 1.26792ZM0.620763 35.3468L5.42714 40.1532L7.54174 38.0385L2.73537 33.2321L0.620763 35.3468Z" fill="#4D4E57"/>
</svg>
