<svg width="24" height="24" viewBox="0 0 24 24" fill="none" xmlns="http://www.w3.org/2000/svg">
<path fill-rule="evenodd" clip-rule="evenodd" d="M12 22C17.5228 22 22 17.5228 22 12C22 6.47715 17.5228 2 12 2C6.47715 2 2 6.47715 2 12C2 17.5228 6.47715 22 12 22ZM8.22222 9.57037V17.6741H11.4815L11.6296 16.7704L11.4815 15.2889V14.963H13.1111C14.4741 14.963 15.5259 14.6617 16.2667 14.0593C17.0173 13.4469 17.3926 12.4444 17.3926 11.0519C17.3926 10.1235 17.2395 9.37778 16.9333 8.81481C16.6272 8.24198 16.1877 7.82716 15.6148 7.57037C15.042 7.31358 14.3556 7.18519 13.5556 7.18519H8.22222L7.92593 8.07407L8.22222 9.57037ZM12.3407 12.1926H11.4815L11.3333 10H12.2815C12.6272 10 12.9284 10.0198 13.1852 10.0593C13.4519 10.0889 13.6593 10.1827 13.8074 10.3407C13.9556 10.4988 14.0296 10.7605 14.0296 11.1259C14.0296 11.4716 13.9605 11.7235 13.8222 11.8815C13.684 12.0296 13.4864 12.1185 13.2296 12.1481C12.9827 12.1778 12.6864 12.1926 12.3407 12.1926Z"/>
</svg>
