<svg width="19" height="18" viewBox="0 0 19 18" fill="none" xmlns="http://www.w3.org/2000/svg">
<path fill-rule="evenodd" clip-rule="evenodd" d="M13.2076 0.873522C13.7669 0.314215 14.5255 0 15.3165 0C15.7081 0 16.0959 0.0771417 16.4578 0.227021C16.8196 0.3769 17.1484 0.596581 17.4253 0.873522C17.7023 1.15046 17.9219 1.47924 18.0718 1.84108C18.2217 2.20292 18.2988 2.59074 18.2988 2.98239C18.2988 3.37404 18.2217 3.76186 18.0718 4.1237C17.9219 4.48554 17.7023 4.81432 17.4253 5.09126L16.3219 6.19466C15.9314 6.58519 15.2982 6.58519 14.9077 6.19467L12.1042 3.39114C11.7137 3.00062 11.7137 2.36745 12.1042 1.97693L13.2076 0.873522ZM10.69 4.80536C10.2994 4.41483 9.66628 4.41483 9.27576 4.80536L2.30968 11.7714C1.66888 12.4122 1.21429 13.2151 0.9945 14.0943L0.328707 16.7575C0.243513 17.0982 0.343362 17.4587 0.591742 17.7071C0.840123 17.9555 1.20061 18.0553 1.54138 17.9701L4.20456 17.3043C5.08372 17.0846 5.88662 16.63 6.52741 15.9892L13.4935 9.02309C13.884 8.63257 13.884 7.9994 13.4935 7.60888L10.69 4.80536Z" fill="#9B9CA2"/>
<path fill-rule="evenodd" clip-rule="evenodd" d="M9.29885 17C9.29885 16.4477 9.74656 16 10.2988 16H17.2988C17.8511 16 18.2988 16.4477 18.2988 17C18.2988 17.5523 17.8511 18 17.2988 18H10.2988C9.74656 18 9.29885 17.5523 9.29885 17Z" fill="#9B9CA2"/>
</svg>
